STARTFONT 2.1
FONT -FontForge-Good Times Rg-Book-R-Normal--149-1430-75-75-P-1106-ISO10646-1
SIZE 143 75 75
FONTBOUNDINGBOX 296 175 -41 -30
COMMENT "Generated by fontforge, http://fontforge.sourceforge.net"
COMMENT "(c) 1998-2012 Typodermic Fonts Inc. See attached license agreement. If agreement is missing visit typodermicfonts.com for more info. Languages by Chikako Larabie"
STARTPROPERTIES 39
FOUNDRY "FontForge"
FAMILY_NAME "Good Times Rg"
WEIGHT_NAME "Book"
SLANT "R"
SETWIDTH_NAME "Normal"
ADD_STYLE_NAME ""
PIXEL_SIZE 149
POINT_SIZE 1430
RESOLUTION_X 75
RESOLUTION_Y 75
SPACING "P"
AVERAGE_WIDTH 1106
CHARSET_REGISTRY "ISO10646"
CHARSET_ENCODING "1"
FONTNAME_REGISTRY ""
CHARSET_COLLECTIONS "ISO8859-2 ISO8859-9 ISO8859-4 ISO10646-1"
FONT_NAME "GoodTimesRg-Regular"
FACE_NAME "GoodTimesRg-Regular"
COPYRIGHT "(c) 1998-2012 Typodermic Fonts Inc. See attached license agreement. If agreement is missing visit typodermicfonts.com for more info. Languages by Chikako Larabie"
FONT_VERSION "4.001"
FONT_ASCENT 119
FONT_DESCENT 30
UNDERLINE_POSITION -21
UNDERLINE_THICKNESS 3
X_HEIGHT 107
CAP_HEIGHT 107
RAW_ASCENT 799
RAW_DESCENT 201
NORM_SPACE 44
RELATIVE_WEIGHT 40
RELATIVE_SETWIDTH 50
SUPERSCRIPT_X 0
SUPERSCRIPT_Y 44
SUPERSCRIPT_SIZE 44
SUBSCRIPT_X 0
SUBSCRIPT_Y 0
SUBSCRIPT_SIZE 44
AVG_LOWERCASE_WIDTH 1268
AVG_UPPERCASE_WIDTH 1263
ENDPROPERTIES
CHARS 372
STARTCHAR space
ENCODING 32
SWIDTH 294 0
DWIDTH 44 0
BBX 1 1 0 0
BITMAP
00
ENDCHAR
STARTCHAR exclam
ENCODING 33
SWIDTH 298 0
DWIDTH 44 0
BBX 21 108 12 0
BITMAP
7FFFE0
7FFFE0
7FFFE0
7FFFE0
7FFFE0
7FFFE0
7FFFE0
7FFFE0
7FFFE0
7FFFE0
7FFFE0
7FFFE0
7FFFE0
7FFFE0
7FFFE0
7FFFE0
7FFFE0
7FFFE0
7FFFE0
7FFFE0
7FFFE0
7FFFE0
7FFFE0
7FFFE0
7FFFE0
7FFFE0
7FFFE0
7FFFE0
7FFFE0
7FFFE0
7FFFE0
7FFFE0
7FFFE0
7FFFE0
7FFFE0
7FFFE0
7FFFE0
7FFFE0
7FFFE0
7FFFE0
7FFFE0
7FFFE0
7FFFE0
7FFFE0
7FFFE0
7FFFE0
7FFFE0
7FFFE0
7FFFE0
7FFFE0
7FFFE0
7FFFE0
7FFFE0
7FFFE0
7FFFE0
7FFFE0
7FFFE0
7FFFE0
7FFFE0
7FFFE0
7FFFE0
7FFFE0
7FFFE0
7FFFE0
7FFFE0
7FFFE0
7FFFE0
7FFFE0
7FFFE0
7FFFE0
7FFFE0
7FFFE0
7FFFE0
000000
000000
000000
000000
000000
000000
000000
000000
000000
000000
000000
000000
000000
000000
000000
01FC00
07FF00
0FFF80
1FFFC0
3FFFE0
7FFFF0
7FFFF0
7FFFF0
FFFFF8
FFFFF8
FFFFF8
FFFFF8
7FFFF0
7FFFF0
7FFFF0
3FFFE0
1FFFC0
0FFFC0
07FF00
01FC00
ENDCHAR
STARTCHAR quotedbl
ENCODING 34
SWIDTH 452 0
DWIDTH 67 0
BBX 47 39 10 69
BITMAP
FFFFE00FFFFE
FFFFE00FFFFE
FFFFE00FFFFE
FFFFE00FFFFE
7FFFE00FFFFE
7FFFE007FFFE
7FFFE007FFFE
7FFFE007FFFE
7FFFE007FFFC
7FFFE007FFFC
7FFFC007FFFC
7FFFC007FFFC
7FFFC007FFFC
7FFFC007FFFC
7FFFC007FFFC
7FFFC007FFFC
3FFFC003FFFC
3FFFC003FFFC
3FFFC003FFFC
3FFFC003FFFC
3FFFC003FFF8
3FFF8003FFF8
3FFF8003FFF8
3FFF8003FFF8
3FFF8003FFF8
3FFF8003FFF8
3FFF8003FFF8
1FFF8001FFF8
1FFF8001FFF8
1FFF8001FFF8
1FFF8001FFF8
1FFF8001FFF0
1FFF8001FFF0
1FFF0001FFF0
1FFF0001FFF0
1FFF0001FFF0
1FFF0001FFF0
1FFF0001FFF0
0FFF0000FFF0
ENDCHAR
STARTCHAR numbersign
ENCODING 35
SWIDTH 697 0
DWIDTH 104 0
BBX 91 108 7 0
BITMAP
0000000007FFC00000FFFC00
000000000FFFC00000FFF800
000000000FFFC00000FFF800
000000000FFF800001FFF800
000000001FFF800001FFF000
000000001FFF800001FFF000
000000001FFF000003FFF000
000000001FFF000003FFF000
000000003FFF000003FFE000
000000003FFF000003FFE000
000000003FFE000007FFE000
000000007FFE000007FFC000
000000007FFE000007FFC000
000000007FFC00000FFFC000
00000000FFFC00000FFFC000
00000000FFFC00000FFF8000
00000000FFF800001FFF8000
00000000FFF800001FFF8000
00000001FFF800001FFF0000
00000001FFF800001FFF0000
00000001FFF000003FFF0000
00000003FFF000003FFE0000
00000003FFF000003FFE0000
00000003FFE000007FFE0000
00000003FFE000007FFE0000
00000007FFE000007FFC0000
00000007FFC000007FFC0000
00000007FFC00000FFFC0000
001FFFFFFFFFFFFFFFFFFFE0
001FFFFFFFFFFFFFFFFFFFE0
001FFFFFFFFFFFFFFFFFFFE0
001FFFFFFFFFFFFFFFFFFFE0
001FFFFFFFFFFFFFFFFFFFE0
001FFFFFFFFFFFFFFFFFFFE0
001FFFFFFFFFFFFFFFFFFFE0
001FFFFFFFFFFFFFFFFFFFE0
001FFFFFFFFFFFFFFFFFFFE0
001FFFFFFFFFFFFFFFFFFFE0
001FFFFFFFFFFFFFFFFFFFE0
001FFFFFFFFFFFFFFFFFFFE0
000000FFFC00000FFF800000
000000FFFC00000FFF800000
000000FFF800001FFF800000
000000FFF800001FFF800000
000001FFF800001FFF000000
000001FFF000001FFF000000
000001FFF000003FFF000000
000003FFF000003FFE000000
000003FFE000003FFE000000
000003FFE000007FFE000000
000007FFE000007FFC000000
000007FFE000007FFC000000
000007FFC00000FFFC000000
000007FFC00000FFFC000000
00000FFFC00000FFF8000000
00000FFF800000FFF8000000
00000FFF800001FFF8000000
00001FFF800001FFF0000000
00001FFF000001FFF0000000
00001FFF000003FFF0000000
00003FFF000003FFF0000000
00003FFF000003FFE0000000
00003FFE000007FFE0000000
00003FFE000007FFE0000000
00007FFE000007FFC0000000
00007FFC000007FFC0000000
FFFFFFFFFFFFFFFFFFFE0000
FFFFFFFFFFFFFFFFFFFE0000
FFFFFFFFFFFFFFFFFFFE0000
FFFFFFFFFFFFFFFFFFFE0000
FFFFFFFFFFFFFFFFFFFE0000
FFFFFFFFFFFFFFFFFFFE0000
FFFFFFFFFFFFFFFFFFFE0000
FFFFFFFFFFFFFFFFFFFE0000
FFFFFFFFFFFFFFFFFFFE0000
FFFFFFFFFFFFFFFFFFFE0000
FFFFFFFFFFFFFFFFFFFE0000
FFFFFFFFFFFFFFFFFFFE0000
FFFFFFFFFFFFFFFFFFFE0000
0007FFC00000FFFC00000000
0007FFC00000FFFC00000000
000FFFC00000FFF800000000
000FFF800000FFF800000000
000FFF800001FFF800000000
001FFF800001FFF000000000
001FFF000001FFF000000000
001FFF000003FFF000000000
003FFF000003FFE000000000
003FFF000003FFE000000000
003FFE000007FFE000000000
003FFE000007FFE000000000
007FFE000007FFC000000000
007FFC00000FFFC000000000
007FFC00000FFFC000000000
00FFFC00000FFF8000000000
00FFF800000FFF8000000000
00FFF800001FFF8000000000
01FFF800001FFF0000000000
01FFF000001FFF0000000000
01FFF000003FFF0000000000
01FFF000003FFE0000000000
03FFF000003FFE0000000000
03FFE000007FFE0000000000
03FFE000007FFE0000000000
07FFE000007FFC0000000000
07FFC000007FFC0000000000
07FFC00000FFFC0000000000
0FFFC00000FFF80000000000
ENDCHAR
STARTCHAR dollar
ENCODING 36
SWIDTH 744 0
DWIDTH 111 0
BBX 94 108 8 0
BITMAP
00000000000FF00000000000
00000000000FF00000000000
00000000000FF00000000000
00000000000FF00000000000
00000000000FF00000000000
00000000000FF00000000000
00000000000FF00000000000
00000000000FF00000000000
00000000000FF00000000000
00000000000FF00000000000
00000000000FF00000000000
000007FFFFFFFFFFFFFFFFC0
00007FFFFFFFFFFFFFFFFFC0
0003FFFFFFFFFFFFFFFFFFC0
000FFFFFFFFFFFFFFFFFFFC0
003FFFFFFFFFFFFFFFFFFFC0
007FFFFFFFFFFFFFFFFFFFC0
00FFFFFFFFFFFFFFFFFFFFC0
01FFFFFFFFFFFFFFFFFFFFC0
03FFFFFFFFFFFFFFFFFFFFC0
07FFFFFFFFFFFFFFFFFFFFC0
0FFFFFFFFFFFFFFFFFFFFFC0
0FFFFFFFFFFFFFFFFFFFFFC0
1FFFFFFFFFFFFFFFFFFFFFC0
1FFFFFFFFFFFFFFFFFFFFFC0
3FFFFFFFFFFFFFFFFFFFFFC0
3FFFFE00000FF00000000000
7FFFF800000FF00000000000
7FFFE000000FF00000000000
7FFFE000000FF00000000000
7FFFC000000FF00000000000
7FFF8000000FF00000000000
7FFF8000000FF00000000000
7FFF8000000FF00000000000
FFFF0000000FF00000000000
FFFF0000000FF00000000000
7FFF0000000FF00000000000
7FFF0000000FF00000000000
7FFF0000000FF00000000000
7FFF8000000FF00000000000
7FFF8000000FF00000000000
7FFF8000000FF00000000000
3FFFC000000FF00000000000
3FFFE000000FF00000000000
3FFFF000000FF00000000000
1FFFF800000FF00000000000
1FFFFE00000FF00000000000
0FFFFFFFFFFFFFFFFFC00000
07FFFFFFFFFFFFFFFFFE0000
07FFFFFFFFFFFFFFFFFF8000
03FFFFFFFFFFFFFFFFFFE000
01FFFFFFFFFFFFFFFFFFF800
00FFFFFFFFFFFFFFFFFFFC00
007FFFFFFFFFFFFFFFFFFF00
001FFFFFFFFFFFFFFFFFFF80
000FFFFFFFFFFFFFFFFFFF80
0003FFFFFFFFFFFFFFFFFFC0
00007FFFFFFFFFFFFFFFFFE0
000007FFFFFFFFFFFFFFFFE0
00000000000FF00000FFFFF0
00000000000FF000003FFFF0
00000000000FF000000FFFF8
00000000000FF0000007FFF8
00000000000FF0000003FFF8
00000000000FF0000003FFF8
00000000000FF0000001FFFC
00000000000FF0000001FFFC
00000000000FF0000001FFFC
00000000000FF0000001FFFC
00000000000FF0000000FFFC
00000000000FF0000000FFFC
00000000000FF0000000FFFC
00000000000FF0000001FFFC
00000000000FF0000001FFFC
00000000000FF0000001FFFC
00000000000FF0000001FFFC
00000000000FF0000003FFFC
00000000000FF0000003FFFC
00000000000FF0000007FFF8
00000000000FF000000FFFF8
00000000000FF000003FFFF8
00000000000FF00000FFFFF8
3FFFFFFFFFFFFFFFFFFFFFF0
3FFFFFFFFFFFFFFFFFFFFFF0
3FFFFFFFFFFFFFFFFFFFFFE0
3FFFFFFFFFFFFFFFFFFFFFE0
3FFFFFFFFFFFFFFFFFFFFFC0
3FFFFFFFFFFFFFFFFFFFFF80
3FFFFFFFFFFFFFFFFFFFFF80
3FFFFFFFFFFFFFFFFFFFFF00
3FFFFFFFFFFFFFFFFFFFFE00
3FFFFFFFFFFFFFFFFFFFFC00
3FFFFFFFFFFFFFFFFFFFF000
3FFFFFFFFFFFFFFFFFFFC000
3FFFFFFFFFFFFFFFFFFF0000
3FFFFFFFFFFFFFFFFFFC0000
3FFFFFFFFFFFFFFFFFC00000
00000000000FF00000000000
00000000000FF00000000000
00000000000FF00000000000
00000000000FF00000000000
00000000000FF00000000000
00000000000FF00000000000
00000000000FF00000000000
00000000000FF00000000000
00000000000FF00000000000
00000000000FF00000000000
00000000000FF00000000000
ENDCHAR
STARTCHAR percent
ENCODING 37
SWIDTH 965 0
DWIDTH 144 0
BBX 132 125 6 -10
BITMAP
000000000000000000000000003FFE0000
000000000000000000000000003FFC0000
000000000000000000000000007FF80000
00000000000000000000000000FFF80000
000001FFC00000000000000001FFF00000
00001FFFFC0000000000000003FFE00000
0000FFFFFF0000000000000003FFC00000
0003FFFFFFE000000000000007FFC00000
000FFFFFFFF00000000000000FFF800000
001FFFFFFFFC0000000000001FFF000000
003FFFFFFFFE0000000000003FFE000000
007FFFFFFFFF0000000000003FFC000000
00FFFFFFFFFF8000000000007FFC000000
01FFFFFFFFFFC00000000000FFF8000000
03FFFE007FFFE00000000001FFF0000000
07FFF00007FFF00000000001FFE0000000
0FFFC00001FFF00000000003FFC0000000
0FFF000000FFF80000000007FFC0000000
1FFE0000007FF8000000000FFF80000000
1FFC0000003FFC000000001FFF00000000
3FF80000001FFC000000001FFE00000000
3FF80000000FFE000000003FFE00000000
3FF000000007FE000000007FFC00000000
7FE000000007FE00000000FFF800000000
7FE000000003FF00000001FFF000000000
7FE000000003FF00000001FFE000000000
7FC000000003FF00000003FFE000000000
FFC000000003FF00000007FFC000000000
FFC000000001FF0000000FFF8000000000
FFC000000001FF0000000FFF0000000000
FFC000000001FF0000001FFF0000000000
FFC000000001FF0000003FFE0000000000
FFC000000001FF0000007FFC0000000000
FFC000000001FF000000FFF80000000000
FFC000000001FF000000FFF00000000000
FFC000000001FF000001FFF00000000000
7FC000000003FF000003FFE00000000000
7FC000000003FF000007FFC00000000000
7FE000000003FF00000FFF800000000000
7FE000000007FE00000FFF000000000000
3FE000000007FE00001FFF000000000000
3FF000000007FE00003FFE000000000000
3FF80000000FFC00007FFC000000000000
1FF80000001FFC00007FF8000000000000
1FFC0000003FF80000FFF8000000000000
0FFE0000007FF80001FFF0000000000000
0FFF000000FFF00003FFE0000000000000
07FFC00001FFF00007FFC0000000000000
03FFF00007FFE00007FF80000000000000
03FFFE007FFFC0000FFF80000000000000
01FFFFFFFFFF80001FFF00000000000000
00FFFFFFFFFF00003FFE00000000000000
007FFFFFFFFE00007FFC00000000000000
003FFFFFFFFC00007FF800000000000000
001FFFFFFFF80000FFF800000000000000
0007FFFFFFF00001FFF000000000000000
0001FFFFFFC00003FFE000000000000000
00007FFFFF000003FFC000000000000000
00001FFFFC000007FFC000000000000000
000001FFC000000FFF8000000000000000
000000000000001FFF0000000000000000
000000000000003FFE0000003FF8000000
000000000000003FFC000003FFFF800000
000000000000007FFC00001FFFFFF00000
00000000000000FFF800007FFFFFFC0000
00000000000001FFF00001FFFFFFFE0000
00000000000003FFE00003FFFFFFFF8000
00000000000003FFE00007FFFFFFFFC000
00000000000007FFC0000FFFFFFFFFE000
0000000000000FFF80001FFFFFFFFFF000
0000000000001FFF00003FFFFFFFFFF800
0000000000001FFE00007FFFC00FFFFC00
0000000000003FFE0000FFFE0000FFFE00
0000000000007FFC0000FFF800003FFE00
000000000000FFF80001FFE000001FFF00
000000000001FFF00003FFC0000007FF00
000000000001FFE00003FF80000003FF80
000000000003FFE00007FF00000003FF80
000000000007FFC00007FF00000001FFC0
00000000000FFF800007FE00000000FFC0
00000000001FFF00000FFC00000000FFC0
00000000001FFF00000FFC000000007FE0
00000000003FFE00000FFC000000007FE0
00000000007FFC00000FF8000000007FE0
0000000000FFF800000FF8000000003FE0
0000000001FFF000001FF8000000003FE0
0000000001FFF000001FF8000000003FE0
0000000003FFE000001FF8000000003FE0
0000000007FFC000001FF8000000003FF0
000000000FFF8000001FF8000000003FF0
000000000FFF0000001FF8000000003FE0
000000001FFF0000001FF8000000003FE0
000000003FFE0000000FF8000000003FE0
000000007FFC0000000FF8000000007FE0
00000000FFF80000000FF8000000007FE0
00000000FFF80000000FFC000000007FE0
00000001FFF00000000FFC000000007FC0
00000003FFE000000007FE00000000FFC0
00000007FFC000000007FE00000000FFC0
0000000FFF8000000007FF00000001FF80
0000000FFF8000000003FF00000003FF80
0000001FFF0000000003FF80000007FF00
0000003FFE0000000001FFC0000007FF00
0000007FFC0000000001FFE000001FFE00
0000007FFC0000000000FFF800003FFE00
000000FFF800000000007FFE0000FFFC00
000001FFF000000000007FFFC00FFFF800
000003FFE000000000003FFFFFFFFFF800
000007FFC000000000001FFFFFFFFFF000
000007FFC000000000000FFFFFFFFFE000
00000FFF80000000000007FFFFFFFF8000
00001FFF00000000000001FFFFFFFF0000
00003FFE00000000000000FFFFFFFE0000
00007FFC000000000000003FFFFFF80000
00007FFC000000000000000FFFFFE00000
0000FFF80000000000000003FFFF800000
0001FFF000000000000000003FF8000000
0003FFE000000000000000000000000000
0003FFE000000000000000000000000000
0007FFC000000000000000000000000000
000FFF8000000000000000000000000000
001FFF0000000000000000000000000000
003FFE0000000000000000000000000000
003FFE0000000000000000000000000000
00FFFC0000000000000000000000000000
ENDCHAR
STARTCHAR ampersand
ENCODING 38
SWIDTH 759 0
DWIDTH 113 0
BBX 102 108 7 0
BITMAP
00000007FFFFFFC00000000000
000000FFFFFFFFC00000000000
000007FFFFFFFFC00000000000
00003FFFFFFFFFC00000000000
0000FFFFFFFFFFC00000000000
0003FFFFFFFFFFC00000000000
0007FFFFFFFFFFC00000000000
001FFFFFFFFFFFC00000000000
003FFFFFFFFFFFC00000000000
007FFFFFFFFFFFC00000000000
00FFFFFFFFFFFFC00000000000
01FFFFFFFFFFFFC00000000000
01FFFFFFFFFFFFC00000000000
03FFFFFFFFFFFFC00000000000
07FFFFFFFFFFFFC00000000000
07FFFFFFFFFFFFC00000000000
07FFFFFFFFFFFFC00000000000
0FFFFFFFFFFFFFC00000000000
0FFFFFFFFFFFFFC00000000000
1FFFFFFE000000000000000000
1FFFFFF0000000000000000000
1FFFFFC0000000000000000000
1FFFFF80000000000000000000
1FFFFF00000000000000000000
1FFFFE00000000000000000000
3FFFFE00000000000000000000
3FFFFC00000000000000000000
3FFFFC00000000000000000000
3FFFFC00000000000000000000
3FFFFC00000000000000000000
3FFFFC00000000000000000000
1FFFFC00000000000000000000
1FFFF800000000000000000000
1FFFF800000000000000000000
1FFFFC00000000000000000000
1FFFFC00000000000000000000
1FFFFC00000000000000000000
0FFFFC00000000000000000000
0FFFFE00000000000000000000
0FFFFE00000000000000000000
07FFFF00000000000000000000
07FFFF80000000000000000000
03FFFFE0000000000000000000
01FFFFF0000000000000000000
00FFFFFF000000000000000000
00FFFFFFFFFFFFFFFFFFFFFE00
003FFFFFFFFFFFFFFFFFFFFE00
001FFFFFFFFFFFFFFFFFFFFE00
000FFFFFFFFFFFFFFFFFFFFE00
0003FFFFFFFFFFFFFFFFFFFE00
0000FFFFFFFFFFFFFFFFFFFE00
0000FFFFFFFFFFFFFFFFFFFE00
0007FFFFFFFFFFFFFFFFFFFE00
000FFFFFFFFFFFFFFFFFFFFE00
003FFFFFFFFFFFFFFFFFFFFE00
007FFFFFFFFFFFFFFFFFFFFE00
00FFFFFFFFFFFFFFFFFFFFFE00
01FFFFFFFFFFFFFFFFFFFFFE00
03FFFFFFFFFFFFFFFFFFFFFE00
07FFFFFFFFFFFFFFFFFFFFFE00
0FFFFFFFFFFFFFFFFFFFFFFE00
0FFFFFFF00000001FFFFC00000
1FFFFFF000000001FFFFC00000
1FFFFF8000000001FFFFC00000
3FFFFF0000000001FFFFC00000
3FFFFC0000000001FFFFC00000
7FFFFC0000000001FFFFC00000
7FFFF80000000001FFFFC00000
7FFFF00000000001FFFFC00000
7FFFF00000000001FFFFC00000
7FFFF00000000001FFFFC00000
FFFFF00000000001FFFFC00000
FFFFE00000000001FFFFC00000
FFFFE00000000001FFFFC00000
FFFFE00000000001FFFFC00000
FFFFE00000000001FFFFC00000
FFFFE00000000001FFFFC00000
FFFFF00000000001FFFFC00000
FFFFF00000000001FFFFC00000
FFFFF00000000001FFFFC00000
7FFFF00000000001FFFFC00000
7FFFF80000000001FFFFC00000
7FFFF80000000001FFFFC00000
7FFFFC0000000001FFFFC00000
7FFFFE0000000001FFFFC00000
3FFFFF0000000001FFFFC00000
3FFFFFC000000001FFFFC00000
3FFFFFF000000001FFFFC00000
1FFFFFFF00000001FFFFC00000
1FFFFFFFFFFFFFFFFFFFFFFFFC
0FFFFFFFFFFFFFFFFFFFFFFFFC
0FFFFFFFFFFFFFFFFFFFFFFFFC
07FFFFFFFFFFFFFFFFFFFFFFFC
07FFFFFFFFFFFFFFFFFFFFFFFC
03FFFFFFFFFFFFFFFFFFFFFFFC
01FFFFFFFFFFFFFFFFFFFFFFFC
01FFFFFFFFFFFFFFFFFFFFFFFC
00FFFFFFFFFFFFFFFFFFFFFFFC
007FFFFFFFFFFFFFFFFFFFFFFC
003FFFFFFFFFFFFFFFFFFFFFFC
001FFFFFFFFFFFFFFFFFFFFFFC
0007FFFFFFFFFFFFFFFFFFFFFC
0003FFFFFFFFFFFFFFFFFFFFFC
0000FFFFFFFFFFFFFFFFFFFFFC
00003FFFFFFFFFFFFFFFFFFFFC
00000FFFFFFFFFFFFFFFFFFFFC
000001FFFFFFFFFFFFFFFFFFFC
0000000FFFFFFFFFFFFFFFFFFC
ENDCHAR
STARTCHAR quotesingle
ENCODING 39
SWIDTH 255 0
DWIDTH 38 0
BBX 20 39 9 69
BITMAP
FFFFF0
7FFFE0
7FFFE0
7FFFE0
7FFFE0
7FFFE0
7FFFE0
7FFFE0
7FFFE0
7FFFE0
7FFFE0
7FFFE0
3FFFC0
3FFFC0
3FFFC0
3FFFC0
3FFFC0
3FFFC0
3FFFC0
3FFFC0
3FFFC0
3FFFC0
3FFFC0
1FFF80
1FFF80
1FFF80
1FFF80
1FFF80
1FFF80
1FFF80
1FFF80
1FFF80
1FFF80
1FFF80
0FFF00
0FFF00
0FFF00
0FFF00
0FFF00
ENDCHAR
STARTCHAR parenleft
ENCODING 40
SWIDTH 356 0
DWIDTH 53 0
BBX 30 136 14 -13
BITMAP
0000FFFC
0001FFF8
0001FFF0
0003FFF0
0003FFF0
0007FFE0
0007FFE0
0007FFC0
000FFFC0
000FFF80
001FFF80
001FFF80
001FFF00
003FFF00
003FFF00
003FFE00
007FFE00
007FFC00
007FFC00
00FFFC00
00FFF800
00FFF800
01FFF800
01FFF000
01FFF000
03FFF000
03FFE000
03FFE000
03FFE000
07FFC000
07FFC000
07FFC000
0FFF8000
0FFF8000
0FFF8000
0FFF8000
1FFF0000
1FFF0000
1FFF0000
1FFF0000
1FFE0000
3FFE0000
3FFE0000
3FFE0000
3FFE0000
3FFC0000
3FFC0000
7FFC0000
7FFC0000
7FFC0000
7FF80000
7FF80000
7FF80000
7FF80000
7FF80000
FFF80000
FFF80000
FFF80000
FFF00000
FFF00000
FFF00000
FFF00000
FFF00000
FFF00000
FFF00000
FFF00000
FFF00000
FFF00000
FFF00000
FFF00000
FFF00000
FFF00000
FFF00000
FFF00000
FFF00000
FFF00000
FFF00000
FFF00000
FFF80000
FFF80000
7FF80000
7FF80000
7FF80000
7FF80000
7FF80000
7FF80000
7FFC0000
7FFC0000
7FFC0000
3FFC0000
3FFC0000
3FFC0000
3FFE0000
3FFE0000
3FFE0000
1FFE0000
1FFE0000
1FFF0000
1FFF0000
0FFF0000
0FFF0000
0FFF8000
0FFF8000
0FFF8000
07FF8000
07FFC000
07FFC000
03FFC000
03FFE000
03FFE000
03FFE000
01FFF000
01FFF000
01FFF000
00FFF800
00FFF800
00FFF800
007FFC00
007FFC00
007FFC00
003FFE00
003FFE00
001FFF00
001FFF00
001FFF00
000FFF80
000FFF80
000FFFC0
0007FFC0
0007FFE0
0003FFE0
0003FFF0
0001FFF0
0001FFF0
0000FFF8
0000FFFC
ENDCHAR
STARTCHAR parenright
ENCODING 41
SWIDTH 355 0
DWIDTH 53 0
BBX 30 136 9 -13
BITMAP
7FFC0000
7FFE0000
3FFE0000
3FFF0000
1FFF0000
1FFF0000
1FFF8000
0FFF8000
0FFFC000
07FFC000
07FFC000
07FFE000
03FFE000
03FFE000
01FFF000
01FFF000
01FFF800
00FFF800
00FFF800
00FFFC00
007FFC00
007FFC00
007FFE00
003FFE00
003FFE00
003FFF00
001FFF00
001FFF00
001FFF00
000FFF80
000FFF80
000FFF80
0007FF80
0007FFC0
0007FFC0
0007FFC0
0003FFC0
0003FFE0
0003FFE0
0003FFE0
0001FFE0
0001FFF0
0001FFF0
0001FFF0
0001FFF0
0000FFF0
0000FFF0
0000FFF8
0000FFF8
0000FFF8
0000FFF8
00007FF8
00007FF8
00007FF8
00007FF8
00007FF8
00007FFC
00007FFC
00007FFC
00007FFC
00003FFC
00003FFC
00003FFC
00003FFC
00003FFC
00003FFC
00003FFC
00003FFC
00003FFC
00003FFC
00003FFC
00003FFC
00003FFC
00003FFC
00003FFC
00003FFC
00007FFC
00007FFC
00007FFC
00007FFC
00007FF8
00007FF8
00007FF8
00007FF8
00007FF8
0000FFF8
0000FFF8
0000FFF8
0000FFF8
0000FFF0
0000FFF0
0001FFF0
0001FFF0
0001FFF0
0001FFF0
0001FFE0
0003FFE0
0003FFE0
0003FFE0
0003FFC0
0003FFC0
0007FFC0
0007FFC0
0007FFC0
000FFF80
000FFF80
000FFF80
000FFF00
001FFF00
001FFF00
001FFF00
003FFE00
003FFE00
003FFE00
007FFC00
007FFC00
007FFC00
00FFF800
00FFF800
01FFF800
01FFF000
01FFF000
03FFE000
03FFE000
07FFE000
07FFC000
07FFC000
0FFF8000
0FFF8000
1FFF8000
1FFF0000
3FFF0000
3FFE0000
3FFE0000
7FFE0000
FFFC0000
ENDCHAR
STARTCHAR asterisk
ENCODING 42
SWIDTH 469 0
DWIDTH 70 0
BBX 52 49 9 59
BITMAP
000007FC000000
000007FC000000
000007FC000000
000007FC000000
000007FC000000
000007FC000000
000007FC000000
000007FC000000
000007FC000000
000007FC000000
000007FC000000
000007FC000000
000007FC000000
100007FC000080
1E0007FC000780
3FC007FC003F80
3FF807FC01FFC0
3FFF07FC1FFFC0
7FFFF7FCFFFFC0
7FFFFFFFFFFFE0
7FFFFFFFFFFFE0
FFFFFFFFFFFFF0
1FFFFFFFFFFF80
03FFFFFFFFFC00
007FFFFFFFC000
0007FFFFFE0000
0000FFFFF00000
00001FFF800000
00003FFFC00000
00007FFFE00000
0000FFFFE00000
0000FFFFF00000
0001FFFFF80000
0003FF9FF80000
0003FF1FFC0000
0007FF0FFE0000
000FFE07FF0000
000FFC07FF0000
001FFC03FF8000
003FF801FFC000
007FF000FFC000
007FF000FFE000
00FFE0007FF000
01FFC0003FF000
007F80003FE000
003F80001FC000
001F00000F8000
00060000060000
00020000040000
ENDCHAR
STARTCHAR plus
ENCODING 43
SWIDTH 690 0
DWIDTH 103 0
BBX 84 84 9 13
BITMAP
000000000FFF8000000000
000000000FFF8000000000
000000000FFF8000000000
000000000FFF8000000000
000000000FFF8000000000
000000000FFF8000000000
000000000FFF8000000000
000000000FFF8000000000
000000000FFF8000000000
000000000FFF8000000000
000000000FFF8000000000
000000000FFF8000000000
000000000FFF8000000000
000000000FFF8000000000
000000000FFF8000000000
000000000FFF8000000000
000000000FFF8000000000
000000000FFF8000000000
000000000FFF8000000000
000000000FFF8000000000
000000000FFF8000000000
000000000FFF8000000000
000000000FFF8000000000
000000000FFF8000000000
000000000FFF8000000000
000000000FFF8000000000
000000000FFF8000000000
000000000FFF8000000000
000000000FFF8000000000
000000000FFF8000000000
000000000FFF8000000000
000000000FFF8000000000
000000000FFF8000000000
000000000FFF8000000000
000000000FFF8000000000
000000000FFF8000000000
FFFFFFFFFFFFFFFFFFFFF0
FFFFFFFFFFFFFFFFFFFFF0
FFFFFFFFFFFFFFFFFFFFF0
FFFFFFFFFFFFFFFFFFFFF0
FFFFFFFFFFFFFFFFFFFFF0
FFFFFFFFFFFFFFFFFFFFF0
FFFFFFFFFFFFFFFFFFFFF0
FFFFFFFFFFFFFFFFFFFFF0
FFFFFFFFFFFFFFFFFFFFF0
FFFFFFFFFFFFFFFFFFFFF0
FFFFFFFFFFFFFFFFFFFFF0
FFFFFFFFFFFFFFFFFFFFF0
000000000FFF8000000000
000000000FFF8000000000
000000000FFF8000000000
000000000FFF8000000000
000000000FFF8000000000
000000000FFF8000000000
000000000FFF8000000000
000000000FFF8000000000
000000000FFF8000000000
000000000FFF8000000000
000000000FFF8000000000
000000000FFF8000000000
000000000FFF8000000000
000000000FFF8000000000
000000000FFF8000000000
000000000FFF8000000000
000000000FFF8000000000
000000000FFF8000000000
000000000FFF8000000000
000000000FFF8000000000
000000000FFF8000000000
000000000FFF8000000000
000000000FFF8000000000
000000000FFF8000000000
000000000FFF8000000000
000000000FFF8000000000
000000000FFF8000000000
000000000FFF8000000000
000000000FFF8000000000
000000000FFF8000000000
000000000FFF8000000000
000000000FFF8000000000
000000000FFF8000000000
000000000FFF8000000000
000000000FFF8000000000
000000000FFF8000000000
ENDCHAR
STARTCHAR comma
ENCODING 44
SWIDTH 259 0
DWIDTH 39 0
BBX 19 39 10 -18
BITMAP
FFFFE0
FFFFE0
FFFFE0
FFFFE0
FFFFC0
FFFFC0
FFFFC0
FFFFC0
FFFFC0
FFFF80
FFFF80
FFFF80
FFFF80
FFFF80
FFFF00
FFFF00
FFFF00
FFFF00
FFFF00
FFFE00
FFFE00
FFFE00
FFFE00
FFFE00
FFFE00
FFFC00
FFFC00
FFFC00
FFFC00
FFFC00
FFF800
FFF800
FFF800
FFF800
FFF800
FFF000
FFF000
FFF000
FFF000
ENDCHAR
STARTCHAR hyphen
ENCODING 45
SWIDTH 296 0
DWIDTH 44 0
BBX 36 13 4 49
BITMAP
FFFFFFFFF0
FFFFFFFFF0
FFFFFFFFF0
FFFFFFFFF0
FFFFFFFFF0
FFFFFFFFF0
FFFFFFFFF0
FFFFFFFFF0
FFFFFFFFF0
FFFFFFFFF0
FFFFFFFFF0
FFFFFFFFF0
FFFFFFFFF0
ENDCHAR
STARTCHAR period
ENCODING 46
SWIDTH 262 0
DWIDTH 39 0
BBX 21 20 9 0
BITMAP
01FC00
07FF00
0FFF80
1FFFC0
3FFFE0
7FFFF0
7FFFF0
7FFFF0
FFFFF8
FFFFF8
FFFFF8
FFFFF8
7FFFF0
7FFFF0
7FFFF0
3FFFE0
1FFFC0
0FFF80
07FF00
01FC00
ENDCHAR
STARTCHAR slash
ENCODING 47
SWIDTH 444 0
DWIDTH 66 0
BBX 64 108 1 0
BITMAP
0000000000001FFF
0000000000001FFE
0000000000003FFE
0000000000003FFC
0000000000007FFC
0000000000007FF8
000000000000FFF8
000000000000FFF0
000000000001FFF0
000000000001FFE0
000000000003FFE0
000000000003FFC0
000000000007FFC0
000000000007FF80
00000000000FFF80
00000000000FFF00
00000000001FFF00
00000000001FFF00
00000000001FFE00
00000000003FFE00
00000000003FFC00
00000000007FFC00
00000000007FF800
0000000000FFF800
0000000000FFF000
0000000001FFF000
0000000001FFE000
0000000003FFE000
0000000003FFC000
0000000007FFC000
0000000007FFC000
000000000FFF8000
000000000FFF8000
000000001FFF0000
000000001FFF0000
000000001FFE0000
000000003FFE0000
000000003FFC0000
000000007FFC0000
000000007FF80000
00000000FFF80000
00000000FFF00000
00000001FFF00000
00000001FFE00000
00000003FFE00000
00000003FFE00000
00000007FFC00000
00000007FFC00000
0000000FFF800000
0000000FFF800000
0000001FFF000000
0000001FFF000000
0000001FFE000000
0000003FFE000000
0000003FFC000000
0000007FFC000000
0000007FF8000000
000000FFF8000000
000000FFF0000000
000001FFF0000000
000001FFF0000000
000003FFE0000000
000003FFE0000000
000007FFC0000000
000007FFC0000000
00000FFF80000000
00000FFF80000000
00001FFF00000000
00001FFF00000000
00003FFE00000000
00003FFE00000000
00003FFC00000000
00007FFC00000000
00007FFC00000000
0000FFF800000000
0000FFF800000000
0001FFF000000000
0001FFF000000000
0003FFE000000000
0003FFE000000000
0007FFC000000000
0007FFC000000000
000FFF8000000000
000FFF8000000000
001FFF0000000000
001FFF0000000000
003FFE0000000000
003FFE0000000000
003FFE0000000000
007FFC0000000000
007FFC0000000000
00FFF80000000000
00FFF80000000000
01FFF00000000000
01FFF00000000000
03FFE00000000000
03FFE00000000000
07FFC00000000000
07FFC00000000000
0FFF800000000000
0FFF800000000000
1FFF000000000000
1FFF000000000000
3FFF000000000000
3FFE000000000000
3FFE000000000000
7FFC000000000000
FFFC000000000000
ENDCHAR
STARTCHAR zero
ENCODING 48
SWIDTH 838 0
DWIDTH 125 0
BBX 113 108 6 0
BITMAP
000000000000FFFF80000000000000
00000000003FFFFFFC000000000000
0000000003FFFFFFFFC00000000000
000000001FFFFFFFFFF80000000000
000000007FFFFFFFFFFF0000000000
00000003FFFFFFFFFFFFC000000000
0000000FFFFFFFFFFFFFF000000000
0000001FFFFFFFFFFFFFFC00000000
0000007FFFFFFFFFFFFFFF00000000
000001FFFFFFFFFFFFFFFFC0000000
000003FFFFFFFFFFFFFFFFE0000000
00000FFFFFFFFFFFFFFFFFF0000000
00001FFFFFFFFFFFFFFFFFFC000000
00003FFFFFFFFFFFFFFFFFFE000000
00007FFFFFFFFFFFFFFFFFFF000000
0000FFFFFFFFFFFFFFFFFFFF800000
0001FFFFFFFFFFFFFFFFFFFFC00000
0003FFFFFFFFFFFFFFFFFFFFE00000
0007FFFFFFFFFFFFFFFFFFFFF00000
000FFFFFFFFF0000FFFFFFFFF80000
001FFFFFFFF0000007FFFFFFFC0000
003FFFFFFF80000000FFFFFFFC0000
003FFFFFFC000000003FFFFFFE0000
007FFFFFF0000000000FFFFFFF0000
00FFFFFFC00000000003FFFFFF0000
00FFFFFF800000000000FFFFFF8000
01FFFFFE0000000000007FFFFFC000
01FFFFFC0000000000003FFFFFC000
03FFFFF80000000000000FFFFFE000
03FFFFF000000000000007FFFFE000
07FFFFE000000000000007FFFFF000
07FFFFC000000000000003FFFFF000
0FFFFFC000000000000001FFFFF800
0FFFFF8000000000000000FFFFF800
1FFFFF0000000000000000FFFFF800
1FFFFF00000000000000007FFFFC00
1FFFFE00000000000000003FFFFC00
3FFFFE00000000000000003FFFFC00
3FFFFC00000000000000001FFFFE00
3FFFFC00000000000000001FFFFE00
3FFFF800000000000000001FFFFE00
7FFFF800000000000000000FFFFE00
7FFFF800000000000000000FFFFF00
7FFFF000000000000000000FFFFF00
7FFFF000000000000000000FFFFF00
7FFFF0000000000000000007FFFF00
7FFFF0000000000000000007FFFF00
FFFFF0000000000000000007FFFF00
FFFFE0000000000000000007FFFF00
FFFFE0000000000000000007FFFF00
FFFFE0000000000000000007FFFF80
FFFFE0000000000000000007FFFF80
FFFFE0000000000000000003FFFF80
FFFFE0000000000000000003FFFF80
FFFFE0000000000000000003FFFF80
FFFFE0000000000000000007FFFF80
FFFFE0000000000000000007FFFF00
FFFFE0000000000000000007FFFF00
7FFFE0000000000000000007FFFF00
7FFFF0000000000000000007FFFF00
7FFFF0000000000000000007FFFF00
7FFFF0000000000000000007FFFF00
7FFFF0000000000000000007FFFF00
7FFFF000000000000000000FFFFF00
7FFFF800000000000000000FFFFE00
3FFFF800000000000000000FFFFE00
3FFFF800000000000000001FFFFE00
3FFFFC00000000000000001FFFFE00
3FFFFC00000000000000001FFFFC00
1FFFFC00000000000000003FFFFC00
1FFFFE00000000000000003FFFFC00
1FFFFE00000000000000007FFFF800
0FFFFF00000000000000007FFFF800
0FFFFF0000000000000000FFFFF800
07FFFF8000000000000000FFFFF000
07FFFFC000000000000001FFFFF000
07FFFFE000000000000003FFFFE000
03FFFFE000000000000007FFFFE000
03FFFFF00000000000000FFFFFC000
01FFFFF80000000000001FFFFFC000
00FFFFFE0000000000003FFFFF8000
00FFFFFF0000000000007FFFFF8000
007FFFFF800000000000FFFFFF0000
007FFFFFE00000000003FFFFFE0000
003FFFFFF0000000000FFFFFFE0000
001FFFFFFC000000003FFFFFFC0000
000FFFFFFF80000000FFFFFFF80000
000FFFFFFFF0000007FFFFFFF00000
0007FFFFFFFF0000FFFFFFFFF00000
0003FFFFFFFFFFFFFFFFFFFFE00000
0001FFFFFFFFFFFFFFFFFFFFC00000
0000FFFFFFFFFFFFFFFFFFFF800000
00007FFFFFFFFFFFFFFFFFFF000000
00003FFFFFFFFFFFFFFFFFFE000000
00001FFFFFFFFFFFFFFFFFFC000000
00000FFFFFFFFFFFFFFFFFF0000000
000003FFFFFFFFFFFFFFFFE0000000
000001FFFFFFFFFFFFFFFFC0000000
000000FFFFFFFFFFFFFFFF00000000
0000003FFFFFFFFFFFFFFE00000000
0000000FFFFFFFFFFFFFF800000000
00000007FFFFFFFFFFFFE000000000
00000001FFFFFFFFFFFF8000000000
000000003FFFFFFFFFFE0000000000
000000000FFFFFFFFFF00000000000
0000000001FFFFFFFFC00000000000
00000000001FFFFFFC000000000000
0000000000007FFF00000000000000
ENDCHAR
STARTCHAR one
ENCODING 49
SWIDTH 385 0
DWIDTH 57 0
BBX 44 108 4 0
BITMAP
FFFF80000000
FFFFFC000000
FFFFFF800000
FFFFFFE00000
FFFFFFF80000
FFFFFFFE0000
FFFFFFFF0000
FFFFFFFF8000
FFFFFFFFC000
FFFFFFFFE000
FFFFFFFFF000
FFFFFFFFF800
FFFFFFFFFC00
FFFFFFFFFC00
FFFFFFFFFE00
FFFFFFFFFF00
FFFFFFFFFF00
FFFFFFFFFF80
FFFFFFFFFF80
0001FFFFFF80
00003FFFFFC0
00001FFFFFC0
000007FFFFC0
000003FFFFE0
000003FFFFE0
000001FFFFE0
000000FFFFE0
000000FFFFE0
000000FFFFF0
0000007FFFF0
0000007FFFF0
0000007FFFF0
0000007FFFF0
0000007FFFF0
0000007FFFF0
0000007FFFF0
0000007FFFF0
0000007FFFF0
0000007FFFF0
0000007FFFF0
0000007FFFF0
0000007FFFF0
0000007FFFF0
0000007FFFF0
0000007FFFF0
0000007FFFF0
0000007FFFF0
0000007FFFF0
0000007FFFF0
0000007FFFF0
0000007FFFF0
0000007FFFF0
0000007FFFF0
0000007FFFF0
0000007FFFF0
0000007FFFF0
0000007FFFF0
0000007FFFF0
0000007FFFF0
0000007FFFF0
0000007FFFF0
0000007FFFF0
0000007FFFF0
0000007FFFF0
0000007FFFF0
0000007FFFF0
0000007FFFF0
0000007FFFF0
0000007FFFF0
0000007FFFF0
0000007FFFF0
0000007FFFF0
0000007FFFF0
0000007FFFF0
0000007FFFF0
0000007FFFF0
0000007FFFF0
0000007FFFF0
0000007FFFF0
0000007FFFF0
0000007FFFF0
0000007FFFF0
0000007FFFF0
0000007FFFF0
0000007FFFF0
0000007FFFF0
0000007FFFF0
0000007FFFF0
0000007FFFF0
0000007FFFF0
0000007FFFF0
0000007FFFF0
0000007FFFF0
0000007FFFF0
0000007FFFF0
0000007FFFF0
0000007FFFF0
0000007FFFF0
0000007FFFF0
0000007FFFF0
0000007FFFF0
0000007FFFF0
0000007FFFF0
0000007FFFF0
0000007FFFF0
0000007FFFF0
0000007FFFF0
0000007FFFF0
ENDCHAR
STARTCHAR two
ENCODING 50
SWIDTH 825 0
DWIDTH 123 0
BBX 106 108 9 0
BITMAP
7FFFFFFFFFFFFFFFFFFF00000000
7FFFFFFFFFFFFFFFFFFFF8000000
7FFFFFFFFFFFFFFFFFFFFF000000
7FFFFFFFFFFFFFFFFFFFFFC00000
7FFFFFFFFFFFFFFFFFFFFFF00000
7FFFFFFFFFFFFFFFFFFFFFFC0000
7FFFFFFFFFFFFFFFFFFFFFFE0000
7FFFFFFFFFFFFFFFFFFFFFFF0000
7FFFFFFFFFFFFFFFFFFFFFFF8000
7FFFFFFFFFFFFFFFFFFFFFFFE000
7FFFFFFFFFFFFFFFFFFFFFFFE000
7FFFFFFFFFFFFFFFFFFFFFFFF000
7FFFFFFFFFFFFFFFFFFFFFFFF800
7FFFFFFFFFFFFFFFFFFFFFFFFC00
7FFFFFFFFFFFFFFFFFFFFFFFFC00
7FFFFFFFFFFFFFFFFFFFFFFFFE00
7FFFFFFFFFFFFFFFFFFFFFFFFE00
7FFFFFFFFFFFFFFFFFFFFFFFFF00
7FFFFFFFFFFFFFFFFFFFFFFFFF00
00000000000000000003FFFFFF00
00000000000000000000FFFFFF80
000000000000000000003FFFFF80
000000000000000000001FFFFF80
000000000000000000000FFFFFC0
0000000000000000000007FFFFC0
0000000000000000000007FFFFC0
0000000000000000000003FFFFC0
0000000000000000000003FFFFC0
0000000000000000000003FFFFC0
0000000000000000000003FFFFC0
0000000000000000000001FFFFC0
0000000000000000000001FFFFC0
0000000000000000000001FFFFC0
0000000000000000000001FFFFC0
0000000000000000000003FFFFC0
0000000000000000000003FFFFC0
0000000000000000000003FFFFC0
0000000000000000000003FFFF80
0000000000000000000007FFFF80
0000000000000000000007FFFF80
000000000000000000000FFFFF80
000000000000000000001FFFFF00
000000000000000000003FFFFF00
00000000000000000000FFFFFE00
00000000000000000007FFFFFE00
0000003FFFFFFFFFFFFFFFFFFE00
000007FFFFFFFFFFFFFFFFFFFC00
00003FFFFFFFFFFFFFFFFFFFF800
0001FFFFFFFFFFFFFFFFFFFFF800
0007FFFFFFFFFFFFFFFFFFFFF000
000FFFFFFFFFFFFFFFFFFFFFE000
003FFFFFFFFFFFFFFFFFFFFFC000
007FFFFFFFFFFFFFFFFFFFFF8000
00FFFFFFFFFFFFFFFFFFFFFF0000
01FFFFFFFFFFFFFFFFFFFFFE0000
03FFFFFFFFFFFFFFFFFFFFF80000
03FFFFFFFFFFFFFFFFFFFFF00000
07FFFFFFFFFFFFFFFFFFFFC00000
0FFFFFFFFFFFFFFFFFFFFF000000
0FFFFFFFFFFFFFFFFFFFF0000000
1FFFFFFFFFFFFFFFFFFF00000000
1FFFFFF800000000000000000000
3FFFFF8000000000000000000000
3FFFFE0000000000000000000000
3FFFFC0000000000000000000000
3FFFF80000000000000000000000
7FFFF00000000000000000000000
7FFFF00000000000000000000000
7FFFE00000000000000000000000
7FFFE00000000000000000000000
7FFFE00000000000000000000000
7FFFE00000000000000000000000
FFFFC00000000000000000000000
FFFFC00000000000000000000000
FFFFC00000000000000000000000
FFFFC00000000000000000000000
FFFFC00000000000000000000000
FFFFC00000000000000000000000
FFFFC00000000000000000000000
FFFFC00000000000000000000000
FFFFC00000000000000000000000
FFFFC00000000000000000000000
FFFFC00000000000000000000000
FFFFC00000000000000000000000
FFFFC00000000000000000000000
FFFFC00000000000000000000000
FFFFC00000000000000000000000
FFFFC00000000000000000000000
FFFFC00000000000000000000000
FFFFFFFFFFFFFFFFFFFFFFFFFF00
FFFFFFFFFFFFFFFFFFFFFFFFFF00
FFFFFFFFFFFFFFFFFFFFFFFFFF00
FFFFFFFFFFFFFFFFFFFFFFFFFF00
FFFFFFFFFFFFFFFFFFFFFFFFFF00
FFFFFFFFFFFFFFFFFFFFFFFFFF00
FFFFFFFFFFFFFFFFFFFFFFFFFF00
FFFFFFFFFFFFFFFFFFFFFFFFFF00
FFFFFFFFFFFFFFFFFFFFFFFFFF00
FFFFFFFFFFFFFFFFFFFFFFFFFF00
FFFFFFFFFFFFFFFFFFFFFFFFFF00
FFFFFFFFFFFFFFFFFFFFFFFFFF00
FFFFFFFFFFFFFFFFFFFFFFFFFF00
FFFFFFFFFFFFFFFFFFFFFFFFFF00
FFFFFFFFFFFFFFFFFFFFFFFFFF00
FFFFFFFFFFFFFFFFFFFFFFFFFF00
FFFFFFFFFFFFFFFFFFFFFFFFFF00
FFFFFFFFFFFFFFFFFFFFFFFFFF00
FFFFFFFFFFFFFFFFFFFFFFFFFF00
ENDCHAR
STARTCHAR three
ENCODING 51
SWIDTH 827 0
DWIDTH 123 0
BBX 109 108 7 0
BITMAP
FFFFFFFFFFFFFFFFFFFF00000000
FFFFFFFFFFFFFFFFFFFFF8000000
FFFFFFFFFFFFFFFFFFFFFF800000
FFFFFFFFFFFFFFFFFFFFFFE00000
FFFFFFFFFFFFFFFFFFFFFFF80000
FFFFFFFFFFFFFFFFFFFFFFFE0000
FFFFFFFFFFFFFFFFFFFFFFFF8000
FFFFFFFFFFFFFFFFFFFFFFFFC000
FFFFFFFFFFFFFFFFFFFFFFFFE000
FFFFFFFFFFFFFFFFFFFFFFFFF000
FFFFFFFFFFFFFFFFFFFFFFFFF800
FFFFFFFFFFFFFFFFFFFFFFFFFC00
FFFFFFFFFFFFFFFFFFFFFFFFFE00
FFFFFFFFFFFFFFFFFFFFFFFFFE00
FFFFFFFFFFFFFFFFFFFFFFFFFF00
FFFFFFFFFFFFFFFFFFFFFFFFFF00
FFFFFFFFFFFFFFFFFFFFFFFFFF80
FFFFFFFFFFFFFFFFFFFFFFFFFF80
FFFFFFFFFFFFFFFFFFFFFFFFFF80
0000000000000000000FFFFFFFC0
00000000000000000000FFFFFFC0
000000000000000000003FFFFFC0
000000000000000000000FFFFFC0
0000000000000000000007FFFFE0
0000000000000000000003FFFFE0
0000000000000000000003FFFFE0
0000000000000000000001FFFFE0
0000000000000000000001FFFFE0
0000000000000000000001FFFFE0
0000000000000000000000FFFFE0
0000000000000000000000FFFFE0
0000000000000000000000FFFFE0
0000000000000000000000FFFFE0
0000000000000000000000FFFFC0
0000000000000000000000FFFFC0
0000000000000000000001FFFFC0
0000000000000000000001FFFFC0
0000000000000000000001FFFFC0
0000000000000000000001FFFF80
0000000000000000000003FFFF80
0000000000000000000007FFFF00
0000000000000000000007FFFF00
000000000000000000001FFFFE00
000000000000000000007FFFFC00
00000000000000000003FFFFFC00
0000007FFFFFFFFFFFFFFFFFF800
0000007FFFFFFFFFFFFFFFFFF000
0000007FFFFFFFFFFFFFFFFFC000
0000007FFFFFFFFFFFFFFFFF8000
0000007FFFFFFFFFFFFFFFFE0000
0000007FFFFFFFFFFFFFFFF80000
0000007FFFFFFFFFFFFFFFFC0000
0000007FFFFFFFFFFFFFFFFF0000
0000007FFFFFFFFFFFFFFFFFC000
0000007FFFFFFFFFFFFFFFFFE000
0000007FFFFFFFFFFFFFFFFFF000
0000007FFFFFFFFFFFFFFFFFF800
0000007FFFFFFFFFFFFFFFFFFC00
0000007FFFFFFFFFFFFFFFFFFE00
0000007FFFFFFFFFFFFFFFFFFF00
0000007FFFFFFFFFFFFFFFFFFF80
00000000000000000001FFFFFF80
000000000000000000003FFFFFC0
000000000000000000000FFFFFE0
0000000000000000000007FFFFE0
0000000000000000000003FFFFE0
0000000000000000000001FFFFF0
0000000000000000000000FFFFF0
0000000000000000000000FFFFF0
00000000000000000000007FFFF0
00000000000000000000007FFFF8
00000000000000000000007FFFF8
00000000000000000000003FFFF8
00000000000000000000003FFFF8
00000000000000000000003FFFF8
00000000000000000000003FFFF8
00000000000000000000003FFFF8
00000000000000000000007FFFF8
00000000000000000000007FFFF8
00000000000000000000007FFFF8
00000000000000000000007FFFF8
0000000000000000000000FFFFF0
0000000000000000000001FFFFF0
0000000000000000000001FFFFF0
0000000000000000000007FFFFF0
000000000000000000000FFFFFF0
000000000000000000003FFFFFE0
00000000000000000000FFFFFFE0
0000000000000000000FFFFFFFE0
FFFFFFFFFFFFFFFFFFFFFFFFFFC0
FFFFFFFFFFFFFFFFFFFFFFFFFFC0
FFFFFFFFFFFFFFFFFFFFFFFFFF80
FFFFFFFFFFFFFFFFFFFFFFFFFF80
FFFFFFFFFFFFFFFFFFFFFFFFFF00
FFFFFFFFFFFFFFFFFFFFFFFFFE00
FFFFFFFFFFFFFFFFFFFFFFFFFE00
FFFFFFFFFFFFFFFFFFFFFFFFFC00
FFFFFFFFFFFFFFFFFFFFFFFFF800
FFFFFFFFFFFFFFFFFFFFFFFFF000
FFFFFFFFFFFFFFFFFFFFFFFFE000
FFFFFFFFFFFFFFFFFFFFFFFFC000
FFFFFFFFFFFFFFFFFFFFFFFF0000
FFFFFFFFFFFFFFFFFFFFFFFE0000
FFFFFFFFFFFFFFFFFFFFFFF80000
FFFFFFFFFFFFFFFFFFFFFFE00000
FFFFFFFFFFFFFFFFFFFFFF800000
FFFFFFFFFFFFFFFFFFFFFC000000
FFFFFFFFFFFFFFFFFFFF80000000
ENDCHAR
STARTCHAR four
ENCODING 52
SWIDTH 845 0
DWIDTH 126 0
BBX 115 108 7 0
BITMAP
FFFFE0000000000000007FFFF00000
FFFFE0000000000000007FFFF00000
FFFFE0000000000000007FFFF00000
FFFFE0000000000000007FFFF00000
FFFFE0000000000000007FFFF00000
FFFFE0000000000000007FFFF00000
FFFFE0000000000000007FFFF00000
FFFFE0000000000000007FFFF00000
FFFFE0000000000000007FFFF00000
FFFFE0000000000000007FFFF00000
FFFFE0000000000000007FFFF00000
FFFFE0000000000000007FFFF00000
FFFFE0000000000000007FFFF00000
FFFFE0000000000000007FFFF00000
FFFFE0000000000000007FFFF00000
FFFFE0000000000000007FFFF00000
FFFFE0000000000000007FFFF00000
FFFFE0000000000000007FFFF00000
FFFFE0000000000000007FFFF00000
FFFFE0000000000000007FFFF00000
FFFFE0000000000000007FFFF00000
FFFFE0000000000000007FFFF00000
FFFFE0000000000000007FFFF00000
FFFFE0000000000000007FFFF00000
FFFFE0000000000000007FFFF00000
FFFFE0000000000000007FFFF00000
FFFFE0000000000000007FFFF00000
FFFFE0000000000000007FFFF00000
FFFFE0000000000000007FFFF00000
FFFFE0000000000000007FFFF00000
FFFFE0000000000000007FFFF00000
FFFFE0000000000000007FFFF00000
FFFFE0000000000000007FFFF00000
FFFFE0000000000000007FFFF00000
FFFFE0000000000000007FFFF00000
FFFFE0000000000000007FFFF00000
FFFFE0000000000000007FFFF00000
FFFFE0000000000000007FFFF00000
FFFFE0000000000000007FFFF00000
FFFFE0000000000000007FFFF00000
FFFFE0000000000000007FFFF00000
FFFFE0000000000000007FFFF00000
FFFFE0000000000000007FFFF00000
FFFFE0000000000000007FFFF00000
FFFFE0000000000000007FFFF00000
FFFFE0000000000000007FFFF00000
FFFFE0000000000000007FFFF00000
FFFFE0000000000000007FFFF00000
FFFFE0000000000000007FFFF00000
FFFFE0000000000000007FFFF00000
FFFFF0000000000000007FFFF00000
7FFFF0000000000000007FFFF00000
7FFFF0000000000000007FFFF00000
7FFFF8000000000000007FFFF00000
7FFFF8000000000000007FFFF00000
7FFFFC000000000000007FFFF00000
7FFFFC000000000000007FFFF00000
3FFFFE000000000000007FFFF00000
3FFFFF800000000000007FFFF00000
3FFFFFE00000000000007FFFF00000
1FFFFFFC0000000000007FFFF00000
1FFFFFFFFFFFFFFFFFFFFFFFFFFFE0
1FFFFFFFFFFFFFFFFFFFFFFFFFFFE0
0FFFFFFFFFFFFFFFFFFFFFFFFFFFE0
0FFFFFFFFFFFFFFFFFFFFFFFFFFFE0
07FFFFFFFFFFFFFFFFFFFFFFFFFFE0
03FFFFFFFFFFFFFFFFFFFFFFFFFFE0
03FFFFFFFFFFFFFFFFFFFFFFFFFFE0
01FFFFFFFFFFFFFFFFFFFFFFFFFFE0
00FFFFFFFFFFFFFFFFFFFFFFFFFFE0
007FFFFFFFFFFFFFFFFFFFFFFFFFE0
003FFFFFFFFFFFFFFFFFFFFFFFFFE0
000FFFFFFFFFFFFFFFFFFFFFFFFFE0
0007FFFFFFFFFFFFFFFFFFFFFFFFE0
0001FFFFFFFFFFFFFFFFFFFFFFFFE0
00007FFFFFFFFFFFFFFFFFFFFFFFE0
00001FFFFFFFFFFFFFFFFFFFFFFFE0
000001FFFFFFFFFFFFFFFFFFFFFFE0
0000000FFFFFFFFFFFFFFFFFFFFFE0
000000000000000000007FFFF00000
000000000000000000007FFFF00000
000000000000000000007FFFF00000
000000000000000000007FFFF00000
000000000000000000007FFFF00000
000000000000000000007FFFF00000
000000000000000000007FFFF00000
000000000000000000007FFFF00000
000000000000000000007FFFF00000
000000000000000000007FFFF00000
000000000000000000007FFFF00000
000000000000000000007FFFF00000
000000000000000000007FFFF00000
000000000000000000007FFFF00000
000000000000000000007FFFF00000
000000000000000000007FFFF00000
000000000000000000007FFFF00000
000000000000000000007FFFF00000
000000000000000000007FFFF00000
000000000000000000007FFFF00000
000000000000000000007FFFF00000
000000000000000000007FFFF00000
000000000000000000007FFFF00000
000000000000000000007FFFF00000
000000000000000000007FFFF00000
000000000000000000007FFFF00000
000000000000000000007FFFF00000
000000000000000000007FFFF00000
000000000000000000007FFFF00000
ENDCHAR
STARTCHAR five
ENCODING 53
SWIDTH 885 0
DWIDTH 132 0
BBX 115 108 9 0
BITMAP
FFFFFFFFFFFFFFFFFFFFFFFFFFFC00
FFFFFFFFFFFFFFFFFFFFFFFFFFFC00
FFFFFFFFFFFFFFFFFFFFFFFFFFFC00
FFFFFFFFFFFFFFFFFFFFFFFFFFFC00
FFFFFFFFFFFFFFFFFFFFFFFFFFFC00
FFFFFFFFFFFFFFFFFFFFFFFFFFFC00
FFFFFFFFFFFFFFFFFFFFFFFFFFFC00
FFFFFFFFFFFFFFFFFFFFFFFFFFFC00
FFFFFFFFFFFFFFFFFFFFFFFFFFFC00
FFFFFFFFFFFFFFFFFFFFFFFFFFFC00
FFFFFFFFFFFFFFFFFFFFFFFFFFFC00
FFFFFFFFFFFFFFFFFFFFFFFFFFFC00
FFFFFFFFFFFFFFFFFFFFFFFFFFFC00
FFFFFFFFFFFFFFFFFFFFFFFFFFFC00
FFFFFFFFFFFFFFFFFFFFFFFFFFFC00
FFFFFFFFFFFFFFFFFFFFFFFFFFFC00
FFFFFFFFFFFFFFFFFFFFFFFFFFFC00
FFFFFFFFFFFFFFFFFFFFFFFFFFFC00
FFFFFFFFFFFFFFFFFFFFFFFFFFFC00
FFFFF0000000000000000000000000
FFFFF0000000000000000000000000
FFFFF0000000000000000000000000
FFFFF0000000000000000000000000
FFFFF0000000000000000000000000
FFFFF0000000000000000000000000
FFFFF0000000000000000000000000
FFFFF0000000000000000000000000
FFFFF0000000000000000000000000
FFFFF0000000000000000000000000
FFFFF0000000000000000000000000
FFFFF0000000000000000000000000
FFFFF0000000000000000000000000
FFFFF0000000000000000000000000
FFFFF0000000000000000000000000
FFFFF0000000000000000000000000
FFFFF0000000000000000000000000
FFFFF0000000000000000000000000
FFFFF0000000000000000000000000
FFFFF0000000000000000000000000
FFFFF0000000000000000000000000
FFFFF0000000000000000000000000
FFFFF0000000000000000000000000
FFFFF0000000000000000000000000
FFFFF0000000000000000000000000
FFFFF0000000000000000000000000
FFFFFFFFFFFFFFFFFFFFFF80000000
FFFFFFFFFFFFFFFFFFFFFFFE000000
FFFFFFFFFFFFFFFFFFFFFFFFC00000
FFFFFFFFFFFFFFFFFFFFFFFFF00000
FFFFFFFFFFFFFFFFFFFFFFFFFC0000
FFFFFFFFFFFFFFFFFFFFFFFFFF0000
FFFFFFFFFFFFFFFFFFFFFFFFFF8000
FFFFFFFFFFFFFFFFFFFFFFFFFFC000
FFFFFFFFFFFFFFFFFFFFFFFFFFE000
FFFFFFFFFFFFFFFFFFFFFFFFFFF000
FFFFFFFFFFFFFFFFFFFFFFFFFFF800
FFFFFFFFFFFFFFFFFFFFFFFFFFFC00
FFFFFFFFFFFFFFFFFFFFFFFFFFFE00
FFFFFFFFFFFFFFFFFFFFFFFFFFFE00
FFFFFFFFFFFFFFFFFFFFFFFFFFFF00
FFFFFFFFFFFFFFFFFFFFFFFFFFFF00
0000000000000000000001FFFFFF80
00000000000000000000003FFFFF80
00000000000000000000000FFFFF80
000000000000000000000007FFFFC0
000000000000000000000003FFFFC0
000000000000000000000001FFFFC0
000000000000000000000000FFFFC0
000000000000000000000000FFFFC0
000000000000000000000000FFFFE0
0000000000000000000000007FFFE0
0000000000000000000000007FFFE0
0000000000000000000000007FFFE0
0000000000000000000000007FFFE0
0000000000000000000000007FFFE0
0000000000000000000000007FFFE0
0000000000000000000000007FFFE0
0000000000000000000000007FFFE0
0000000000000000000000007FFFE0
0000000000000000000000007FFFE0
000000000000000000000000FFFFE0
000000000000000000000000FFFFE0
000000000000000000000001FFFFE0
000000000000000000000001FFFFC0
000000000000000000000003FFFFC0
000000000000000000000007FFFFC0
00000000000000000000000FFFFFC0
00000000000000000000003FFFFF80
0000000000000000000001FFFFFF80
FFFFFFFFFFFFFFFFFFFFFFFFFFFF80
FFFFFFFFFFFFFFFFFFFFFFFFFFFF00
FFFFFFFFFFFFFFFFFFFFFFFFFFFF00
FFFFFFFFFFFFFFFFFFFFFFFFFFFE00
FFFFFFFFFFFFFFFFFFFFFFFFFFFE00
FFFFFFFFFFFFFFFFFFFFFFFFFFFC00
FFFFFFFFFFFFFFFFFFFFFFFFFFFC00
FFFFFFFFFFFFFFFFFFFFFFFFFFF800
FFFFFFFFFFFFFFFFFFFFFFFFFFF000
FFFFFFFFFFFFFFFFFFFFFFFFFFE000
FFFFFFFFFFFFFFFFFFFFFFFFFFC000
FFFFFFFFFFFFFFFFFFFFFFFFFF8000
FFFFFFFFFFFFFFFFFFFFFFFFFF0000
FFFFFFFFFFFFFFFFFFFFFFFFFC0000
FFFFFFFFFFFFFFFFFFFFFFFFF80000
FFFFFFFFFFFFFFFFFFFFFFFFE00000
FFFFFFFFFFFFFFFFFFFFFFFF800000
FFFFFFFFFFFFFFFFFFFFFFFC000000
FFFFFFFFFFFFFFFFFFFFFF80000000
ENDCHAR
STARTCHAR six
ENCODING 54
SWIDTH 872 0
DWIDTH 130 0
BBX 116 108 6 0
BITMAP
00000000007FFFFFFFFFFFFFFFFF00
000000001FFFFFFFFFFFFFFFFFFF00
00000001FFFFFFFFFFFFFFFFFFFF00
0000000FFFFFFFFFFFFFFFFFFFFF00
0000007FFFFFFFFFFFFFFFFFFFFF00
000001FFFFFFFFFFFFFFFFFFFFFF00
000007FFFFFFFFFFFFFFFFFFFFFF00
00000FFFFFFFFFFFFFFFFFFFFFFF00
00003FFFFFFFFFFFFFFFFFFFFFFF00
00007FFFFFFFFFFFFFFFFFFFFFFF00
0000FFFFFFFFFFFFFFFFFFFFFFFF00
0001FFFFFFFFFFFFFFFFFFFFFFFF00
0003FFFFFFFFFFFFFFFFFFFFFFFF00
0007FFFFFFFFFFFFFFFFFFFFFFFF00
000FFFFFFFFFFFFFFFFFFFFFFFFF00
001FFFFFFFFFFFFFFFFFFFFFFFFF00
003FFFFFFFFFFFFFFFFFFFFFFFFF00
007FFFFFFFFFFFFFFFFFFFFFFFFF00
007FFFFFFFFFFFFFFFFFFFFFFFFF00
00FFFFFFFFC0000000000000000000
01FFFFFFFC00000000000000000000
01FFFFFFE000000000000000000000
03FFFFFF8000000000000000000000
03FFFFFE0000000000000000000000
07FFFFFC0000000000000000000000
07FFFFF00000000000000000000000
07FFFFE00000000000000000000000
0FFFFFC00000000000000000000000
0FFFFFC00000000000000000000000
1FFFFF800000000000000000000000
1FFFFF000000000000000000000000
1FFFFF000000000000000000000000
1FFFFE000000000000000000000000
3FFFFE000000000000000000000000
3FFFFC000000000000000000000000
3FFFFC000000000000000000000000
3FFFF8000000000000000000000000
7FFFF8000000000000000000000000
7FFFF8000000000000000000000000
7FFFF8000000000000000000000000
7FFFF0000000000000000000000000
7FFFF0000000000000000000000000
7FFFF0000000000000000000000000
7FFFF0000000000000000000000000
7FFFF0000000000000000000000000
FFFFFFFFFFFFFFFFFFFFFFE0000000
FFFFFFFFFFFFFFFFFFFFFFFF000000
FFFFFFFFFFFFFFFFFFFFFFFFE00000
FFFFFFFFFFFFFFFFFFFFFFFFF80000
FFFFFFFFFFFFFFFFFFFFFFFFFE0000
FFFFFFFFFFFFFFFFFFFFFFFFFF8000
FFFFFFFFFFFFFFFFFFFFFFFFFFC000
FFFFFFFFFFFFFFFFFFFFFFFFFFF000
FFFFFFFFFFFFFFFFFFFFFFFFFFF800
FFFFFFFFFFFFFFFFFFFFFFFFFFFC00
FFFFFFFFFFFFFFFFFFFFFFFFFFFC00
FFFFFFFFFFFFFFFFFFFFFFFFFFFE00
FFFFFFFFFFFFFFFFFFFFFFFFFFFF00
FFFFFFFFFFFFFFFFFFFFFFFFFFFF00
FFFFFFFFFFFFFFFFFFFFFFFFFFFF80
7FFFFFFFFFFFFFFFFFFFFFFFFFFF80
7FFFF00000000000000001FFFFFFC0
7FFFF000000000000000003FFFFFC0
7FFFF000000000000000000FFFFFC0
7FFFF0000000000000000003FFFFE0
7FFFF0000000000000000001FFFFE0
7FFFF0000000000000000000FFFFE0
7FFFF8000000000000000000FFFFE0
7FFFF80000000000000000007FFFF0
3FFFF80000000000000000007FFFF0
3FFFF80000000000000000007FFFF0
3FFFFC0000000000000000003FFFF0
3FFFFC0000000000000000003FFFF0
1FFFFC0000000000000000003FFFF0
1FFFFE0000000000000000003FFFF0
1FFFFE0000000000000000003FFFF0
1FFFFF0000000000000000003FFFF0
0FFFFF0000000000000000003FFFF0
0FFFFF8000000000000000007FFFF0
0FFFFFC000000000000000007FFFF0
07FFFFE000000000000000007FFFF0
07FFFFF00000000000000000FFFFF0
03FFFFF80000000000000000FFFFE0
03FFFFFC0000000000000001FFFFE0
01FFFFFE0000000000000003FFFFE0
01FFFFFF8000000000000007FFFFE0
00FFFFFFE00000000000000FFFFFE0
00FFFFFFFC0000000000003FFFFFC0
007FFFFFFFC00000000001FFFFFFC0
007FFFFFFFFFFFFFFFFFFFFFFFFFC0
003FFFFFFFFFFFFFFFFFFFFFFFFF80
001FFFFFFFFFFFFFFFFFFFFFFFFF80
000FFFFFFFFFFFFFFFFFFFFFFFFF00
0007FFFFFFFFFFFFFFFFFFFFFFFF00
0003FFFFFFFFFFFFFFFFFFFFFFFE00
0003FFFFFFFFFFFFFFFFFFFFFFFE00
0000FFFFFFFFFFFFFFFFFFFFFFFC00
00007FFFFFFFFFFFFFFFFFFFFFF800
00003FFFFFFFFFFFFFFFFFFFFFF000
00001FFFFFFFFFFFFFFFFFFFFFE000
000007FFFFFFFFFFFFFFFFFFFFC000
000003FFFFFFFFFFFFFFFFFFFF8000
000000FFFFFFFFFFFFFFFFFFFE0000
0000003FFFFFFFFFFFFFFFFFFC0000
00000007FFFFFFFFFFFFFFFFF00000
00000001FFFFFFFFFFFFFFFFC00000
000000001FFFFFFFFFFFFFFE000000
00000000007FFFFFFFFFFFC0000000
ENDCHAR
STARTCHAR seven
ENCODING 55
SWIDTH 756 0
DWIDTH 113 0
BBX 103 108 7 0
BITMAP
FFFFFFFFFFFFFFFFFFFFFFFE00
FFFFFFFFFFFFFFFFFFFFFFFFC0
FFFFFFFFFFFFFFFFFFFFFFFFF0
FFFFFFFFFFFFFFFFFFFFFFFFF8
FFFFFFFFFFFFFFFFFFFFFFFFF8
FFFFFFFFFFFFFFFFFFFFFFFFFC
FFFFFFFFFFFFFFFFFFFFFFFFFC
FFFFFFFFFFFFFFFFFFFFFFFFFC
FFFFFFFFFFFFFFFFFFFFFFFFFE
FFFFFFFFFFFFFFFFFFFFFFFFFE
FFFFFFFFFFFFFFFFFFFFFFFFFC
FFFFFFFFFFFFFFFFFFFFFFFFFC
FFFFFFFFFFFFFFFFFFFFFFFFFC
FFFFFFFFFFFFFFFFFFFFFFFFFC
FFFFFFFFFFFFFFFFFFFFFFFFF8
FFFFFFFFFFFFFFFFFFFFFFFFF8
FFFFFFFFFFFFFFFFFFFFFFFFF0
FFFFFFFFFFFFFFFFFFFFFFFFE0
FFFFFFFFFFFFFFFFFFFFFFFFC0
0000000000000000003FFFFFC0
0000000000000000007FFFFF80
000000000000000000FFFFFF00
000000000000000001FFFFFE00
000000000000000001FFFFFC00
000000000000000003FFFFF800
000000000000000007FFFFF800
00000000000000000FFFFFF000
00000000000000001FFFFFE000
00000000000000003FFFFFC000
00000000000000003FFFFF8000
00000000000000007FFFFF8000
0000000000000000FFFFFF0000
0000000000000001FFFFFE0000
0000000000000003FFFFFC0000
0000000000000003FFFFF80000
0000000000000007FFFFF00000
000000000000000FFFFFF00000
000000000000001FFFFFE00000
000000000000003FFFFFC00000
000000000000007FFFFF800000
000000000000007FFFFF000000
00000000000000FFFFFF000000
00000000000001FFFFFE000000
00000000000003FFFFFC000000
00000000000007FFFFF8000000
0000000000000FFFFFF0000000
0000000000000FFFFFE0000000
0000000000001FFFFFE0000000
0000000000003FFFFFC0000000
0000000000007FFFFF80000000
000000000000FFFFFF00000000
000000000001FFFFFE00000000
000000000001FFFFFE00000000
000000000003FFFFFC00000000
000000000007FFFFF800000000
00000000000FFFFFF000000000
00000000001FFFFFE000000000
00000000003FFFFFC000000000
00000000003FFFFFC000000000
00000000007FFFFF8000000000
0000000000FFFFFF0000000000
0000000001FFFFFE0000000000
0000000003FFFFFC0000000000
0000000007FFFFFC0000000000
0000000007FFFFF80000000000
000000000FFFFFF00000000000
000000001FFFFFE00000000000
000000003FFFFFC00000000000
000000007FFFFF800000000000
00000000FFFFFF800000000000
00000000FFFFFF000000000000
00000001FFFFFE000000000000
00000003FFFFFC000000000000
00000007FFFFF8000000000000
0000000FFFFFF8000000000000
0000001FFFFFF0000000000000
0000001FFFFFE0000000000000
0000003FFFFFC0000000000000
0000007FFFFF80000000000000
000000FFFFFF00000000000000
000001FFFFFF00000000000000
000003FFFFFE00000000000000
000003FFFFFC00000000000000
000007FFFFF800000000000000
00000FFFFFF000000000000000
00001FFFFFE000000000000000
00003FFFFFE000000000000000
00007FFFFFC000000000000000
00007FFFFF8000000000000000
0000FFFFFF0000000000000000
0001FFFFFE0000000000000000
0003FFFFFE0000000000000000
0007FFFFFC0000000000000000
000FFFFFF80000000000000000
000FFFFFF00000000000000000
001FFFFFE00000000000000000
003FFFFFC00000000000000000
007FFFFFC00000000000000000
00FFFFFF800000000000000000
00FFFFFF000000000000000000
01FFFFFE000000000000000000
03FFFFFC000000000000000000
07FFFFFC000000000000000000
0FFFFFF8000000000000000000
1FFFFFF0000000000000000000
1FFFFFE0000000000000000000
3FFFFFC0000000000000000000
FFFFFF80000000000000000000
ENDCHAR
STARTCHAR eight
ENCODING 56
SWIDTH 898 0
DWIDTH 134 0
BBX 118 108 8 0
BITMAP
00000007FFFFFFFFFFFFFF80000000
000001FFFFFFFFFFFFFFFFFE000000
00000FFFFFFFFFFFFFFFFFFFC00000
00007FFFFFFFFFFFFFFFFFFFF80000
0001FFFFFFFFFFFFFFFFFFFFFE0000
0003FFFFFFFFFFFFFFFFFFFFFF0000
000FFFFFFFFFFFFFFFFFFFFFFFC000
001FFFFFFFFFFFFFFFFFFFFFFFE000
007FFFFFFFFFFFFFFFFFFFFFFFF000
00FFFFFFFFFFFFFFFFFFFFFFFFF800
00FFFFFFFFFFFFFFFFFFFFFFFFFC00
01FFFFFFFFFFFFFFFFFFFFFFFFFE00
03FFFFFFFFFFFFFFFFFFFFFFFFFF00
07FFFFFFFFFFFFFFFFFFFFFFFFFF00
07FFFFFFFFFFFFFFFFFFFFFFFFFF80
0FFFFFFFFFFFFFFFFFFFFFFFFFFFC0
0FFFFFFFFFFFFFFFFFFFFFFFFFFFC0
1FFFFFFFFFFFFFFFFFFFFFFFFFFFC0
1FFFFFFFFFFFFFFFFFFFFFFFFFFFE0
1FFFFFFF00000000000007FFFFFFE0
3FFFFFF8000000000000007FFFFFE0
3FFFFFC0000000000000000FFFFFF0
3FFFFF800000000000000007FFFFF0
3FFFFF000000000000000003FFFFF0
3FFFFE000000000000000001FFFFF0
3FFFFC000000000000000000FFFFF0
3FFFFC000000000000000000FFFFF0
3FFFF8000000000000000000FFFFF0
3FFFF80000000000000000007FFFF0
3FFFF80000000000000000007FFFF0
3FFFF80000000000000000007FFFF0
3FFFF80000000000000000007FFFF0
3FFFF80000000000000000007FFFF0
3FFFF80000000000000000007FFFF0
3FFFF80000000000000000007FFFF0
3FFFF80000000000000000007FFFE0
1FFFF80000000000000000007FFFE0
1FFFFC000000000000000000FFFFE0
1FFFFC000000000000000000FFFFE0
0FFFFC000000000000000001FFFFC0
0FFFFE000000000000000001FFFFC0
07FFFF000000000000000003FFFF80
07FFFF800000000000000007FFFF80
03FFFFE0000000000000001FFFFF00
01FFFFFE00000000000001FFFFFE00
00FFFFFFFFFFFFFFFFFFFFFFFFFC00
007FFFFFFFFFFFFFFFFFFFFFFFF800
003FFFFFFFFFFFFFFFFFFFFFFFF000
001FFFFFFFFFFFFFFFFFFFFFFFC000
0007FFFFFFFFFFFFFFFFFFFFFF8000
0001FFFFFFFFFFFFFFFFFFFFFC0000
0001FFFFFFFFFFFFFFFFFFFFFE0000
0007FFFFFFFFFFFFFFFFFFFFFF8000
001FFFFFFFFFFFFFFFFFFFFFFFE000
007FFFFFFFFFFFFFFFFFFFFFFFF000
00FFFFFFFFFFFFFFFFFFFFFFFFFC00
01FFFFFFFFFFFFFFFFFFFFFFFFFE00
03FFFFFFFFFFFFFFFFFFFFFFFFFF00
07FFFFFFFFFFFFFFFFFFFFFFFFFF80
0FFFFFFFFFFFFFFFFFFFFFFFFFFF80
0FFFFFFFFFFFFFFFFFFFFFFFFFFFC0
1FFFFFFC00000000000000FFFFFFE0
3FFFFFE0000000000000001FFFFFE0
3FFFFF000000000000000007FFFFF0
7FFFFE000000000000000001FFFFF0
7FFFFC000000000000000000FFFFF8
7FFFF80000000000000000007FFFF8
7FFFF00000000000000000007FFFF8
FFFFF00000000000000000003FFFF8
FFFFF00000000000000000003FFFFC
FFFFE00000000000000000001FFFFC
FFFFE00000000000000000001FFFFC
FFFFE00000000000000000001FFFFC
FFFFE00000000000000000001FFFFC
FFFFE00000000000000000001FFFFC
FFFFE00000000000000000001FFFFC
FFFFE00000000000000000001FFFFC
FFFFE00000000000000000001FFFFC
FFFFE00000000000000000001FFFFC
FFFFE00000000000000000003FFFFC
FFFFF00000000000000000003FFFFC
FFFFF00000000000000000003FFFFC
FFFFF80000000000000000007FFFFC
FFFFFC000000000000000000FFFFF8
7FFFFE000000000000000001FFFFF8
7FFFFF000000000000000003FFFFF8
7FFFFFC0000000000000000FFFFFF8
3FFFFFF0000000000000007FFFFFF0
3FFFFFFF00000000000003FFFFFFF0
3FFFFFFFFFFFFFFFFFFFFFFFFFFFE0
1FFFFFFFFFFFFFFFFFFFFFFFFFFFE0
1FFFFFFFFFFFFFFFFFFFFFFFFFFFC0
0FFFFFFFFFFFFFFFFFFFFFFFFFFFC0
0FFFFFFFFFFFFFFFFFFFFFFFFFFF80
07FFFFFFFFFFFFFFFFFFFFFFFFFF80
03FFFFFFFFFFFFFFFFFFFFFFFFFF00
01FFFFFFFFFFFFFFFFFFFFFFFFFE00
01FFFFFFFFFFFFFFFFFFFFFFFFFC00
00FFFFFFFFFFFFFFFFFFFFFFFFF800
007FFFFFFFFFFFFFFFFFFFFFFFF000
001FFFFFFFFFFFFFFFFFFFFFFFE000
000FFFFFFFFFFFFFFFFFFFFFFFC000
0007FFFFFFFFFFFFFFFFFFFFFF0000
0001FFFFFFFFFFFFFFFFFFFFFE0000
00007FFFFFFFFFFFFFFFFFFFF80000
00001FFFFFFFFFFFFFFFFFFFC00000
000001FFFFFFFFFFFFFFFFFE000000
0000001FFFFFFFFFFFFFFFE0000000
ENDCHAR
STARTCHAR nine
ENCODING 57
SWIDTH 861 0
DWIDTH 128 0
BBX 116 108 6 0
BITMAP
0000003FFFFFFFFFFFE00000000000
000003FFFFFFFFFFFFFF8000000000
00001FFFFFFFFFFFFFFFF800000000
00007FFFFFFFFFFFFFFFFF00000000
0001FFFFFFFFFFFFFFFFFFC0000000
0003FFFFFFFFFFFFFFFFFFF0000000
000FFFFFFFFFFFFFFFFFFFFC000000
001FFFFFFFFFFFFFFFFFFFFF000000
003FFFFFFFFFFFFFFFFFFFFF800000
007FFFFFFFFFFFFFFFFFFFFFC00000
00FFFFFFFFFFFFFFFFFFFFFFF00000
01FFFFFFFFFFFFFFFFFFFFFFF80000
01FFFFFFFFFFFFFFFFFFFFFFFC0000
03FFFFFFFFFFFFFFFFFFFFFFFE0000
07FFFFFFFFFFFFFFFFFFFFFFFF0000
07FFFFFFFFFFFFFFFFFFFFFFFF0000
0FFFFFFFFFFFFFFFFFFFFFFFFF8000
0FFFFFFFFFFFFFFFFFFFFFFFFFC000
1FFFFFFFFFFFFFFFFFFFFFFFFFE000
1FFFFFFC00000000003FFFFFFFE000
3FFFFFE0000000000003FFFFFFF000
3FFFFF800000000000007FFFFFF000
3FFFFF000000000000001FFFFFF800
3FFFFE0000000000000007FFFFFC00
7FFFFC0000000000000003FFFFFC00
7FFFFC0000000000000001FFFFFC00
7FFFF80000000000000000FFFFFE00
7FFFF800000000000000007FFFFE00
7FFFF000000000000000003FFFFF00
FFFFF000000000000000001FFFFF00
FFFFF000000000000000000FFFFF00
FFFFF000000000000000000FFFFF80
FFFFF0000000000000000007FFFF80
FFFFF0000000000000000007FFFF80
FFFFE0000000000000000003FFFFC0
FFFFE0000000000000000003FFFFC0
FFFFF0000000000000000003FFFFC0
FFFFF0000000000000000001FFFFC0
FFFFF0000000000000000001FFFFE0
FFFFF0000000000000000001FFFFE0
7FFFF0000000000000000000FFFFE0
7FFFF0000000000000000000FFFFE0
7FFFF8000000000000000000FFFFE0
7FFFF8000000000000000000FFFFE0
7FFFFC000000000000000000FFFFE0
7FFFFE000000000000000000FFFFF0
3FFFFF0000000000000000007FFFF0
3FFFFF8000000000000000007FFFF0
3FFFFFE000000000000000007FFFF0
1FFFFFFC00000000000000007FFFF0
1FFFFFFFFFFFFFFFFFFFFFFFFFFFF0
1FFFFFFFFFFFFFFFFFFFFFFFFFFFF0
0FFFFFFFFFFFFFFFFFFFFFFFFFFFF0
07FFFFFFFFFFFFFFFFFFFFFFFFFFF0
07FFFFFFFFFFFFFFFFFFFFFFFFFFF0
03FFFFFFFFFFFFFFFFFFFFFFFFFFF0
01FFFFFFFFFFFFFFFFFFFFFFFFFFF0
00FFFFFFFFFFFFFFFFFFFFFFFFFFF0
007FFFFFFFFFFFFFFFFFFFFFFFFFF0
003FFFFFFFFFFFFFFFFFFFFFFFFFF0
001FFFFFFFFFFFFFFFFFFFFFFFFFF0
0007FFFFFFFFFFFFFFFFFFFFFFFFF0
0003FFFFFFFFFFFFFFFFFFFFFFFFF0
00007FFFFFFFFFFFFFFFFFFFFFFFF0
00000FFFFFFFFFFFFFFFFFFFFFFFF0
000000FFFFFFFFFFFFFFFFFFFFFFE0
000000000000000000000000FFFFE0
000000000000000000000000FFFFE0
000000000000000000000000FFFFE0
000000000000000000000001FFFFE0
000000000000000000000001FFFFE0
000000000000000000000001FFFFE0
000000000000000000000003FFFFC0
000000000000000000000003FFFFC0
000000000000000000000003FFFFC0
000000000000000000000007FFFFC0
000000000000000000000007FFFF80
00000000000000000000000FFFFF80
00000000000000000000000FFFFF80
00000000000000000000001FFFFF00
00000000000000000000003FFFFF00
00000000000000000000007FFFFF00
0000000000000000000000FFFFFE00
0000000000000000000001FFFFFE00
0000000000000000000007FFFFFC00
000000000000000000000FFFFFFC00
000000000000000000003FFFFFF800
00000000000000000001FFFFFFF800
0000000000000000001FFFFFFFF000
000FFFFFFFFFFFFFFFFFFFFFFFF000
000FFFFFFFFFFFFFFFFFFFFFFFE000
000FFFFFFFFFFFFFFFFFFFFFFFC000
000FFFFFFFFFFFFFFFFFFFFFFF8000
000FFFFFFFFFFFFFFFFFFFFFFF8000
000FFFFFFFFFFFFFFFFFFFFFFF0000
000FFFFFFFFFFFFFFFFFFFFFFE0000
000FFFFFFFFFFFFFFFFFFFFFFC0000
000FFFFFFFFFFFFFFFFFFFFFF80000
000FFFFFFFFFFFFFFFFFFFFFE00000
000FFFFFFFFFFFFFFFFFFFFFC00000
000FFFFFFFFFFFFFFFFFFFFF800000
000FFFFFFFFFFFFFFFFFFFFE000000
000FFFFFFFFFFFFFFFFFFFF8000000
000FFFFFFFFFFFFFFFFFFFE0000000
000FFFFFFFFFFFFFFFFFFF80000000
000FFFFFFFFFFFFFFFFFFC00000000
000FFFFFFFFFFFFFFFFFC000000000
000FFFFFFFFFFFFFFFF00000000000
ENDCHAR
STARTCHAR colon
ENCODING 58
SWIDTH 262 0
DWIDTH 39 0
BBX 21 69 9 0
BITMAP
01FC00
07FF00
0FFF80
1FFFC0
3FFFE0
7FFFF0
7FFFF0
7FFFF0
FFFFF8
FFFFF8
FFFFF8
FFFFF8
7FFFF0
7FFFF0
7FFFF0
3FFFE0
1FFFC0
0FFF80
07FF00
01FC00
000000
000000
000000
000000
000000
000000
000000
000000
000000
000000
000000
000000
000000
000000
000000
000000
000000
000000
000000
000000
000000
000000
000000
000000
000000
000000
000000
000000
000000
01FC00
07FF00
0FFF80
1FFFC0
3FFFE0
7FFFF0
7FFFF0
7FFFF0
FFFFF8
FFFFF8
FFFFF8
FFFFF8
7FFFF0
7FFFF0
7FFFF0
3FFFE0
1FFFC0
0FFF80
07FF00
01FC00
ENDCHAR
STARTCHAR semicolon
ENCODING 59
SWIDTH 262 0
DWIDTH 39 0
BBX 20 85 10 -18
BITMAP
03F800
0FFE00
1FFF80
3FFF80
7FFFC0
FFFFE0
FFFFE0
FFFFE0
FFFFF0
FFFFF0
FFFFF0
FFFFF0
FFFFE0
FFFFE0
FFFFE0
7FFFC0
3FFF80
1FFF00
0FFE00
03F800
000000
000000
000000
000000
000000
000000
000000
000000
000000
000000
000000
000000
000000
000000
000000
000000
000000
000000
000000
000000
000000
000000
000000
000000
000000
000000
FFFFE0
FFFFE0
FFFFE0
FFFFE0
FFFFC0
FFFFC0
FFFFC0
FFFFC0
FFFFC0
FFFF80
FFFF80
FFFF80
FFFF80
FFFF80
FFFF00
FFFF00
FFFF00
FFFF00
FFFF00
FFFE00
FFFE00
FFFE00
FFFE00
FFFE00
FFFE00
FFFC00
FFFC00
FFFC00
FFFC00
FFFC00
FFF800
FFF800
FFF800
FFF800
FFF800
FFF000
FFF000
FFF000
FFF000
ENDCHAR
STARTCHAR less
ENCODING 60
SWIDTH 690 0
DWIDTH 103 0
BBX 84 80 9 15
BITMAP
0000000000000000000010
0000000000000000000070
00000000000000000001F0
0000000000000000000FF0
0000000000000000003FF0
000000000000000001FFF0
000000000000000007FFF0
00000000000000001FFFF0
0000000000000000FFFFF0
0000000000000003FFFFF0
000000000000001FFFFFF0
000000000000007FFFFFF0
00000000000001FFFFFFF0
0000000000000FFFFFFFF0
0000000000003FFFFFFFC0
000000000001FFFFFFFE00
000000000007FFFFFFF800
00000000001FFFFFFFC000
0000000000FFFFFFFF0000
0000000003FFFFFFF80000
000000001FFFFFFFE00000
000000007FFFFFFF000000
00000001FFFFFFF8000000
0000000FFFFFFFE0000000
0000003FFFFFFF00000000
000001FFFFFFFC00000000
000007FFFFFFE000000000
00001FFFFFFF8000000000
0000FFFFFFFC0000000000
0003FFFFFFF00000000000
001FFFFFFF800000000000
007FFFFFFC000000000000
01FFFFFFF0000000000000
0FFFFFFF80000000000000
1FFFFFFE00000000000000
3FFFFFF000000000000000
7FFFFFC000000000000000
7FFFFE0000000000000000
7FFFF00000000000000000
FFFFC00000000000000000
FFFFC00000000000000000
FFFFF00000000000000000
7FFFFE0000000000000000
7FFFFF8000000000000000
3FFFFFF000000000000000
1FFFFFFC00000000000000
0FFFFFFF80000000000000
01FFFFFFF0000000000000
007FFFFFFC000000000000
001FFFFFFF800000000000
0003FFFFFFE00000000000
0000FFFFFFFC0000000000
00001FFFFFFF0000000000
000007FFFFFFE000000000
000001FFFFFFF800000000
0000003FFFFFFF00000000
0000000FFFFFFFC0000000
00000003FFFFFFF8000000
000000007FFFFFFF000000
000000001FFFFFFFC00000
0000000003FFFFFFF80000
0000000000FFFFFFFE0000
00000000003FFFFFFFC000
000000000007FFFFFFF000
000000000001FFFFFFFE00
0000000000003FFFFFFF80
0000000000000FFFFFFFF0
00000000000003FFFFFFF0
000000000000007FFFFFF0
000000000000001FFFFFF0
0000000000000007FFFFF0
0000000000000000FFFFF0
00000000000000003FFFF0
000000000000000007FFF0
000000000000000001FFF0
0000000000000000007FF0
0000000000000000000FF0
00000000000000000003F0
0000000000000000000070
0000000000000000000010
ENDCHAR
STARTCHAR equal
ENCODING 61
SWIDTH 690 0
DWIDTH 103 0
BBX 84 52 9 29
BITMAP
FFFFFFFFFFFFFFFFFFFFF0
FFFFFFFFFFFFFFFFFFFFF0
FFFFFFFFFFFFFFFFFFFFF0
FFFFFFFFFFFFFFFFFFFFF0
FFFFFFFFFFFFFFFFFFFFF0
FFFFFFFFFFFFFFFFFFFFF0
FFFFFFFFFFFFFFFFFFFFF0
FFFFFFFFFFFFFFFFFFFFF0
FFFFFFFFFFFFFFFFFFFFF0
FFFFFFFFFFFFFFFFFFFFF0
FFFFFFFFFFFFFFFFFFFFF0
FFFFFFFFFFFFFFFFFFFFF0
0000000000000000000000
0000000000000000000000
0000000000000000000000
0000000000000000000000
0000000000000000000000
0000000000000000000000
0000000000000000000000
0000000000000000000000
0000000000000000000000
0000000000000000000000
0000000000000000000000
0000000000000000000000
0000000000000000000000
0000000000000000000000
0000000000000000000000
0000000000000000000000
0000000000000000000000
0000000000000000000000
0000000000000000000000
0000000000000000000000
0000000000000000000000
0000000000000000000000
0000000000000000000000
0000000000000000000000
0000000000000000000000
0000000000000000000000
0000000000000000000000
0000000000000000000000
FFFFFFFFFFFFFFFFFFFFF0
FFFFFFFFFFFFFFFFFFFFF0
FFFFFFFFFFFFFFFFFFFFF0
FFFFFFFFFFFFFFFFFFFFF0
FFFFFFFFFFFFFFFFFFFFF0
FFFFFFFFFFFFFFFFFFFFF0
FFFFFFFFFFFFFFFFFFFFF0
FFFFFFFFFFFFFFFFFFFFF0
FFFFFFFFFFFFFFFFFFFFF0
FFFFFFFFFFFFFFFFFFFFF0
FFFFFFFFFFFFFFFFFFFFF0
FFFFFFFFFFFFFFFFFFFFF0
ENDCHAR
STARTCHAR greater
ENCODING 62
SWIDTH 690 0
DWIDTH 103 0
BBX 84 80 9 15
BITMAP
C000000000000000000000
F000000000000000000000
FC00000000000000000000
FF80000000000000000000
FFE0000000000000000000
FFF8000000000000000000
FFFF000000000000000000
FFFFC00000000000000000
FFFFF80000000000000000
FFFFFE0000000000000000
FFFFFF8000000000000000
FFFFFFF000000000000000
FFFFFFFC00000000000000
FFFFFFFF80000000000000
1FFFFFFFE0000000000000
07FFFFFFF8000000000000
00FFFFFFFF000000000000
003FFFFFFFC00000000000
0007FFFFFFF80000000000
0000FFFFFFFE0000000000
00003FFFFFFF8000000000
000007FFFFFFF000000000
000001FFFFFFFC00000000
0000003FFFFFFF80000000
0000000FFFFFFFE0000000
00000001FFFFFFF8000000
000000003FFFFFFF000000
000000000FFFFFFFC00000
0000000001FFFFFFF80000
00000000007FFFFFFE0000
00000000000FFFFFFF8000
000000000003FFFFFFF000
0000000000007FFFFFFC00
0000000000000FFFFFFF00
00000000000003FFFFFFC0
000000000000007FFFFFE0
000000000000001FFFFFE0
0000000000000003FFFFF0
0000000000000000FFFFF0
00000000000000001FFFF0
00000000000000001FFFF0
00000000000000007FFFF0
0000000000000003FFFFF0
000000000000001FFFFFF0
000000000000007FFFFFE0
00000000000003FFFFFFC0
0000000000000FFFFFFF00
0000000000007FFFFFFC00
000000000001FFFFFFF000
00000000000FFFFFFF8000
00000000003FFFFFFE0000
0000000001FFFFFFF80000
0000000007FFFFFFC00000
000000003FFFFFFF000000
00000000FFFFFFF8000000
00000007FFFFFFE0000000
0000003FFFFFFF80000000
000000FFFFFFFC00000000
000007FFFFFFF000000000
00001FFFFFFFC000000000
0000FFFFFFFE0000000000
0003FFFFFFF80000000000
001FFFFFFFC00000000000
007FFFFFFF000000000000
03FFFFFFFC000000000000
0FFFFFFFE0000000000000
7FFFFFFF80000000000000
FFFFFFFE00000000000000
FFFFFFF000000000000000
FFFFFFC000000000000000
FFFFFE0000000000000000
FFFFF80000000000000000
FFFFE00000000000000000
FFFF000000000000000000
FFFC000000000000000000
FFE0000000000000000000
FF80000000000000000000
FE00000000000000000000
F000000000000000000000
C000000000000000000000
ENDCHAR
STARTCHAR question
ENCODING 63
SWIDTH 776 0
DWIDTH 116 0
BBX 104 108 7 0
BITMAP
FFFFFFFFFFFFFFFFFFFC000000
FFFFFFFFFFFFFFFFFFFFE00000
FFFFFFFFFFFFFFFFFFFFFC0000
FFFFFFFFFFFFFFFFFFFFFF0000
FFFFFFFFFFFFFFFFFFFFFFC000
FFFFFFFFFFFFFFFFFFFFFFF000
FFFFFFFFFFFFFFFFFFFFFFF800
FFFFFFFFFFFFFFFFFFFFFFFE00
FFFFFFFFFFFFFFFFFFFFFFFF00
FFFFFFFFFFFFFFFFFFFFFFFF80
FFFFFFFFFFFFFFFFFFFFFFFFC0
FFFFFFFFFFFFFFFFFFFFFFFFC0
FFFFFFFFFFFFFFFFFFFFFFFFE0
FFFFFFFFFFFFFFFFFFFFFFFFF0
FFFFFFFFFFFFFFFFFFFFFFFFF0
FFFFFFFFFFFFFFFFFFFFFFFFF8
FFFFFFFFFFFFFFFFFFFFFFFFF8
FFFFFFFFFFFFFFFFFFFFFFFFFC
FFFFFFFFFFFFFFFFFFFFFFFFFC
0000000000000000000FFFFFFE
00000000000000000001FFFFFE
00000000000000000000FFFFFE
000000000000000000007FFFFE
000000000000000000003FFFFF
000000000000000000001FFFFF
000000000000000000000FFFFF
000000000000000000000FFFFF
000000000000000000000FFFFF
000000000000000000000FFFFF
0000000000000000000007FFFF
0000000000000000000007FFFF
0000000000000000000007FFFF
0000000000000000000007FFFF
0000000000000000000007FFFF
000000000000000000000FFFFF
000000000000000000000FFFFF
000000000000000000000FFFFF
000000000000000000000FFFFE
000000000000000000001FFFFE
000000000000000000003FFFFE
000000000000000000007FFFFC
00000000000000000000FFFFFC
00000000000000000003FFFFFC
0000000000000000000FFFFFF8
0000000FFFFFFFFFFFFFFFFFF8
000001FFFFFFFFFFFFFFFFFFF0
000007FFFFFFFFFFFFFFFFFFF0
00001FFFFFFFFFFFFFFFFFFFE0
00007FFFFFFFFFFFFFFFFFFFC0
0000FFFFFFFFFFFFFFFFFFFF80
0001FFFFFFFFFFFFFFFFFFFF00
0003FFFFFFFFFFFFFFFFFFFE00
0003FFFFFFFFFFFFFFFFFFFC00
0007FFFFFFFFFFFFFFFFFFF800
000FFFFFFFFFFFFFFFFFFFF000
000FFFFFFFFFFFFFFFFFFFC000
001FFFFFFFFFFFFFFFFFFF0000
001FFFFFFFFFFFFFFFFFFC0000
001FFFFFFFFFFFFFFFFFE00000
003FFFFFFFFFFFFFFFFC000000
003FFFFE000000000000000000
003FFFF8000000000000000000
003FFFF8000000000000000000
003FFFF0000000000000000000
003FFFF0000000000000000000
003FFFF0000000000000000000
003FFFF0000000000000000000
003FFFF0000000000000000000
003FFFF0000000000000000000
003FFFF0000000000000000000
003FFFF0000000000000000000
003FFFF0000000000000000000
00000000000000000000000000
00000000000000000000000000
00000000000000000000000000
00000000000000000000000000
00000000000000000000000000
00000000000000000000000000
00000000000000000000000000
00000000000000000000000000
00000000000000000000000000
00000000000000000000000000
00000000000000000000000000
00000000000000000000000000
00000000000000000000000000
00000000000000000000000000
00000000000000000000000000
00000000000000000000000000
0000FC00000000000000000000
0007FF80000000000000000000
000FFFC0000000000000000000
001FFFE0000000000000000000
003FFFF0000000000000000000
003FFFF0000000000000000000
007FFFF8000000000000000000
007FFFF8000000000000000000
007FFFF8000000000000000000
007FFFF8000000000000000000
007FFFF8000000000000000000
007FFFF8000000000000000000
007FFFF8000000000000000000
007FFFF8000000000000000000
003FFFF0000000000000000000
003FFFF0000000000000000000
001FFFE0000000000000000000
000FFFC0000000000000000000
0007FF80000000000000000000
0000FC00000000000000000000
ENDCHAR
STARTCHAR at
ENCODING 64
SWIDTH 833 0
DWIDTH 124 0
BBX 109 108 6 0
BITMAP
000000000001FFFFFFFFFFFFFFF8
00000000007FFFFFFFFFFFFFFFF8
0000000003FFFFFFFFFFFFFFFFF8
000000001FFFFFFFFFFFFFFFFFF8
00000000FFFFFFFFFFFFFFFFFFF8
00000003FFFFFFFFFFFFFFFFFFF8
0000000FFFFFFFFFFFFFFFFFFFF8
0000001FFFFFFFFFFFFFFFFFFFF8
0000007FFFFFFFFFFFFFFFFFFFF8
000001FFFFFFFFFFFFFFFFFFFFF8
000003FFFFFFFFFFFFFFFFFFFFF8
000007FFFFFFFFFFFFFFFFFFFFF8
00001FFFFFFFFFFFFFFFFFFFFFF8
00003FFFFFFFFFFFFFFFFFFFFFF8
00007FFFFFFF000000000001FFF8
0000FFFFFFE0000000000001FFF8
0001FFFFFE00000000000001FFF8
0003FFFFF800000000000001FFF8
0007FFFFE000000000000001FFF8
0007FFFF8000000000000001FFF8
000FFFFE0000000000000001FFF8
001FFFFC0000000000000001FFF8
003FFFF00000000000000001FFF8
003FFFE00000000000000001FFF8
007FFFC00000000000000001FFF8
00FFFF800000000000000001FFF8
00FFFF000000000000000001FFF8
01FFFE000000000000000001FFF8
01FFFC000000000000000001FFF8
03FFFC000000000000000001FFF8
03FFF8000000FFFFFFFFC001FFF8
07FFF000000FFFFFFFFFC001FFF8
07FFF000003FFFFFFFFFC001FFF8
0FFFE000007FFFFFFFFFC001FFF8
0FFFE00001FFFFFFFFFFC001FFF8
0FFFC00003FFFFFFFFFFC001FFF8
1FFFC00007FFFFFFFFFFC001FFF8
1FFF800007FFFFFFFFFFC001FFF8
1FFF80000FFFFFFFFFFFC001FFF8
3FFF80001FFFFFFFFFFFC001FFF8
3FFF00003FFFFFFFFFFFC001FFF8
3FFF00003FFFF00007FFC001FFF8
3FFF00007FFFC00007FFC001FFF8
7FFE00007FFF000007FFC001FFF8
7FFE00007FFE000007FFC001FFF8
7FFE0000FFFC000007FFC001FFF8
7FFE0000FFF8000007FFC001FFF8
7FFE0000FFF8000007FFC001FFF8
7FFE0000FFF8000007FFC001FFF8
FFFE0001FFF0000007FFC001FFF8
FFFE0001FFF0000007FFC001FFF8
FFFC0001FFF0000007FFC001FFF8
FFFC0001FFF0000007FFC001FFF8
FFFC0001FFF0000007FFC001FFF8
FFFC0001FFF0000007FFC001FFF8
FFFC0001FFF0000007FFC001FFF8
FFFC0001FFF0000007FFC001FFF8
FFFE0001FFF0000007FFC001FFF8
FFFE0001FFF0000007FFC001FFF8
FFFE0000FFF8000007FFC001FFF8
FFFE0000FFF8000007FFC001FFF8
7FFE0000FFFC000007FFC001FFF8
7FFE0000FFFC000007FFC001FFF8
7FFE0000FFFE000007FFC001FFF8
7FFE00007FFF000007FFC001FFF8
7FFF00007FFFC00007FFC001FFF8
7FFF00003FFFF00007FFC001FFF8
7FFF00003FFFFFFFFFFFFFFFFFF8
3FFF80001FFFFFFFFFFFFFFFFFF8
3FFF80001FFFFFFFFFFFFFFFFFF8
3FFF80000FFFFFFFFFFFFFFFFFF8
3FFFC00007FFFFFFFFFFFFFFFFF8
1FFFC00003FFFFFFFFFFFFFFFFF8
1FFFE00003FFFFFFFFFFFFFFFFF8
1FFFE00000FFFFFFFFFFFFFFFFF8
0FFFF000007FFFFFFFFFFFFFFFF8
0FFFF000001FFFFFFFFFFFFFFFF8
07FFF8000007FFFFFFFFFFFFFFF8
07FFFC000000FFFFFFFFFFFFFFF8
03FFFC0000000000000000000000
03FFFE0000000000000000000000
01FFFF0000000000000000000000
01FFFF8000000000000000000000
00FFFFC000000000000000000000
00FFFFE000000000000000000000
007FFFF000000000000000000000
003FFFF800000000000000000000
003FFFFE00000000000000000000
001FFFFF80000000000000000000
000FFFFFC0000000000000000000
0007FFFFF8000000000000000000
0003FFFFFE000000000000000000
0001FFFFFFC00000000000000000
0000FFFFFFFE0000000000000000
00007FFFFFFFFFFFFFFFFFFFFFF8
00003FFFFFFFFFFFFFFFFFFFFFF8
00001FFFFFFFFFFFFFFFFFFFFFF8
00000FFFFFFFFFFFFFFFFFFFFFF8
000003FFFFFFFFFFFFFFFFFFFFF8
000001FFFFFFFFFFFFFFFFFFFFF8
0000007FFFFFFFFFFFFFFFFFFFF8
0000001FFFFFFFFFFFFFFFFFFFF8
00000007FFFFFFFFFFFFFFFFFFF8
00000001FFFFFFFFFFFFFFFFFFF8
000000003FFFFFFFFFFFFFFFFFF8
0000000007FFFFFFFFFFFFFFFFF8
00000000007FFFFFFFFFFFFFFFF8
000000000003FFFFFFFFFFFFFFF8
ENDCHAR
STARTCHAR A
ENCODING 65
SWIDTH 989 0
DWIDTH 147 0
BBX 143 110 2 0
BITMAP
000000000000000001000000000000000000
00000000000000001FF00000000000000000
00000000000000003FF80000000000000000
00000000000000007FFC0000000000000000
0000000000000000FFFE0000000000000000
0000000000000001FFFF0000000000000000
0000000000000003FFFF8000000000000000
0000000000000003FFFF8000000000000000
0000000000000007FFFFC000000000000000
0000000000000007FFFFC000000000000000
000000000000000FFFFFE000000000000000
000000000000001FFFFFF000000000000000
000000000000001FFFFFF000000000000000
000000000000003FFFFFF800000000000000
000000000000003FFFFFF800000000000000
000000000000007FFFFFFC00000000000000
00000000000000FFFFFFFE00000000000000
00000000000000FFFFFFFE00000000000000
00000000000001FFFFFFFF00000000000000
00000000000001FFFFFFFF00000000000000
00000000000003FFFFFFFF80000000000000
00000000000007FFFFFFFFC0000000000000
00000000000007FFFFFFFFC0000000000000
0000000000000FFFFFFFFFE0000000000000
0000000000000FFFFFFFFFE0000000000000
0000000000001FFFFFFFFFF0000000000000
0000000000003FFFFFFFFFF8000000000000
0000000000003FFFFFFFFFF8000000000000
0000000000007FFFFDFFFFFC000000000000
0000000000007FFFFCFFFFFE000000000000
000000000000FFFFF87FFFFE000000000000
000000000001FFFFF87FFFFF000000000000
000000000001FFFFF03FFFFF000000000000
000000000003FFFFE03FFFFF800000000000
000000000003FFFFE01FFFFFC00000000000
000000000007FFFFC00FFFFFC00000000000
00000000000FFFFFC00FFFFFE00000000000
00000000000FFFFF8007FFFFE00000000000
00000000001FFFFF0007FFFFF00000000000
00000000001FFFFF0003FFFFF80000000000
00000000003FFFFE0001FFFFF80000000000
00000000007FFFFE0001FFFFFC0000000000
00000000007FFFFC0000FFFFFC0000000000
0000000000FFFFF80000FFFFFE0000000000
0000000000FFFFF800007FFFFF0000000000
0000000001FFFFF000003FFFFF0000000000
0000000003FFFFF000003FFFFF8000000000
0000000003FFFFE000001FFFFF8000000000
0000000007FFFFC000001FFFFFC000000000
0000000007FFFFC000000FFFFFE000000000
000000000FFFFF80000007FFFFE000000000
000000001FFFFF80000007FFFFF000000000
000000001FFFFF00000003FFFFF000000000
000000003FFFFE00000003FFFFF800000000
000000003FFFFE00000001FFFFFC00000000
000000007FFFFC00000000FFFFFC00000000
00000000FFFFFC00000000FFFFFE00000000
00000000FFFFF8000000007FFFFE00000000
00000001FFFFF0000000007FFFFF00000000
00000003FFFFF0000000003FFFFF80000000
00000003FFFFE0000000001FFFFF80000000
00000007FFFFE0000000001FFFFFC0000000
00000007FFFFC0000000000FFFFFC0000000
0000000FFFFF80000000000FFFFFE0000000
0000001FFFFF800000000007FFFFF0000000
0000001FFFFF000000000003FFFFF0000000
0000003FFFFF000000000003FFFFF8000000
0000003FFFFE000000000001FFFFF8000000
0000007FFFFC0007FFFFFFFFFFFFFC000000
000000FFFFFC0007FFFFFFFFFFFFFE000000
000000FFFFF8000FFFFFFFFFFFFFFE000000
000001FFFFF8000FFFFFFFFFFFFFFF000000
000001FFFFF0001FFFFFFFFFFFFFFF000000
000003FFFFE0003FFFFFFFFFFFFFFF800000
000007FFFFE0003FFFFFFFFFFFFFFFC00000
000007FFFFC0007FFFFFFFFFFFFFFFC00000
00000FFFFFC0007FFFFFFFFFFFFFFFE00000
00000FFFFF8000FFFFFFFFFFFFFFFFF00000
00001FFFFF0001FFFFFFFFFFFFFFFFF00000
00003FFFFF0001FFFFFFFFFFFFFFFFF80000
00003FFFFE0003FFFFFFFFFFFFFFFFF80000
00007FFFFE0003FFFFFFFFFFFFFFFFFC0000
00007FFFFC0007FFFFFFFFFFFFFFFFFE0000
0000FFFFFC0000000000000000FFFFFE0000
0001FFFFF800000000000000007FFFFF0000
0001FFFFF000000000000000003FFFFF0000
0003FFFFF000000000000000003FFFFF8000
0003FFFFE000000000000000001FFFFFC000
0007FFFFE000000000000000001FFFFFC000
000FFFFFC000000000000000000FFFFFE000
000FFFFF80000000000000000007FFFFE000
001FFFFF80000000000000000007FFFFF000
001FFFFF00000000000000000003FFFFF800
003FFFFF00000000000000000003FFFFF800
007FFFFE00000000000000000001FFFFFC00
007FFFFC00000000000000000000FFFFFC00
00FFFFFC00000000000000000000FFFFFE00
00FFFFF8000000000000000000007FFFFF00
01FFFFF8000000000000000000007FFFFF00
03FFFFF0000000000000000000003FFFFF80
03FFFFE0000000000000000000001FFFFF80
07FFFFE0000000000000000000001FFFFFC0
07FFFFC0000000000000000000000FFFFFE0
0FFFFFC0000000000000000000000FFFFFE0
1FFFFF800000000000000000000007FFFFF0
1FFFFF000000000000000000000003FFFFF0
3FFFFF000000000000000000000003FFFFF8
3FFFFE000000000000000000000001FFFFFC
7FFFFE000000000000000000000001FFFFFC
FFFFFC000000000000000000000000FFFFFE
ENDCHAR
STARTCHAR B
ENCODING 66
SWIDTH 891 0
DWIDTH 133 0
BBX 117 108 9 0
BITMAP
FFFFFFFFFFFFFFFFFFFFFE00000000
FFFFFFFFFFFFFFFFFFFFFFF8000000
FFFFFFFFFFFFFFFFFFFFFFFF000000
FFFFFFFFFFFFFFFFFFFFFFFFE00000
FFFFFFFFFFFFFFFFFFFFFFFFF80000
FFFFFFFFFFFFFFFFFFFFFFFFFE0000
FFFFFFFFFFFFFFFFFFFFFFFFFF0000
FFFFFFFFFFFFFFFFFFFFFFFFFFC000
FFFFFFFFFFFFFFFFFFFFFFFFFFE000
FFFFFFFFFFFFFFFFFFFFFFFFFFF000
FFFFFFFFFFFFFFFFFFFFFFFFFFF800
FFFFFFFFFFFFFFFFFFFFFFFFFFF800
FFFFFFFFFFFFFFFFFFFFFFFFFFFC00
FFFFFFFFFFFFFFFFFFFFFFFFFFFE00
FFFFFFFFFFFFFFFFFFFFFFFFFFFE00
FFFFFFFFFFFFFFFFFFFFFFFFFFFF00
FFFFFFFFFFFFFFFFFFFFFFFFFFFF00
FFFFFFFFFFFFFFFFFFFFFFFFFFFF80
FFFFFFFFFFFFFFFFFFFFFFFFFFFF80
FFFFE0000000000000001FFFFFFFC0
FFFFE00000000000000001FFFFFFC0
FFFFE000000000000000003FFFFFC0
FFFFE000000000000000001FFFFFC0
FFFFE000000000000000000FFFFFC0
FFFFE0000000000000000007FFFFC0
FFFFE0000000000000000003FFFFE0
FFFFE0000000000000000003FFFFE0
FFFFE0000000000000000001FFFFE0
FFFFE0000000000000000001FFFFE0
FFFFE0000000000000000001FFFFE0
FFFFE0000000000000000001FFFFE0
FFFFE0000000000000000001FFFFE0
FFFFE0000000000000000001FFFFC0
FFFFE0000000000000000001FFFFC0
FFFFE0000000000000000001FFFFC0
FFFFE0000000000000000001FFFFC0
FFFFE0000000000000000001FFFFC0
FFFFE0000000000000000001FFFF80
FFFFE0000000000000000003FFFF80
FFFFE0000000000000000003FFFF80
FFFFE0000000000000000007FFFF00
FFFFE000000000000000000FFFFF00
FFFFE000000000000000001FFFFE00
FFFFE000000000000000007FFFFC00
FFFFE00000000000000003FFFFF800
FFFFE0007FFFFFFFFFFFFFFFFFF000
FFFFE0007FFFFFFFFFFFFFFFFFF000
FFFFE0007FFFFFFFFFFFFFFFFFC000
FFFFE0007FFFFFFFFFFFFFFFFF8000
FFFFE0007FFFFFFFFFFFFFFFFE0000
FFFFE0007FFFFFFFFFFFFFFFF80000
FFFFE0007FFFFFFFFFFFFFFFF80000
FFFFE0007FFFFFFFFFFFFFFFFF0000
FFFFE0007FFFFFFFFFFFFFFFFF8000
FFFFE0007FFFFFFFFFFFFFFFFFE000
FFFFE0007FFFFFFFFFFFFFFFFFF000
FFFFE0007FFFFFFFFFFFFFFFFFF800
FFFFE0007FFFFFFFFFFFFFFFFFFC00
FFFFE0007FFFFFFFFFFFFFFFFFFE00
FFFFE0007FFFFFFFFFFFFFFFFFFF00
FFFFE0007FFFFFFFFFFFFFFFFFFF80
FFFFE00000000000000003FFFFFF80
FFFFE000000000000000003FFFFFC0
FFFFE000000000000000000FFFFFC0
FFFFE0000000000000000007FFFFE0
FFFFE0000000000000000003FFFFE0
FFFFE0000000000000000001FFFFE0
FFFFE0000000000000000000FFFFF0
FFFFE0000000000000000000FFFFF0
FFFFE00000000000000000007FFFF0
FFFFE00000000000000000007FFFF0
FFFFE00000000000000000007FFFF0
FFFFE00000000000000000007FFFF0
FFFFE00000000000000000007FFFF8
FFFFE00000000000000000007FFFF8
FFFFE00000000000000000007FFFF8
FFFFE00000000000000000007FFFF8
FFFFE00000000000000000007FFFF8
FFFFE00000000000000000007FFFF0
FFFFE00000000000000000007FFFF0
FFFFE0000000000000000000FFFFF0
FFFFE0000000000000000000FFFFF0
FFFFE0000000000000000001FFFFF0
FFFFE0000000000000000003FFFFF0
FFFFE0000000000000000007FFFFF0
FFFFE000000000000000000FFFFFE0
FFFFE000000000000000003FFFFFE0
FFFFE00000000000000001FFFFFFE0
FFFFE0000000000000001FFFFFFFC0
FFFFFFFFFFFFFFFFFFFFFFFFFFFFC0
FFFFFFFFFFFFFFFFFFFFFFFFFFFF80
FFFFFFFFFFFFFFFFFFFFFFFFFFFF80
FFFFFFFFFFFFFFFFFFFFFFFFFFFF00
FFFFFFFFFFFFFFFFFFFFFFFFFFFF00
FFFFFFFFFFFFFFFFFFFFFFFFFFFE00
FFFFFFFFFFFFFFFFFFFFFFFFFFFC00
FFFFFFFFFFFFFFFFFFFFFFFFFFFC00
FFFFFFFFFFFFFFFFFFFFFFFFFFF800
FFFFFFFFFFFFFFFFFFFFFFFFFFF000
FFFFFFFFFFFFFFFFFFFFFFFFFFE000
FFFFFFFFFFFFFFFFFFFFFFFFFFC000
FFFFFFFFFFFFFFFFFFFFFFFFFF0000
FFFFFFFFFFFFFFFFFFFFFFFFFE0000
FFFFFFFFFFFFFFFFFFFFFFFFF80000
FFFFFFFFFFFFFFFFFFFFFFFFE00000
FFFFFFFFFFFFFFFFFFFFFFFF800000
FFFFFFFFFFFFFFFFFFFFFFFC000000
FFFFFFFFFFFFFFFFFFFFFF80000000
ENDCHAR
STARTCHAR C
ENCODING 67
SWIDTH 829 0
DWIDTH 124 0
BBX 112 108 6 0
BITMAP
000000000007FFFFFFFFFFFFFFFF
0000000001FFFFFFFFFFFFFFFFFF
000000000FFFFFFFFFFFFFFFFFFF
000000007FFFFFFFFFFFFFFFFFFF
00000003FFFFFFFFFFFFFFFFFFFF
0000000FFFFFFFFFFFFFFFFFFFFF
0000003FFFFFFFFFFFFFFFFFFFFF
000000FFFFFFFFFFFFFFFFFFFFFF
000001FFFFFFFFFFFFFFFFFFFFFF
000007FFFFFFFFFFFFFFFFFFFFFF
00000FFFFFFFFFFFFFFFFFFFFFFF
00001FFFFFFFFFFFFFFFFFFFFFFF
00007FFFFFFFFFFFFFFFFFFFFFFF
0000FFFFFFFFFFFFFFFFFFFFFFFF
0001FFFFFFFFFFFFFFFFFFFFFFFF
0003FFFFFFFFFFFFFFFFFFFFFFFF
0007FFFFFFFFFFFFFFFFFFFFFFFF
000FFFFFFFFFFFFFFFFFFFFFFFFF
000FFFFFFFFFFFFFFFFFFFFFFFFF
001FFFFFFFFC0000000000000000
003FFFFFFFC00000000000000000
007FFFFFFE000000000000000000
007FFFFFF8000000000000000000
00FFFFFFE0000000000000000000
01FFFFFFC0000000000000000000
01FFFFFF00000000000000000000
03FFFFFE00000000000000000000
03FFFFFC00000000000000000000
07FFFFF800000000000000000000
07FFFFF000000000000000000000
0FFFFFE000000000000000000000
0FFFFFC000000000000000000000
0FFFFFC000000000000000000000
1FFFFF8000000000000000000000
1FFFFF0000000000000000000000
1FFFFF0000000000000000000000
3FFFFE0000000000000000000000
3FFFFE0000000000000000000000
3FFFFC0000000000000000000000
3FFFFC0000000000000000000000
7FFFF80000000000000000000000
7FFFF80000000000000000000000
7FFFF80000000000000000000000
7FFFF00000000000000000000000
7FFFF00000000000000000000000
7FFFF00000000000000000000000
7FFFF00000000000000000000000
FFFFF00000000000000000000000
FFFFE00000000000000000000000
FFFFE00000000000000000000000
FFFFE00000000000000000000000
FFFFE00000000000000000000000
FFFFE00000000000000000000000
FFFFE00000000000000000000000
FFFFE00000000000000000000000
FFFFE00000000000000000000000
FFFFE00000000000000000000000
FFFFE00000000000000000000000
FFFFE00000000000000000000000
7FFFF00000000000000000000000
7FFFF00000000000000000000000
7FFFF00000000000000000000000
7FFFF00000000000000000000000
7FFFF00000000000000000000000
7FFFF80000000000000000000000
7FFFF80000000000000000000000
3FFFF80000000000000000000000
3FFFFC0000000000000000000000
3FFFFC0000000000000000000000
3FFFFC0000000000000000000000
1FFFFE0000000000000000000000
1FFFFE0000000000000000000000
1FFFFF0000000000000000000000
0FFFFF0000000000000000000000
0FFFFF8000000000000000000000
0FFFFFC000000000000000000000
07FFFFC000000000000000000000
07FFFFE000000000000000000000
03FFFFF000000000000000000000
03FFFFF800000000000000000000
01FFFFFC00000000000000000000
01FFFFFE00000000000000000000
00FFFFFF80000000000000000000
007FFFFFC0000000000000000000
007FFFFFF0000000000000000000
003FFFFFF8000000000000000000
003FFFFFFE000000000000000000
001FFFFFFFC00000000000000000
000FFFFFFFFC0000000000000000
0007FFFFFFFFFFFFFFFFFFFFFFFF
0003FFFFFFFFFFFFFFFFFFFFFFFF
0001FFFFFFFFFFFFFFFFFFFFFFFF
0000FFFFFFFFFFFFFFFFFFFFFFFF
00007FFFFFFFFFFFFFFFFFFFFFFF
00003FFFFFFFFFFFFFFFFFFFFFFF
00001FFFFFFFFFFFFFFFFFFFFFFF
00000FFFFFFFFFFFFFFFFFFFFFFF
000007FFFFFFFFFFFFFFFFFFFFFF
000001FFFFFFFFFFFFFFFFFFFFFF
000000FFFFFFFFFFFFFFFFFFFFFF
0000003FFFFFFFFFFFFFFFFFFFFF
0000001FFFFFFFFFFFFFFFFFFFFF
00000007FFFFFFFFFFFFFFFFFFFF
00000001FFFFFFFFFFFFFFFFFFFF
000000003FFFFFFFFFFFFFFFFFFF
000000000FFFFFFFFFFFFFFFFFFF
0000000000FFFFFFFFFFFFFFFFFF
000000000007FFFFFFFFFFFFFFFF
ENDCHAR
STARTCHAR D
ENCODING 68
SWIDTH 879 0
DWIDTH 131 0
BBX 116 108 9 0
BITMAP
FFFFFFFFFFFFFFFFFE000000000000
FFFFFFFFFFFFFFFFFFF80000000000
FFFFFFFFFFFFFFFFFFFF0000000000
FFFFFFFFFFFFFFFFFFFFE000000000
FFFFFFFFFFFFFFFFFFFFFC00000000
FFFFFFFFFFFFFFFFFFFFFF00000000
FFFFFFFFFFFFFFFFFFFFFFC0000000
FFFFFFFFFFFFFFFFFFFFFFF0000000
FFFFFFFFFFFFFFFFFFFFFFF8000000
FFFFFFFFFFFFFFFFFFFFFFFE000000
FFFFFFFFFFFFFFFFFFFFFFFF000000
FFFFFFFFFFFFFFFFFFFFFFFF800000
FFFFFFFFFFFFFFFFFFFFFFFFE00000
FFFFFFFFFFFFFFFFFFFFFFFFF00000
FFFFFFFFFFFFFFFFFFFFFFFFF80000
FFFFFFFFFFFFFFFFFFFFFFFFFC0000
FFFFFFFFFFFFFFFFFFFFFFFFFE0000
FFFFFFFFFFFFFFFFFFFFFFFFFF0000
FFFFFFFFFFFFFFFFFFFFFFFFFF0000
FFFFE0000000000003FFFFFFFF8000
FFFFE00000000000003FFFFFFFC000
FFFFE000000000000007FFFFFFE000
FFFFE000000000000001FFFFFFE000
FFFFE0000000000000007FFFFFF000
FFFFE0000000000000003FFFFFF800
FFFFE0000000000000000FFFFFF800
FFFFE00000000000000007FFFFFC00
FFFFE00000000000000003FFFFFC00
FFFFE00000000000000001FFFFFE00
FFFFE00000000000000000FFFFFE00
FFFFE000000000000000007FFFFF00
FFFFE000000000000000003FFFFF00
FFFFE000000000000000003FFFFF00
FFFFE000000000000000001FFFFF80
FFFFE000000000000000000FFFFF80
FFFFE000000000000000000FFFFF80
FFFFE0000000000000000007FFFFC0
FFFFE0000000000000000007FFFFC0
FFFFE0000000000000000003FFFFC0
FFFFE0000000000000000003FFFFC0
FFFFE0000000000000000001FFFFE0
FFFFE0000000000000000001FFFFE0
FFFFE0000000000000000001FFFFE0
FFFFE0000000000000000000FFFFE0
FFFFE0000000000000000000FFFFE0
FFFFE0000000000000000000FFFFE0
FFFFE0000000000000000000FFFFF0
FFFFE0000000000000000000FFFFF0
FFFFE00000000000000000007FFFF0
FFFFE00000000000000000007FFFF0
FFFFE00000000000000000007FFFF0
FFFFE00000000000000000007FFFF0
FFFFE00000000000000000007FFFF0
FFFFE00000000000000000007FFFF0
FFFFE00000000000000000007FFFF0
FFFFE00000000000000000007FFFF0
FFFFE00000000000000000007FFFF0
FFFFE00000000000000000007FFFF0
FFFFE00000000000000000007FFFF0
FFFFE00000000000000000007FFFF0
FFFFE0000000000000000000FFFFE0
FFFFE0000000000000000000FFFFE0
FFFFE0000000000000000000FFFFE0
FFFFE0000000000000000000FFFFE0
FFFFE0000000000000000000FFFFE0
FFFFE0000000000000000001FFFFE0
FFFFE0000000000000000001FFFFC0
FFFFE0000000000000000001FFFFC0
FFFFE0000000000000000003FFFFC0
FFFFE0000000000000000003FFFFC0
FFFFE0000000000000000007FFFF80
FFFFE0000000000000000007FFFF80
FFFFE000000000000000000FFFFF80
FFFFE000000000000000000FFFFF00
FFFFE000000000000000001FFFFF00
FFFFE000000000000000003FFFFF00
FFFFE000000000000000003FFFFE00
FFFFE000000000000000007FFFFE00
FFFFE00000000000000000FFFFFC00
FFFFE00000000000000001FFFFFC00
FFFFE00000000000000003FFFFF800
FFFFE00000000000000007FFFFF800
FFFFE0000000000000001FFFFFF000
FFFFE0000000000000003FFFFFF000
FFFFE000000000000000FFFFFFE000
FFFFE000000000000001FFFFFFC000
FFFFE00000000000000FFFFFFFC000
FFFFE00000000000003FFFFFFF8000
FFFFE0000000000003FFFFFFFF0000
FFFFFFFFFFFFFFFFFFFFFFFFFE0000
FFFFFFFFFFFFFFFFFFFFFFFFFC0000
FFFFFFFFFFFFFFFFFFFFFFFFFC0000
FFFFFFFFFFFFFFFFFFFFFFFFF80000
FFFFFFFFFFFFFFFFFFFFFFFFF00000
FFFFFFFFFFFFFFFFFFFFFFFFE00000
FFFFFFFFFFFFFFFFFFFFFFFFC00000
FFFFFFFFFFFFFFFFFFFFFFFF000000
FFFFFFFFFFFFFFFFFFFFFFFE000000
FFFFFFFFFFFFFFFFFFFFFFFC000000
FFFFFFFFFFFFFFFFFFFFFFF0000000
FFFFFFFFFFFFFFFFFFFFFFE0000000
FFFFFFFFFFFFFFFFFFFFFF80000000
FFFFFFFFFFFFFFFFFFFFFE00000000
FFFFFFFFFFFFFFFFFFFFF800000000
FFFFFFFFFFFFFFFFFFFFE000000000
FFFFFFFFFFFFFFFFFFFF0000000000
FFFFFFFFFFFFFFFFFFF00000000000
FFFFFFFFFFFFFFFFFE000000000000
ENDCHAR
STARTCHAR E
ENCODING 69
SWIDTH 759 0
DWIDTH 113 0
BBX 97 108 9 0
BITMAP
FFFFFFFFFFFFFFFFFFFFFFFF80
FFFFFFFFFFFFFFFFFFFFFFFF80
FFFFFFFFFFFFFFFFFFFFFFFF80
FFFFFFFFFFFFFFFFFFFFFFFF80
FFFFFFFFFFFFFFFFFFFFFFFF80
FFFFFFFFFFFFFFFFFFFFFFFF80
FFFFFFFFFFFFFFFFFFFFFFFF80
FFFFFFFFFFFFFFFFFFFFFFFF80
FFFFFFFFFFFFFFFFFFFFFFFF80
FFFFFFFFFFFFFFFFFFFFFFFF80
FFFFFFFFFFFFFFFFFFFFFFFF80
FFFFFFFFFFFFFFFFFFFFFFFF80
FFFFFFFFFFFFFFFFFFFFFFFF80
FFFFFFFFFFFFFFFFFFFFFFFF80
FFFFFFFFFFFFFFFFFFFFFFFF80
FFFFFFFFFFFFFFFFFFFFFFFF80
FFFFFFFFFFFFFFFFFFFFFFFF80
FFFFFFFFFFFFFFFFFFFFFFFF80
FFFFFFFFFFFFFFFFFFFFFFFF80
FFFFE000000000000000000000
FFFFE000000000000000000000
FFFFE000000000000000000000
FFFFE000000000000000000000
FFFFE000000000000000000000
FFFFE000000000000000000000
FFFFE000000000000000000000
FFFFE000000000000000000000
FFFFE000000000000000000000
FFFFE000000000000000000000
FFFFE000000000000000000000
FFFFE000000000000000000000
FFFFE000000000000000000000
FFFFE000000000000000000000
FFFFE000000000000000000000
FFFFE000000000000000000000
FFFFE000000000000000000000
FFFFE000000000000000000000
FFFFE000000000000000000000
FFFFE000000000000000000000
FFFFE000000000000000000000
FFFFE000000000000000000000
FFFFE000000000000000000000
FFFFE000000000000000000000
FFFFE000000000000000000000
FFFFE000000000000000000000
FFFFE0007FFFFFFFFFFFFFF800
FFFFE0007FFFFFFFFFFFFFF800
FFFFE0007FFFFFFFFFFFFFF800
FFFFE0007FFFFFFFFFFFFFF800
FFFFE0007FFFFFFFFFFFFFF800
FFFFE0007FFFFFFFFFFFFFF800
FFFFE0007FFFFFFFFFFFFFF800
FFFFE0007FFFFFFFFFFFFFF800
FFFFE0007FFFFFFFFFFFFFF800
FFFFE0007FFFFFFFFFFFFFF800
FFFFE0007FFFFFFFFFFFFFF800
FFFFE0007FFFFFFFFFFFFFF800
FFFFE0007FFFFFFFFFFFFFF800
FFFFE0007FFFFFFFFFFFFFF800
FFFFE0007FFFFFFFFFFFFFF800
FFFFE0007FFFFFFFFFFFFFF800
FFFFE000000000000000000000
FFFFE000000000000000000000
FFFFE000000000000000000000
FFFFE000000000000000000000
FFFFE000000000000000000000
FFFFE000000000000000000000
FFFFE000000000000000000000
FFFFE000000000000000000000
FFFFE000000000000000000000
FFFFE000000000000000000000
FFFFE000000000000000000000
FFFFE000000000000000000000
FFFFE000000000000000000000
FFFFE000000000000000000000
FFFFE000000000000000000000
FFFFE000000000000000000000
FFFFE000000000000000000000
FFFFE000000000000000000000
FFFFE000000000000000000000
FFFFE000000000000000000000
FFFFE000000000000000000000
FFFFE000000000000000000000
FFFFE000000000000000000000
FFFFE000000000000000000000
FFFFE000000000000000000000
FFFFE000000000000000000000
FFFFE000000000000000000000
FFFFE000000000000000000000
FFFFFFFFFFFFFFFFFFFFFFFF80
FFFFFFFFFFFFFFFFFFFFFFFF80
FFFFFFFFFFFFFFFFFFFFFFFF80
FFFFFFFFFFFFFFFFFFFFFFFF80
FFFFFFFFFFFFFFFFFFFFFFFF80
FFFFFFFFFFFFFFFFFFFFFFFF80
FFFFFFFFFFFFFFFFFFFFFFFF80
FFFFFFFFFFFFFFFFFFFFFFFF80
FFFFFFFFFFFFFFFFFFFFFFFF80
FFFFFFFFFFFFFFFFFFFFFFFF80
FFFFFFFFFFFFFFFFFFFFFFFF80
FFFFFFFFFFFFFFFFFFFFFFFF80
FFFFFFFFFFFFFFFFFFFFFFFF80
FFFFFFFFFFFFFFFFFFFFFFFF80
FFFFFFFFFFFFFFFFFFFFFFFF80
FFFFFFFFFFFFFFFFFFFFFFFF80
FFFFFFFFFFFFFFFFFFFFFFFF80
FFFFFFFFFFFFFFFFFFFFFFFF80
FFFFFFFFFFFFFFFFFFFFFFFF80
ENDCHAR
STARTCHAR F
ENCODING 70
SWIDTH 705 0
DWIDTH 105 0
BBX 92 108 9 0
BITMAP
FFFFFFFFFFFFFFFFFFFFFFF0
FFFFFFFFFFFFFFFFFFFFFFF0
FFFFFFFFFFFFFFFFFFFFFFF0
FFFFFFFFFFFFFFFFFFFFFFF0
FFFFFFFFFFFFFFFFFFFFFFF0
FFFFFFFFFFFFFFFFFFFFFFF0
FFFFFFFFFFFFFFFFFFFFFFF0
FFFFFFFFFFFFFFFFFFFFFFF0
FFFFFFFFFFFFFFFFFFFFFFF0
FFFFFFFFFFFFFFFFFFFFFFF0
FFFFFFFFFFFFFFFFFFFFFFF0
FFFFFFFFFFFFFFFFFFFFFFF0
FFFFFFFFFFFFFFFFFFFFFFF0
FFFFFFFFFFFFFFFFFFFFFFF0
FFFFFFFFFFFFFFFFFFFFFFF0
FFFFFFFFFFFFFFFFFFFFFFF0
FFFFFFFFFFFFFFFFFFFFFFF0
FFFFFFFFFFFFFFFFFFFFFFF0
FFFFFFFFFFFFFFFFFFFFFFF0
FFFFE0000000000000000000
FFFFE0000000000000000000
FFFFE0000000000000000000
FFFFE0000000000000000000
FFFFE0000000000000000000
FFFFE0000000000000000000
FFFFE0000000000000000000
FFFFE0000000000000000000
FFFFE0000000000000000000
FFFFE0000000000000000000
FFFFE0000000000000000000
FFFFE0000000000000000000
FFFFE0000000000000000000
FFFFE0000000000000000000
FFFFE0000000000000000000
FFFFE0000000000000000000
FFFFE0000000000000000000
FFFFE0000000000000000000
FFFFE0000000000000000000
FFFFE0000000000000000000
FFFFE0000000000000000000
FFFFE0000000000000000000
FFFFE0000000000000000000
FFFFE0000000000000000000
FFFFE0000000000000000000
FFFFE0000000000000000000
FFFFE0000000000000000000
FFFFE0000000000000000000
FFFFE0007FFFFFFFFFFFFF00
FFFFE0007FFFFFFFFFFFFF00
FFFFE0007FFFFFFFFFFFFF00
FFFFE0007FFFFFFFFFFFFF00
FFFFE0007FFFFFFFFFFFFF00
FFFFE0007FFFFFFFFFFFFF00
FFFFE0007FFFFFFFFFFFFF00
FFFFE0007FFFFFFFFFFFFF00
FFFFE0007FFFFFFFFFFFFF00
FFFFE0007FFFFFFFFFFFFF00
FFFFE0007FFFFFFFFFFFFF00
FFFFE0007FFFFFFFFFFFFF00
FFFFE0007FFFFFFFFFFFFF00
FFFFE0007FFFFFFFFFFFFF00
FFFFE0007FFFFFFFFFFFFF00
FFFFE0007FFFFFFFFFFFFF00
FFFFE0007FFFFFFFFFFFFF00
FFFFE0000000000000000000
FFFFE0000000000000000000
FFFFE0000000000000000000
FFFFE0000000000000000000
FFFFE0000000000000000000
FFFFE0000000000000000000
FFFFE0000000000000000000
FFFFE0000000000000000000
FFFFE0000000000000000000
FFFFE0000000000000000000
FFFFE0000000000000000000
FFFFE0000000000000000000
FFFFE0000000000000000000
FFFFE0000000000000000000
FFFFE0000000000000000000
FFFFE0000000000000000000
FFFFE0000000000000000000
FFFFE0000000000000000000
FFFFE0000000000000000000
FFFFE0000000000000000000
FFFFE0000000000000000000
FFFFE0000000000000000000
FFFFE0000000000000000000
FFFFE0000000000000000000
FFFFE0000000000000000000
FFFFE0000000000000000000
FFFFE0000000000000000000
FFFFE0000000000000000000
FFFFE0000000000000000000
FFFFE0000000000000000000
FFFFE0000000000000000000
FFFFE0000000000000000000
FFFFE0000000000000000000
FFFFE0000000000000000000
FFFFE0000000000000000000
FFFFE0000000000000000000
FFFFE0000000000000000000
FFFFE0000000000000000000
FFFFE0000000000000000000
FFFFE0000000000000000000
FFFFE0000000000000000000
FFFFE0000000000000000000
FFFFE0000000000000000000
FFFFE0000000000000000000
ENDCHAR
STARTCHAR G
ENCODING 71
SWIDTH 888 0
DWIDTH 132 0
BBX 118 108 6 0
BITMAP
000000000007FFFFFFFFFFFFFFFF00
0000000001FFFFFFFFFFFFFFFFFF00
000000000FFFFFFFFFFFFFFFFFFF00
000000007FFFFFFFFFFFFFFFFFFF00
00000003FFFFFFFFFFFFFFFFFFFF00
0000000FFFFFFFFFFFFFFFFFFFFF00
0000003FFFFFFFFFFFFFFFFFFFFF00
000000FFFFFFFFFFFFFFFFFFFFFF00
000001FFFFFFFFFFFFFFFFFFFFFF00
000007FFFFFFFFFFFFFFFFFFFFFF00
00000FFFFFFFFFFFFFFFFFFFFFFF00
00001FFFFFFFFFFFFFFFFFFFFFFF00
00007FFFFFFFFFFFFFFFFFFFFFFF00
0000FFFFFFFFFFFFFFFFFFFFFFFF00
0001FFFFFFFFFFFFFFFFFFFFFFFF00
0003FFFFFFFFFFFFFFFFFFFFFFFF00
0007FFFFFFFFFFFFFFFFFFFFFFFF00
000FFFFFFFFFFFFFFFFFFFFFFFFF00
000FFFFFFFFFFFFFFFFFFFFFFFFF00
001FFFFFFFFC000000000000000000
003FFFFFFFC0000000000000000000
007FFFFFFE00000000000000000000
007FFFFFF800000000000000000000
00FFFFFFE000000000000000000000
01FFFFFFC000000000000000000000
01FFFFFF0000000000000000000000
03FFFFFE0000000000000000000000
03FFFFFC0000000000000000000000
07FFFFF80000000000000000000000
07FFFFF00000000000000000000000
0FFFFFE00000000000000000000000
0FFFFFC00000000000000000000000
0FFFFFC00000000000000000000000
1FFFFF800000000000000000000000
1FFFFF000000000000000000000000
1FFFFF000000000000000000000000
3FFFFE000000000000000000000000
3FFFFE000000000000000000000000
3FFFFC000000000000000000000000
3FFFFC000000000000000000000000
7FFFF8000000000000000000000000
7FFFF8000000000000000000000000
7FFFF8000000000000000000000000
7FFFF0000000000000000000000000
7FFFF0000000000000000000000000
7FFFF00000003FFFFFFFFFFFFFFFFC
7FFFF00000003FFFFFFFFFFFFFFFFC
FFFFF00000003FFFFFFFFFFFFFFFFC
FFFFE00000003FFFFFFFFFFFFFFFFC
FFFFE00000003FFFFFFFFFFFFFFFFC
FFFFE00000003FFFFFFFFFFFFFFFFC
FFFFE00000003FFFFFFFFFFFFFFFFC
FFFFE00000003FFFFFFFFFFFFFFFFC
FFFFE00000003FFFFFFFFFFFFFFFFC
FFFFE00000003FFFFFFFFFFFFFFFFC
FFFFE00000003FFFFFFFFFFFFFFFFC
FFFFE00000003FFFFFFFFFFFFFFFFC
FFFFE00000003FFFFFFFFFFFFFFFFC
FFFFE00000003FFFFFFFFFFFFFFFFC
7FFFF00000003FFFFFFFFFFFFFFFFC
7FFFF00000003FFFFFFFFFFFFFFFFC
7FFFF00000000000000000001FFFFC
7FFFF00000000000000000001FFFFC
7FFFF00000000000000000001FFFFC
7FFFF80000000000000000001FFFFC
7FFFF80000000000000000001FFFFC
3FFFF80000000000000000001FFFFC
3FFFFC0000000000000000001FFFFC
3FFFFC0000000000000000001FFFFC
3FFFFC0000000000000000001FFFFC
1FFFFE0000000000000000001FFFFC
1FFFFE0000000000000000001FFFFC
1FFFFF0000000000000000001FFFFC
0FFFFF0000000000000000001FFFFC
0FFFFF8000000000000000001FFFFC
0FFFFFC000000000000000001FFFFC
07FFFFC000000000000000001FFFFC
07FFFFE000000000000000001FFFFC
03FFFFF000000000000000001FFFFC
03FFFFF800000000000000001FFFFC
01FFFFFC00000000000000001FFFFC
01FFFFFE00000000000000001FFFFC
00FFFFFF80000000000000001FFFFC
007FFFFFC0000000000000001FFFFC
007FFFFFF0000000000000001FFFFC
003FFFFFF8000000000000001FFFFC
003FFFFFFE000000000000001FFFFC
001FFFFFFFC00000000000001FFFFC
000FFFFFFFFC0000000000001FFFFC
0007FFFFFFFFFFFFFFFFFFFFFFFFFC
0003FFFFFFFFFFFFFFFFFFFFFFFFFC
0001FFFFFFFFFFFFFFFFFFFFFFFFFC
0000FFFFFFFFFFFFFFFFFFFFFFFFFC
00007FFFFFFFFFFFFFFFFFFFFFFFFC
00003FFFFFFFFFFFFFFFFFFFFFFFFC
00001FFFFFFFFFFFFFFFFFFFFFFFFC
00000FFFFFFFFFFFFFFFFFFFFFFFFC
000007FFFFFFFFFFFFFFFFFFFFFFFC
000001FFFFFFFFFFFFFFFFFFFFFFFC
000000FFFFFFFFFFFFFFFFFFFFFFFC
0000003FFFFFFFFFFFFFFFFFFFFFFC
0000001FFFFFFFFFFFFFFFFFFFFFFC
00000007FFFFFFFFFFFFFFFFFFFFFC
00000001FFFFFFFFFFFFFFFFFFFFFC
000000003FFFFFFFFFFFFFFFFFFFFC
000000000FFFFFFFFFFFFFFFFFFFFC
0000000000FFFFFFFFFFFFFFFFFFFC
000000000007FFFFFFFFFFFFFFFFFC
ENDCHAR
STARTCHAR H
ENCODING 72
SWIDTH 838 0
DWIDTH 125 0
BBX 106 108 9 0
BITMAP
FFFFE00000000000000000FFFFC0
FFFFE00000000000000000FFFFC0
FFFFE00000000000000000FFFFC0
FFFFE00000000000000000FFFFC0
FFFFE00000000000000000FFFFC0
FFFFE00000000000000000FFFFC0
FFFFE00000000000000000FFFFC0
FFFFE00000000000000000FFFFC0
FFFFE00000000000000000FFFFC0
FFFFE00000000000000000FFFFC0
FFFFE00000000000000000FFFFC0
FFFFE00000000000000000FFFFC0
FFFFE00000000000000000FFFFC0
FFFFE00000000000000000FFFFC0
FFFFE00000000000000000FFFFC0
FFFFE00000000000000000FFFFC0
FFFFE00000000000000000FFFFC0
FFFFE00000000000000000FFFFC0
FFFFE00000000000000000FFFFC0
FFFFE00000000000000000FFFFC0
FFFFE00000000000000000FFFFC0
FFFFE00000000000000000FFFFC0
FFFFE00000000000000000FFFFC0
FFFFE00000000000000000FFFFC0
FFFFE00000000000000000FFFFC0
FFFFE00000000000000000FFFFC0
FFFFE00000000000000000FFFFC0
FFFFE00000000000000000FFFFC0
FFFFE00000000000000000FFFFC0
FFFFE00000000000000000FFFFC0
FFFFE00000000000000000FFFFC0
FFFFE00000000000000000FFFFC0
FFFFE00000000000000000FFFFC0
FFFFE00000000000000000FFFFC0
FFFFE00000000000000000FFFFC0
FFFFE00000000000000000FFFFC0
FFFFE00000000000000000FFFFC0
FFFFE00000000000000000FFFFC0
FFFFE00000000000000000FFFFC0
FFFFE00000000000000000FFFFC0
FFFFE00000000000000000FFFFC0
FFFFE00000000000000000FFFFC0
FFFFE00000000000000000FFFFC0
FFFFE00000000000000000FFFFC0
FFFFE0007FFFFFFFFFFFFFFFFFC0
FFFFE0007FFFFFFFFFFFFFFFFFC0
FFFFE0007FFFFFFFFFFFFFFFFFC0
FFFFE0007FFFFFFFFFFFFFFFFFC0
FFFFE0007FFFFFFFFFFFFFFFFFC0
FFFFE0007FFFFFFFFFFFFFFFFFC0
FFFFE0007FFFFFFFFFFFFFFFFFC0
FFFFE0007FFFFFFFFFFFFFFFFFC0
FFFFE0007FFFFFFFFFFFFFFFFFC0
FFFFE0007FFFFFFFFFFFFFFFFFC0
FFFFE0007FFFFFFFFFFFFFFFFFC0
FFFFE0007FFFFFFFFFFFFFFFFFC0
FFFFE0007FFFFFFFFFFFFFFFFFC0
FFFFE0007FFFFFFFFFFFFFFFFFC0
FFFFE0007FFFFFFFFFFFFFFFFFC0
FFFFE0007FFFFFFFFFFFFFFFFFC0
FFFFE0007FFFFFFFFFFFFFFFFFC0
FFFFE00000000000000000FFFFC0
FFFFE00000000000000000FFFFC0
FFFFE00000000000000000FFFFC0
FFFFE00000000000000000FFFFC0
FFFFE00000000000000000FFFFC0
FFFFE00000000000000000FFFFC0
FFFFE00000000000000000FFFFC0
FFFFE00000000000000000FFFFC0
FFFFE00000000000000000FFFFC0
FFFFE00000000000000000FFFFC0
FFFFE00000000000000000FFFFC0
FFFFE00000000000000000FFFFC0
FFFFE00000000000000000FFFFC0
FFFFE00000000000000000FFFFC0
FFFFE00000000000000000FFFFC0
FFFFE00000000000000000FFFFC0
FFFFE00000000000000000FFFFC0
FFFFE00000000000000000FFFFC0
FFFFE00000000000000000FFFFC0
FFFFE00000000000000000FFFFC0
FFFFE00000000000000000FFFFC0
FFFFE00000000000000000FFFFC0
FFFFE00000000000000000FFFFC0
FFFFE00000000000000000FFFFC0
FFFFE00000000000000000FFFFC0
FFFFE00000000000000000FFFFC0
FFFFE00000000000000000FFFFC0
FFFFE00000000000000000FFFFC0
FFFFE00000000000000000FFFFC0
FFFFE00000000000000000FFFFC0
FFFFE00000000000000000FFFFC0
FFFFE00000000000000000FFFFC0
FFFFE00000000000000000FFFFC0
FFFFE00000000000000000FFFFC0
FFFFE00000000000000000FFFFC0
FFFFE00000000000000000FFFFC0
FFFFE00000000000000000FFFFC0
FFFFE00000000000000000FFFFC0
FFFFE00000000000000000FFFFC0
FFFFE00000000000000000FFFFC0
FFFFE00000000000000000FFFFC0
FFFFE00000000000000000FFFFC0
FFFFE00000000000000000FFFFC0
FFFFE00000000000000000FFFFC0
FFFFE00000000000000000FFFFC0
FFFFE00000000000000000FFFFC0
FFFFE00000000000000000FFFFC0
ENDCHAR
STARTCHAR I
ENCODING 73
SWIDTH 267 0
DWIDTH 40 0
BBX 19 108 10 0
BITMAP
FFFFE0
FFFFE0
FFFFE0
FFFFE0
FFFFE0
FFFFE0
FFFFE0
FFFFE0
FFFFE0
FFFFE0
FFFFE0
FFFFE0
FFFFE0
FFFFE0
FFFFE0
FFFFE0
FFFFE0
FFFFE0
FFFFE0
FFFFE0
FFFFE0
FFFFE0
FFFFE0
FFFFE0
FFFFE0
FFFFE0
FFFFE0
FFFFE0
FFFFE0
FFFFE0
FFFFE0
FFFFE0
FFFFE0
FFFFE0
FFFFE0
FFFFE0
FFFFE0
FFFFE0
FFFFE0
FFFFE0
FFFFE0
FFFFE0
FFFFE0
FFFFE0
FFFFE0
FFFFE0
FFFFE0
FFFFE0
FFFFE0
FFFFE0
FFFFE0
FFFFE0
FFFFE0
FFFFE0
FFFFE0
FFFFE0
FFFFE0
FFFFE0
FFFFE0
FFFFE0
FFFFE0
FFFFE0
FFFFE0
FFFFE0
FFFFE0
FFFFE0
FFFFE0
FFFFE0
FFFFE0
FFFFE0
FFFFE0
FFFFE0
FFFFE0
FFFFE0
FFFFE0
FFFFE0
FFFFE0
FFFFE0
FFFFE0
FFFFE0
FFFFE0
FFFFE0
FFFFE0
FFFFE0
FFFFE0
FFFFE0
FFFFE0
FFFFE0
FFFFE0
FFFFE0
FFFFE0
FFFFE0
FFFFE0
FFFFE0
FFFFE0
FFFFE0
FFFFE0
FFFFE0
FFFFE0
FFFFE0
FFFFE0
FFFFE0
FFFFE0
FFFFE0
FFFFE0
FFFFE0
FFFFE0
FFFFE0
ENDCHAR
STARTCHAR J
ENCODING 74
SWIDTH 708 0
DWIDTH 105 0
BBX 94 108 4 0
BITMAP
0000000000000000001FFFFC
0000000000000000001FFFFC
0000000000000000001FFFFC
0000000000000000001FFFFC
0000000000000000001FFFFC
0000000000000000001FFFFC
0000000000000000001FFFFC
0000000000000000001FFFFC
0000000000000000001FFFFC
0000000000000000001FFFFC
0000000000000000001FFFFC
0000000000000000001FFFFC
0000000000000000001FFFFC
0000000000000000001FFFFC
0000000000000000001FFFFC
0000000000000000001FFFFC
0000000000000000001FFFFC
0000000000000000001FFFFC
0000000000000000001FFFFC
0000000000000000001FFFFC
0000000000000000001FFFFC
0000000000000000001FFFFC
0000000000000000001FFFFC
0000000000000000001FFFFC
0000000000000000001FFFFC
0000000000000000001FFFFC
0000000000000000001FFFFC
0000000000000000001FFFFC
0000000000000000001FFFFC
0000000000000000001FFFFC
0000000000000000001FFFFC
0000000000000000001FFFFC
0000000000000000001FFFFC
0000000000000000001FFFFC
0000000000000000001FFFFC
0000000000000000001FFFFC
0000000000000000001FFFFC
0000000000000000001FFFFC
0000000000000000001FFFFC
0000000000000000001FFFFC
0000000000000000001FFFFC
0000000000000000001FFFFC
0000000000000000001FFFFC
0000000000000000001FFFFC
0000000000000000001FFFFC
0000000000000000001FFFFC
0000000000000000001FFFFC
0000000000000000001FFFFC
0000000000000000001FFFFC
0000000000000000001FFFFC
0000000000000000001FFFFC
0000000000000000001FFFFC
0000000000000000001FFFFC
0000000000000000001FFFFC
0000000000000000001FFFFC
0000000000000000001FFFFC
0000000000000000001FFFFC
0000000000000000001FFFFC
0000000000000000001FFFFC
0000000000000000001FFFFC
0000000000000000001FFFFC
0000000000000000001FFFFC
0000000000000000001FFFFC
0000000000000000001FFFFC
0000000000000000003FFFFC
0000000000000000003FFFF8
0000000000000000003FFFF8
0000000000000000003FFFF8
0000000000000000003FFFF8
0000000000000000003FFFF8
0000000000000000007FFFF8
0000000000000000007FFFF8
0000000000000000007FFFF8
000000000000000000FFFFF0
000000000000000000FFFFF0
000000000000000001FFFFF0
000000000000000001FFFFF0
000000000000000003FFFFE0
000000000000000003FFFFE0
000000000000000007FFFFE0
00000000000000000FFFFFE0
00000000000000001FFFFFC0
00000000000000003FFFFFC0
0000000000000000FFFFFF80
0000000000000001FFFFFF80
0000000000000007FFFFFF00
000000000000003FFFFFFF00
00000000000001FFFFFFFE00
0000000000007FFFFFFFFE00
FFFFFFFFFFFFFFFFFFFFFC00
FFFFFFFFFFFFFFFFFFFFF800
FFFFFFFFFFFFFFFFFFFFF800
FFFFFFFFFFFFFFFFFFFFF000
FFFFFFFFFFFFFFFFFFFFE000
FFFFFFFFFFFFFFFFFFFFC000
FFFFFFFFFFFFFFFFFFFF8000
FFFFFFFFFFFFFFFFFFFF0000
FFFFFFFFFFFFFFFFFFFE0000
FFFFFFFFFFFFFFFFFFF80000
FFFFFFFFFFFFFFFFFFF00000
FFFFFFFFFFFFFFFFFFC00000
FFFFFFFFFFFFFFFFFF800000
FFFFFFFFFFFFFFFFFC000000
FFFFFFFFFFFFFFFFF0000000
FFFFFFFFFFFFFFFF80000000
FFFFFFFFFFFFFFFC00000000
FFFFFFFFFFFFFF8000000000
FFFFFFFFFFFFC00000000000
ENDCHAR
STARTCHAR K
ENCODING 75
SWIDTH 875 0
DWIDTH 130 0
BBX 119 108 9 0
BITMAP
FFFFE00000000000000001FFFFFFF0
FFFFE00000000000000007FFFFFFC0
FFFFE0000000000000000FFFFFFF80
FFFFE0000000000000001FFFFFFF00
FFFFE0000000000000007FFFFFFC00
FFFFE000000000000000FFFFFFF800
FFFFE000000000000001FFFFFFF000
FFFFE000000000000007FFFFFFC000
FFFFE00000000000000FFFFFFF8000
FFFFE00000000000001FFFFFFF0000
FFFFE00000000000003FFFFFFC0000
FFFFE0000000000000FFFFFFF80000
FFFFE0000000000001FFFFFFF00000
FFFFE0000000000003FFFFFFC00000
FFFFE000000000000FFFFFFF800000
FFFFE000000000001FFFFFFF000000
FFFFE000000000003FFFFFFC000000
FFFFE00000000000FFFFFFF8000000
FFFFE00000000001FFFFFFF0000000
FFFFE00000000003FFFFFFE0000000
FFFFE0000000000FFFFFFF80000000
FFFFE0000000001FFFFFFF00000000
FFFFE0000000003FFFFFFE00000000
FFFFE0000000007FFFFFF800000000
FFFFE000000001FFFFFFF000000000
FFFFE000000003FFFFFFE000000000
FFFFE000000007FFFFFF8000000000
FFFFE00000001FFFFFFF0000000000
FFFFE00000003FFFFFFE0000000000
FFFFE00000007FFFFFF80000000000
FFFFE0000001FFFFFFF00000000000
FFFFE0000003FFFFFFE00000000000
FFFFE0000007FFFFFF800000000000
FFFFE000000FFFFFFF000000000000
FFFFE000003FFFFFFE000000000000
FFFFE000007FFFFFF8000000000000
FFFFE00000FFFFFFF0000000000000
FFFFE00003FFFFFFE0000000000000
FFFFE00007FFFFFF80000000000000
FFFFE0000FFFFFFF00000000000000
FFFFE0003FFFFFFE00000000000000
FFFFE0007FFFFFF800000000000000
FFFFE000FFFFFFF000000000000000
FFFFE003FFFFFFE000000000000000
FFFFE007FFFFFF8000000000000000
FFFFE00FFFFFFF0000000000000000
FFFFE01FFFFFFE0000000000000000
FFFFE03FFFFFF80000000000000000
FFFFE03FFFFFF00000000000000000
FFFFE07FFFFFE00000000000000000
FFFFE07FFFFFC00000000000000000
FFFFE07FFFFF000000000000000000
FFFFE07FFFFE000000000000000000
FFFFE07FFFFC000000000000000000
FFFFE07FFFFE000000000000000000
FFFFE07FFFFF000000000000000000
FFFFE03FFFFF800000000000000000
FFFFE03FFFFFE00000000000000000
FFFFE01FFFFFF00000000000000000
FFFFE00FFFFFF80000000000000000
FFFFE007FFFFFE0000000000000000
FFFFE003FFFFFF0000000000000000
FFFFE000FFFFFF8000000000000000
FFFFE0007FFFFFE000000000000000
FFFFE0003FFFFFF000000000000000
FFFFE0001FFFFFF800000000000000
FFFFE00007FFFFFE00000000000000
FFFFE00003FFFFFF00000000000000
FFFFE00001FFFFFF80000000000000
FFFFE000007FFFFFE0000000000000
FFFFE000003FFFFFF0000000000000
FFFFE000001FFFFFF8000000000000
FFFFE000000FFFFFFE000000000000
FFFFE0000003FFFFFF000000000000
FFFFE0000001FFFFFFC00000000000
FFFFE0000000FFFFFFE00000000000
FFFFE00000007FFFFFF00000000000
FFFFE00000001FFFFFFC0000000000
FFFFE00000000FFFFFFE0000000000
FFFFE000000007FFFFFF0000000000
FFFFE000000001FFFFFFC000000000
FFFFE000000000FFFFFFE000000000
FFFFE0000000007FFFFFF000000000
FFFFE0000000003FFFFFFC00000000
FFFFE0000000000FFFFFFE00000000
FFFFE00000000007FFFFFF00000000
FFFFE00000000003FFFFFFC0000000
FFFFE00000000001FFFFFFE0000000
FFFFE000000000007FFFFFF0000000
FFFFE000000000003FFFFFFC000000
FFFFE000000000001FFFFFFE000000
FFFFE0000000000007FFFFFF000000
FFFFE0000000000003FFFFFFC00000
FFFFE0000000000001FFFFFFE00000
FFFFE0000000000000FFFFFFF00000
FFFFE00000000000003FFFFFFC0000
FFFFE00000000000001FFFFFFE0000
FFFFE00000000000000FFFFFFF0000
FFFFE000000000000007FFFFFFC000
FFFFE000000000000001FFFFFFE000
FFFFE000000000000000FFFFFFF000
FFFFE0000000000000007FFFFFFC00
FFFFE0000000000000001FFFFFFE00
FFFFE0000000000000000FFFFFFF00
FFFFE00000000000000007FFFFFFC0
FFFFE00000000000000003FFFFFFE0
FFFFE00000000000000000FFFFFFF8
FFFFE000000000000000007FFFFFFE
ENDCHAR
STARTCHAR L
ENCODING 76
SWIDTH 707 0
DWIDTH 105 0
BBX 92 108 9 0
BITMAP
FFFFE0000000000000000000
FFFFE0000000000000000000
FFFFE0000000000000000000
FFFFE0000000000000000000
FFFFE0000000000000000000
FFFFE0000000000000000000
FFFFE0000000000000000000
FFFFE0000000000000000000
FFFFE0000000000000000000
FFFFE0000000000000000000
FFFFE0000000000000000000
FFFFE0000000000000000000
FFFFE0000000000000000000
FFFFE0000000000000000000
FFFFE0000000000000000000
FFFFE0000000000000000000
FFFFE0000000000000000000
FFFFE0000000000000000000
FFFFE0000000000000000000
FFFFE0000000000000000000
FFFFE0000000000000000000
FFFFE0000000000000000000
FFFFE0000000000000000000
FFFFE0000000000000000000
FFFFE0000000000000000000
FFFFE0000000000000000000
FFFFE0000000000000000000
FFFFE0000000000000000000
FFFFE0000000000000000000
FFFFE0000000000000000000
FFFFE0000000000000000000
FFFFE0000000000000000000
FFFFE0000000000000000000
FFFFE0000000000000000000
FFFFE0000000000000000000
FFFFE0000000000000000000
FFFFE0000000000000000000
FFFFE0000000000000000000
FFFFE0000000000000000000
FFFFE0000000000000000000
FFFFE0000000000000000000
FFFFE0000000000000000000
FFFFE0000000000000000000
FFFFE0000000000000000000
FFFFE0000000000000000000
FFFFE0000000000000000000
FFFFE0000000000000000000
FFFFE0000000000000000000
FFFFE0000000000000000000
FFFFE0000000000000000000
FFFFE0000000000000000000
FFFFE0000000000000000000
FFFFE0000000000000000000
FFFFE0000000000000000000
FFFFE0000000000000000000
FFFFE0000000000000000000
FFFFE0000000000000000000
FFFFE0000000000000000000
FFFFE0000000000000000000
FFFFE0000000000000000000
FFFFE0000000000000000000
FFFFE0000000000000000000
FFFFE0000000000000000000
FFFFE0000000000000000000
FFFFE0000000000000000000
FFFFE0000000000000000000
FFFFE0000000000000000000
FFFFE0000000000000000000
FFFFE0000000000000000000
FFFFE0000000000000000000
FFFFE0000000000000000000
FFFFE0000000000000000000
FFFFE0000000000000000000
FFFFE0000000000000000000
FFFFE0000000000000000000
FFFFE0000000000000000000
FFFFE0000000000000000000
FFFFE0000000000000000000
FFFFE0000000000000000000
FFFFE0000000000000000000
FFFFE0000000000000000000
FFFFE0000000000000000000
FFFFE0000000000000000000
FFFFE0000000000000000000
FFFFE0000000000000000000
FFFFE0000000000000000000
FFFFE0000000000000000000
FFFFE0000000000000000000
FFFFE0000000000000000000
FFFFFFFFFFFFFFFFFFFFFFF0
FFFFFFFFFFFFFFFFFFFFFFF0
FFFFFFFFFFFFFFFFFFFFFFF0
FFFFFFFFFFFFFFFFFFFFFFF0
FFFFFFFFFFFFFFFFFFFFFFF0
FFFFFFFFFFFFFFFFFFFFFFF0
FFFFFFFFFFFFFFFFFFFFFFF0
FFFFFFFFFFFFFFFFFFFFFFF0
FFFFFFFFFFFFFFFFFFFFFFF0
FFFFFFFFFFFFFFFFFFFFFFF0
FFFFFFFFFFFFFFFFFFFFFFF0
FFFFFFFFFFFFFFFFFFFFFFF0
FFFFFFFFFFFFFFFFFFFFFFF0
FFFFFFFFFFFFFFFFFFFFFFF0
FFFFFFFFFFFFFFFFFFFFFFF0
FFFFFFFFFFFFFFFFFFFFFFF0
FFFFFFFFFFFFFFFFFFFFFFF0
FFFFFFFFFFFFFFFFFFFFFFF0
FFFFFFFFFFFFFFFFFFFFFFF0
ENDCHAR
STARTCHAR M
ENCODING 77
SWIDTH 1115 0
DWIDTH 166 0
BBX 159 110 4 -2
BITMAP
000000007F00000000000000000001F800000000
00000001FFC0000000000000000007FE00000000
00000003FFF000000000000000000FFF80000000
00000007FFF800000000000000001FFF80000000
00000007FFF800000000000000003FFFC0000000
0000000FFFFC00000000000000007FFFE0000000
0000000FFFFC00000000000000007FFFE0000000
0000001FFFFE00000000000000007FFFE0000000
0000001FFFFE0000000000000000FFFFF0000000
0000001FFFFF0000000000000000FFFFF0000000
0000001FFFFF0000000000000001FFFFF0000000
0000003FFFFF8000000000000001FFFFF0000000
0000003FFFFF8000000000000003FFFFF8000000
0000003FFFFFC000000000000003FFFFF8000000
0000003FFFFFC000000000000007FFFFF8000000
0000007FFFFFC000000000000007FFFFF8000000
0000007FFFFFE000000000000007FFFFFC000000
0000007FFFFFE00000000000000FFFFFFC000000
000000FFFFFFF00000000000000FFFFFFC000000
000000FFFFFFF00000000000001FFFFFFE000000
000000FFFFFFF80000000000001FFFFFFE000000
000000FFFFFFF80000000000003FFFFFFE000000
000001FFFFFFFC0000000000003FFFFFFE000000
000001FFFFFFFC0000000000007FFFFFFF000000
000001FFFFFFFC0000000000007FFFFFFF000000
000003FFFFFFFE0000000000007FFFFFFF000000
000003FFFFFFFE000000000000FFFFFFFF000000
000003FFFFFFFF000000000000FFFFFFFF800000
000003FFFFFFFF000000000001FFFFFFFF800000
000007FFFFFFFF800000000001FFFFFFFF800000
000007FFFFFFFF800000000003FFFFFFFFC00000
000007FFFFFFFFC00000000003FFFFFFFFC00000
000007FFFFFFFFC00000000003FFFFFFFFC00000
00000FFFFFFFFFC00000000007FFFEFFFFC00000
00000FFFFFFFFFE00000000007FFFEFFFFE00000
00000FFFFCFFFFE0000000000FFFFEFFFFE00000
00001FFFFCFFFFF0000000000FFFFCFFFFE00000
00001FFFFC7FFFF0000000001FFFFC7FFFF00000
00001FFFF87FFFF8000000001FFFF87FFFF00000
00001FFFF83FFFF8000000003FFFF87FFFF00000
00003FFFF83FFFF8000000003FFFF03FFFF00000
00003FFFF81FFFFC000000003FFFF03FFFF80000
00003FFFF01FFFFC000000007FFFE03FFFF80000
00007FFFF01FFFFE000000007FFFE03FFFF80000
00007FFFF00FFFFE00000000FFFFE01FFFF80000
00007FFFF00FFFFF00000000FFFFC01FFFFC0000
00007FFFE007FFFF00000001FFFFC01FFFFC0000
0000FFFFE007FFFF80000001FFFF801FFFFC0000
0000FFFFE003FFFF80000003FFFF800FFFFE0000
0000FFFFC003FFFF80000003FFFF000FFFFE0000
0000FFFFC001FFFFC0000003FFFF000FFFFE0000
0001FFFFC001FFFFC0000007FFFE0007FFFE0000
0001FFFFC001FFFFE0000007FFFE0007FFFF0000
0001FFFF8000FFFFE000000FFFFE0007FFFF0000
0003FFFF8000FFFFF000000FFFFC0007FFFF0000
0003FFFF80007FFFF000001FFFFC0003FFFF8000
0003FFFF00007FFFF800001FFFF80003FFFF8000
0003FFFF00003FFFF800003FFFF80003FFFF8000
0007FFFF00003FFFF800003FFFF00001FFFF8000
0007FFFF00003FFFFC00003FFFF00001FFFFC000
0007FFFE00001FFFFC00007FFFE00001FFFFC000
000FFFFE00001FFFFE00007FFFE00001FFFFC000
000FFFFE00000FFFFE0000FFFFE00000FFFFC000
000FFFFE00000FFFFF0000FFFFC00000FFFFE000
000FFFFC000007FFFF0001FFFFC00000FFFFE000
001FFFFC000007FFFF8001FFFF800000FFFFE000
001FFFFC000003FFFF8003FFFF8000007FFFF000
001FFFF8000003FFFF8003FFFF0000007FFFF000
001FFFF8000003FFFFC003FFFF0000007FFFF000
003FFFF8000001FFFFC007FFFE0000003FFFF000
003FFFF8000001FFFFE007FFFE0000003FFFF800
003FFFF0000000FFFFE00FFFFE0000003FFFF800
007FFFF0000000FFFFF00FFFFC0000003FFFF800
007FFFF00000007FFFF01FFFFC0000001FFFF800
007FFFF00000007FFFF01FFFF80000001FFFFC00
007FFFE00000003FFFF81FFFF80000001FFFFC00
00FFFFE00000003FFFF83FFFF00000001FFFFC00
00FFFFE00000003FFFFC3FFFF00000000FFFFE00
00FFFFC00000001FFFFC7FFFE00000000FFFFE00
01FFFFC00000001FFFFE7FFFE00000000FFFFE00
01FFFFC00000000FFFFEFFFFE000000007FFFE00
01FFFFC00000000FFFFFFFFFC000000007FFFF00
01FFFF8000000007FFFFFFFFC000000007FFFF00
03FFFF8000000007FFFFFFFF8000000007FFFF00
03FFFF8000000003FFFFFFFF8000000003FFFF80
03FFFF0000000003FFFFFFFF0000000003FFFF80
03FFFF0000000003FFFFFFFF0000000003FFFF80
07FFFF0000000001FFFFFFFE0000000001FFFF80
07FFFF0000000001FFFFFFFE0000000001FFFFC0
07FFFE0000000000FFFFFFFE0000000001FFFFC0
0FFFFE0000000000FFFFFFFC0000000001FFFFC0
0FFFFE00000000007FFFFFFC0000000000FFFFC0
0FFFFE00000000007FFFFFF80000000000FFFFE0
0FFFFC00000000007FFFFFF80000000000FFFFE0
1FFFFC00000000003FFFFFF00000000000FFFFE0
1FFFFC00000000003FFFFFF000000000007FFFF0
1FFFF800000000001FFFFFE000000000007FFFF0
3FFFF800000000001FFFFFE000000000007FFFF0
3FFFF800000000000FFFFFE000000000003FFFF0
3FFFF800000000000FFFFFC000000000003FFFF8
3FFFF0000000000007FFFFC000000000003FFFF8
7FFFF0000000000007FFFF8000000000003FFFF8
7FFFF0000000000007FFFF8000000000001FFFF8
7FFFE0000000000003FFFF0000000000001FFFFC
7FFFE0000000000003FFFF0000000000001FFFFC
FFFFE0000000000001FFFE0000000000000FFFFC
FFFFE0000000000000FFFC0000000000000FFFFE
FFFFC00000000000007FF80000000000000FFFFE
0000000000000000001FF0000000000000000000
0000000000000000000300000000000000000000
ENDCHAR
STARTCHAR N
ENCODING 78
SWIDTH 873 0
DWIDTH 130 0
BBX 112 108 9 0
BITMAP
03F800000000000000000003FFFF
0FFE00000000000000000003FFFF
1FFF00000000000000000003FFFF
3FFF80000000000000000003FFFF
7FFFC0000000000000000003FFFF
7FFFE0000000000000000003FFFF
7FFFF0000000000000000003FFFF
FFFFF8000000000000000003FFFF
FFFFFC000000000000000003FFFF
FFFFFE000000000000000003FFFF
FFFFFF800000000000000003FFFF
FFFFFFC00000000000000003FFFF
FFFFFFE00000000000000003FFFF
FFFFFFF00000000000000003FFFF
FFFFFFF80000000000000003FFFF
FFFFFFFC0000000000000003FFFF
FFFFFFFE0000000000000003FFFF
FFFFFFFF0000000000000003FFFF
FFFFFFFF8000000000000003FFFF
FFFFFFFFC000000000000003FFFF
FFFFFFFFE000000000000003FFFF
FFFFFFFFF000000000000003FFFF
FFFFFFFFF800000000000003FFFF
FFFFFFFFFC00000000000003FFFF
FFFFFFFFFE00000000000003FFFF
FFFFFFFFFF00000000000003FFFF
FFFFFFFFFF80000000000003FFFF
FFFFFFFFFFC0000000000003FFFF
FFFFFFFFFFE0000000000003FFFF
FFFFFFFFFFF0000000000003FFFF
FFFFFFFFFFF8000000000003FFFF
FFFFDFFFFFFC000000000003FFFF
FFFFCFFFFFFE000000000003FFFF
FFFFC7FFFFFF000000000003FFFF
FFFFC3FFFFFF800000000003FFFF
FFFFC1FFFFFFC00000000003FFFF
FFFFC0FFFFFFE00000000003FFFF
FFFFC07FFFFFF00000000003FFFF
FFFFC01FFFFFF80000000003FFFF
FFFFC00FFFFFFC0000000003FFFF
FFFFC007FFFFFE0000000003FFFF
FFFFC003FFFFFF0000000003FFFF
FFFFC001FFFFFF8000000003FFFF
FFFFC000FFFFFFC000000003FFFF
FFFFC0007FFFFFE000000003FFFF
FFFFC0003FFFFFF000000003FFFF
FFFFC0001FFFFFF800000003FFFF
FFFFC0000FFFFFFC00000003FFFF
FFFFC00007FFFFFE00000003FFFF
FFFFC00003FFFFFF00000003FFFF
FFFFC00001FFFFFF80000003FFFF
FFFFC00000FFFFFFC0000003FFFF
FFFFC000007FFFFFE0000003FFFF
FFFFC000003FFFFFF0000003FFFF
FFFFC000001FFFFFF8000003FFFF
FFFFC000000FFFFFFE000003FFFF
FFFFC0000007FFFFFF000003FFFF
FFFFC0000003FFFFFF800003FFFF
FFFFC0000001FFFFFFC00003FFFF
FFFFC0000000FFFFFFE00003FFFF
FFFFC00000007FFFFFF00003FFFF
FFFFC00000003FFFFFF80003FFFF
FFFFC00000001FFFFFFC0003FFFF
FFFFC00000000FFFFFFE0003FFFF
FFFFC000000007FFFFFF0003FFFF
FFFFC000000003FFFFFF8003FFFF
FFFFC000000001FFFFFFC003FFFF
FFFFC000000000FFFFFFE003FFFF
FFFFC0000000007FFFFFF003FFFF
FFFFC0000000003FFFFFF803FFFF
FFFFC0000000001FFFFFFC03FFFF
FFFFC00000000007FFFFFE03FFFF
FFFFC00000000003FFFFFF03FFFF
FFFFC00000000001FFFFFF83FFFF
FFFFC00000000000FFFFFFC3FFFF
FFFFC000000000007FFFFFE3FFFF
FFFFC000000000003FFFFFF3FFFF
FFFFC000000000001FFFFFFBFFFF
FFFFC000000000000FFFFFFFFFFF
FFFFC0000000000007FFFFFFFFFF
FFFFC0000000000003FFFFFFFFFF
FFFFC0000000000001FFFFFFFFFF
FFFFC0000000000000FFFFFFFFFF
FFFFC00000000000007FFFFFFFFF
FFFFC00000000000003FFFFFFFFF
FFFFC00000000000001FFFFFFFFF
FFFFC00000000000000FFFFFFFFF
FFFFC000000000000007FFFFFFFF
FFFFC000000000000003FFFFFFFF
FFFFC000000000000001FFFFFFFF
FFFFC000000000000000FFFFFFFF
FFFFC0000000000000007FFFFFFF
FFFFC0000000000000003FFFFFFF
FFFFC0000000000000001FFFFFFF
FFFFC0000000000000000FFFFFFF
FFFFC00000000000000007FFFFFF
FFFFC00000000000000003FFFFFF
FFFFC00000000000000001FFFFFF
FFFFC00000000000000000FFFFFF
FFFFC000000000000000007FFFFF
FFFFC000000000000000003FFFFF
FFFFC000000000000000001FFFFF
FFFFC000000000000000000FFFFE
FFFFC0000000000000000007FFFE
FFFFC0000000000000000001FFFC
FFFFC0000000000000000000FFF8
FFFFC00000000000000000007FF0
FFFFC00000000000000000001FC0
ENDCHAR
STARTCHAR O
ENCODING 79
SWIDTH 968 0
DWIDTH 144 0
BBX 132 108 6 0
BITMAP
000000000007FFFFFFFFFE000000000000
0000000001FFFFFFFFFFFFF80000000000
000000000FFFFFFFFFFFFFFF8000000000
000000007FFFFFFFFFFFFFFFF000000000
00000003FFFFFFFFFFFFFFFFFC00000000
0000000FFFFFFFFFFFFFFFFFFF80000000
0000003FFFFFFFFFFFFFFFFFFFC0000000
000000FFFFFFFFFFFFFFFFFFFFF0000000
000001FFFFFFFFFFFFFFFFFFFFFC000000
000007FFFFFFFFFFFFFFFFFFFFFE000000
00000FFFFFFFFFFFFFFFFFFFFFFF800000
00001FFFFFFFFFFFFFFFFFFFFFFFC00000
00007FFFFFFFFFFFFFFFFFFFFFFFE00000
0000FFFFFFFFFFFFFFFFFFFFFFFFF00000
0001FFFFFFFFFFFFFFFFFFFFFFFFF80000
0003FFFFFFFFFFFFFFFFFFFFFFFFFC0000
0007FFFFFFFFFFFFFFFFFFFFFFFFFE0000
000FFFFFFFFFFFFFFFFFFFFFFFFFFF0000
000FFFFFFFFFFFFFFFFFFFFFFFFFFF8000
001FFFFFFFFC0000000003FFFFFFFFC000
003FFFFFFFC000000000003FFFFFFFC000
007FFFFFFE00000000000007FFFFFFE000
007FFFFFF800000000000001FFFFFFF000
00FFFFFFE0000000000000007FFFFFF000
01FFFFFFC0000000000000001FFFFFF800
01FFFFFF00000000000000000FFFFFFC00
03FFFFFE000000000000000007FFFFFC00
03FFFFFC000000000000000003FFFFFE00
07FFFFF8000000000000000000FFFFFE00
07FFFFF0000000000000000000FFFFFF00
0FFFFFE00000000000000000007FFFFF00
0FFFFFC00000000000000000003FFFFF00
0FFFFFC00000000000000000001FFFFF80
1FFFFF800000000000000000000FFFFF80
1FFFFF000000000000000000000FFFFFC0
1FFFFF0000000000000000000007FFFFC0
3FFFFE0000000000000000000007FFFFC0
3FFFFE0000000000000000000003FFFFC0
3FFFFC0000000000000000000003FFFFE0
3FFFFC0000000000000000000001FFFFE0
7FFFF80000000000000000000001FFFFE0
7FFFF80000000000000000000001FFFFE0
7FFFF80000000000000000000000FFFFE0
7FFFF00000000000000000000000FFFFF0
7FFFF00000000000000000000000FFFFF0
7FFFF000000000000000000000007FFFF0
7FFFF000000000000000000000007FFFF0
FFFFF000000000000000000000007FFFF0
FFFFE000000000000000000000007FFFF0
FFFFE000000000000000000000007FFFF0
FFFFE000000000000000000000007FFFF0
FFFFE000000000000000000000007FFFF0
FFFFE000000000000000000000007FFFF0
FFFFE000000000000000000000007FFFF0
FFFFE000000000000000000000007FFFF0
FFFFE000000000000000000000007FFFF0
FFFFE000000000000000000000007FFFF0
FFFFE000000000000000000000007FFFF0
FFFFE000000000000000000000007FFFF0
7FFFF000000000000000000000007FFFF0
7FFFF000000000000000000000007FFFF0
7FFFF000000000000000000000007FFFF0
7FFFF00000000000000000000000FFFFF0
7FFFF00000000000000000000000FFFFE0
7FFFF80000000000000000000000FFFFE0
7FFFF80000000000000000000000FFFFE0
3FFFF80000000000000000000001FFFFE0
3FFFFC0000000000000000000001FFFFE0
3FFFFC0000000000000000000001FFFFC0
3FFFFC0000000000000000000003FFFFC0
1FFFFE0000000000000000000003FFFFC0
1FFFFE0000000000000000000007FFFF80
1FFFFF0000000000000000000007FFFF80
0FFFFF000000000000000000000FFFFF80
0FFFFF800000000000000000001FFFFF00
0FFFFFC00000000000000000001FFFFF00
07FFFFC00000000000000000003FFFFF00
07FFFFE00000000000000000007FFFFE00
03FFFFF0000000000000000000FFFFFE00
03FFFFF8000000000000000001FFFFFC00
01FFFFFC000000000000000003FFFFFC00
01FFFFFE000000000000000007FFFFF800
00FFFFFF80000000000000000FFFFFF800
007FFFFFC0000000000000003FFFFFF000
007FFFFFF0000000000000007FFFFFE000
003FFFFFF800000000000001FFFFFFE000
003FFFFFFE00000000000007FFFFFFC000
001FFFFFFFC000000000003FFFFFFF8000
000FFFFFFFFC0000000003FFFFFFFF0000
0007FFFFFFFFFFFFFFFFFFFFFFFFFF0000
0003FFFFFFFFFFFFFFFFFFFFFFFFFE0000
0001FFFFFFFFFFFFFFFFFFFFFFFFFC0000
0000FFFFFFFFFFFFFFFFFFFFFFFFF80000
00007FFFFFFFFFFFFFFFFFFFFFFFF00000
00003FFFFFFFFFFFFFFFFFFFFFFFE00000
00001FFFFFFFFFFFFFFFFFFFFFFFC00000
00000FFFFFFFFFFFFFFFFFFFFFFF800000
000007FFFFFFFFFFFFFFFFFFFFFE000000
000001FFFFFFFFFFFFFFFFFFFFFC000000
000000FFFFFFFFFFFFFFFFFFFFF8000000
0000003FFFFFFFFFFFFFFFFFFFE0000000
0000001FFFFFFFFFFFFFFFFFFF80000000
00000007FFFFFFFFFFFFFFFFFE00000000
00000001FFFFFFFFFFFFFFFFF800000000
000000003FFFFFFFFFFFFFFFE000000000
000000000FFFFFFFFFFFFFFF0000000000
0000000000FFFFFFFFFFFFF00000000000
000000000007FFFFFFFFFE000000000000
ENDCHAR
STARTCHAR P
ENCODING 80
SWIDTH 867 0
DWIDTH 129 0
BBX 116 108 9 0
BITMAP
FFFFFFFFFFFFFFFFFFFFF000000000
FFFFFFFFFFFFFFFFFFFFFF80000000
FFFFFFFFFFFFFFFFFFFFFFF8000000
FFFFFFFFFFFFFFFFFFFFFFFE000000
FFFFFFFFFFFFFFFFFFFFFFFF800000
FFFFFFFFFFFFFFFFFFFFFFFFE00000
FFFFFFFFFFFFFFFFFFFFFFFFF80000
FFFFFFFFFFFFFFFFFFFFFFFFFC0000
FFFFFFFFFFFFFFFFFFFFFFFFFF0000
FFFFFFFFFFFFFFFFFFFFFFFFFF8000
FFFFFFFFFFFFFFFFFFFFFFFFFFC000
FFFFFFFFFFFFFFFFFFFFFFFFFFE000
FFFFFFFFFFFFFFFFFFFFFFFFFFF000
FFFFFFFFFFFFFFFFFFFFFFFFFFF000
FFFFFFFFFFFFFFFFFFFFFFFFFFF800
FFFFFFFFFFFFFFFFFFFFFFFFFFFC00
FFFFFFFFFFFFFFFFFFFFFFFFFFFE00
FFFFFFFFFFFFFFFFFFFFFFFFFFFE00
FFFFFFFFFFFFFFFFFFFFFFFFFFFF00
FFFFE0000000000000001FFFFFFF00
FFFFE00000000000000003FFFFFF80
FFFFE00000000000000000FFFFFF80
FFFFE000000000000000003FFFFF80
FFFFE000000000000000001FFFFFC0
FFFFE000000000000000000FFFFFC0
FFFFE0000000000000000007FFFFC0
FFFFE0000000000000000003FFFFE0
FFFFE0000000000000000001FFFFE0
FFFFE0000000000000000001FFFFE0
FFFFE0000000000000000000FFFFE0
FFFFE0000000000000000000FFFFF0
FFFFE00000000000000000007FFFF0
FFFFE00000000000000000007FFFF0
FFFFE00000000000000000007FFFF0
FFFFE00000000000000000007FFFF0
FFFFE00000000000000000007FFFF0
FFFFE00000000000000000003FFFF0
FFFFE00000000000000000003FFFF0
FFFFE00000000000000000003FFFF0
FFFFE00000000000000000003FFFF0
FFFFE00000000000000000003FFFF0
FFFFE00000000000000000003FFFF0
FFFFE00000000000000000007FFFF0
FFFFE00000000000000000007FFFF0
FFFFE00000000000000000007FFFF0
FFFFE00000000000000000007FFFF0
FFFFE0000000000000000000FFFFF0
FFFFE0000000000000000000FFFFE0
FFFFE0000000000000000000FFFFE0
FFFFE0000000000000000001FFFFE0
FFFFE0000000000000000001FFFFE0
FFFFE0000000000000000003FFFFE0
FFFFE0000000000000000007FFFFC0
FFFFE000000000000000000FFFFFC0
FFFFE000000000000000001FFFFFC0
FFFFE000000000000000003FFFFF80
FFFFE00000000000000000FFFFFF80
FFFFE00000000000000003FFFFFF00
FFFFE0000000000000001FFFFFFF00
FFFFE0007FFFFFFFFFFFFFFFFFFE00
FFFFE0007FFFFFFFFFFFFFFFFFFE00
FFFFE0007FFFFFFFFFFFFFFFFFFC00
FFFFE0007FFFFFFFFFFFFFFFFFF800
FFFFE0007FFFFFFFFFFFFFFFFFF800
FFFFE0007FFFFFFFFFFFFFFFFFF000
FFFFE0007FFFFFFFFFFFFFFFFFE000
FFFFE0007FFFFFFFFFFFFFFFFFC000
FFFFE0007FFFFFFFFFFFFFFFFF8000
FFFFE0007FFFFFFFFFFFFFFFFF0000
FFFFE0007FFFFFFFFFFFFFFFFE0000
FFFFE0007FFFFFFFFFFFFFFFFC0000
FFFFE0007FFFFFFFFFFFFFFFF00000
FFFFE0007FFFFFFFFFFFFFFFE00000
FFFFE0007FFFFFFFFFFFFFFF800000
FFFFE0007FFFFFFFFFFFFFFE000000
FFFFE0007FFFFFFFFFFFFFF0000000
FFFFE0007FFFFFFFFFFFFF80000000
FFFFE0007FFFFFFFFFFFF000000000
FFFFE0000000000000000000000000
FFFFE0000000000000000000000000
FFFFE0000000000000000000000000
FFFFE0000000000000000000000000
FFFFE0000000000000000000000000
FFFFE0000000000000000000000000
FFFFE0000000000000000000000000
FFFFE0000000000000000000000000
FFFFE0000000000000000000000000
FFFFE0000000000000000000000000
FFFFE0000000000000000000000000
FFFFE0000000000000000000000000
FFFFE0000000000000000000000000
FFFFE0000000000000000000000000
FFFFE0000000000000000000000000
FFFFE0000000000000000000000000
FFFFE0000000000000000000000000
FFFFE0000000000000000000000000
FFFFE0000000000000000000000000
FFFFE0000000000000000000000000
FFFFE0000000000000000000000000
FFFFE0000000000000000000000000
FFFFE0000000000000000000000000
FFFFE0000000000000000000000000
FFFFE0000000000000000000000000
FFFFE0000000000000000000000000
FFFFE0000000000000000000000000
FFFFE0000000000000000000000000
FFFFE0000000000000000000000000
FFFFE0000000000000000000000000
ENDCHAR
STARTCHAR Q
ENCODING 81
SWIDTH 968 0
DWIDTH 144 0
BBX 138 108 6 0
BITMAP
000000000007FFFFFFFFFE00000000000000
0000000001FFFFFFFFFFFFF8000000000000
000000000FFFFFFFFFFFFFFF800000000000
000000007FFFFFFFFFFFFFFFF00000000000
00000003FFFFFFFFFFFFFFFFFC0000000000
0000000FFFFFFFFFFFFFFFFFFF8000000000
0000003FFFFFFFFFFFFFFFFFFFC000000000
000000FFFFFFFFFFFFFFFFFFFFF000000000
000001FFFFFFFFFFFFFFFFFFFFFC00000000
000007FFFFFFFFFFFFFFFFFFFFFE00000000
00000FFFFFFFFFFFFFFFFFFFFFFF80000000
00001FFFFFFFFFFFFFFFFFFFFFFFC0000000
00007FFFFFFFFFFFFFFFFFFFFFFFE0000000
0000FFFFFFFFFFFFFFFFFFFFFFFFF0000000
0001FFFFFFFFFFFFFFFFFFFFFFFFF8000000
0003FFFFFFFFFFFFFFFFFFFFFFFFFC000000
0007FFFFFFFFFFFFFFFFFFFFFFFFFE000000
000FFFFFFFFFFFFFFFFFFFFFFFFFFF000000
000FFFFFFFFFFFFFFFFFFFFFFFFFFF800000
001FFFFFFFFC0000000003FFFFFFFFC00000
003FFFFFFFC000000000003FFFFFFFC00000
007FFFFFFE00000000000007FFFFFFE00000
007FFFFFF800000000000001FFFFFFF00000
00FFFFFFE0000000000000007FFFFFF00000
01FFFFFFC0000000000000001FFFFFF80000
01FFFFFF00000000000000000FFFFFFC0000
03FFFFFE000000000000000007FFFFFC0000
03FFFFFC000000000000000003FFFFFE0000
07FFFFF8000000000000000000FFFFFE0000
07FFFFF0000000000000000000FFFFFF0000
0FFFFFE00000000000000000007FFFFF0000
0FFFFFC00000000000000000003FFFFF0000
0FFFFFC00000000000000000001FFFFF8000
1FFFFF800000000000000000000FFFFF8000
1FFFFF000000000000000000000FFFFFC000
1FFFFF0000000000000000000007FFFFC000
3FFFFE0000000000000000000007FFFFC000
3FFFFE0000000000000000000003FFFFC000
3FFFFC0000000000000000000003FFFFE000
3FFFFC0000000000000000000001FFFFE000
7FFFF80000000000000000000001FFFFE000
7FFFF80000000000000000000001FFFFE000
7FFFF80000000000000000000000FFFFE000
7FFFF00000000000000000000000FFFFF000
7FFFF00000000000000000000000FFFFF000
7FFFF000000000000000000000007FFFF000
7FFFF000000000000000000000007FFFF000
FFFFF000000000000000000000007FFFF000
FFFFE000000000000000000000007FFFF000
FFFFE000000000000000000000007FFFF000
FFFFE000000000000000000000007FFFF000
FFFFE000000000000000000000007FFFF000
FFFFE000000000000000000000007FFFF000
FFFFE000000000000000000000007FFFF000
FFFFE000000000000000000000007FFFF000
FFFFE000000000000000000000007FFFF000
FFFFE000000000000000000000007FFFF000
FFFFE000000000000000000000007FFFF000
FFFFE000000000000000000000007FFFF000
7FFFF000000000000000000000007FFFF000
7FFFF000000000000000000000007FFFF000
7FFFF000000000000000000000007FFFF000
7FFFF00000000000000000000000FFFFF000
7FFFF0000000007FFFFFC0000000FFFFE000
7FFFF8000000001FFFFFF0000000FFFFE000
7FFFF8000000000FFFFFF8000000FFFFE000
3FFFF80000000007FFFFFC000001FFFFE000
3FFFFC0000000001FFFFFE000001FFFFE000
3FFFFC0000000000FFFFFF000001FFFFC000
3FFFFC00000000007FFFFFC00003FFFFC000
1FFFFE00000000003FFFFFE00003FFFFC000
1FFFFE00000000000FFFFFF00007FFFF8000
1FFFFF000000000007FFFFF80007FFFF8000
0FFFFF000000000003FFFFFC000FFFFF8000
0FFFFF800000000001FFFFFF001FFFFF0000
0FFFFFC000000000007FFFFF801FFFFF0000
07FFFFC000000000003FFFFFC03FFFFF0000
07FFFFE000000000001FFFFFE07FFFFE0000
03FFFFF0000000000007FFFFF0FFFFFE0000
03FFFFF8000000000003FFFFF9FFFFFC0000
01FFFFFC000000000001FFFFFFFFFFFC0000
01FFFFFE000000000000FFFFFFFFFFF80000
00FFFFFF8000000000003FFFFFFFFFF80000
007FFFFFC000000000001FFFFFFFFFF00000
007FFFFFF000000000000FFFFFFFFFE00000
003FFFFFF8000000000007FFFFFFFFE00000
003FFFFFFE000000000001FFFFFFFFC00000
001FFFFFFFC00000000000FFFFFFFF800000
000FFFFFFFFC0000000003FFFFFFFF000000
0007FFFFFFFFFFFFFFFFFFFFFFFFFF000000
0003FFFFFFFFFFFFFFFFFFFFFFFFFE000000
0001FFFFFFFFFFFFFFFFFFFFFFFFFC000000
0000FFFFFFFFFFFFFFFFFFFFFFFFFC000000
00007FFFFFFFFFFFFFFFFFFFFFFFFE000000
00003FFFFFFFFFFFFFFFFFFFFFFFFF000000
00001FFFFFFFFFFFFFFFFFFFFFFFFF800000
00000FFFFFFFFFFFFFFFFFFFFFFFFFE00000
000007FFFFFFFFFFFFFFFFFFFFFFFFF00000
000001FFFFFFFFFFFFFFFFFFFFFFFFF80000
000000FFFFFFFFFFFFFFFFFFFFFFFFFE0000
0000003FFFFFFFFFFFFFFFFFFFFFFFFF0000
0000001FFFFFFFFFFFFFFFFFFFFFFFFF8000
00000007FFFFFFFFFFFFFFFFFE3FFFFFE000
00000001FFFFFFFFFFFFFFFFF81FFFFFF000
000000003FFFFFFFFFFFFFFFE00FFFFFF800
000000000FFFFFFFFFFFFFFF0003FFFFFC00
0000000000FFFFFFFFFFFFF00001FFFFFF00
000000000007FFFFFFFFFE000000FFFFFFC0
ENDCHAR
STARTCHAR R
ENCODING 82
SWIDTH 921 0
DWIDTH 137 0
BBX 128 108 9 0
BITMAP
FFFFFFFFFFFFFFFFFFFFFC0000000000
FFFFFFFFFFFFFFFFFFFFFFE000000000
FFFFFFFFFFFFFFFFFFFFFFFC00000000
FFFFFFFFFFFFFFFFFFFFFFFF80000000
FFFFFFFFFFFFFFFFFFFFFFFFE0000000
FFFFFFFFFFFFFFFFFFFFFFFFF0000000
FFFFFFFFFFFFFFFFFFFFFFFFFC000000
FFFFFFFFFFFFFFFFFFFFFFFFFE000000
FFFFFFFFFFFFFFFFFFFFFFFFFF800000
FFFFFFFFFFFFFFFFFFFFFFFFFFC00000
FFFFFFFFFFFFFFFFFFFFFFFFFFE00000
FFFFFFFFFFFFFFFFFFFFFFFFFFF00000
FFFFFFFFFFFFFFFFFFFFFFFFFFF80000
FFFFFFFFFFFFFFFFFFFFFFFFFFFC0000
FFFFFFFFFFFFFFFFFFFFFFFFFFFC0000
FFFFFFFFFFFFFFFFFFFFFFFFFFFE0000
FFFFFFFFFFFFFFFFFFFFFFFFFFFF0000
FFFFFFFFFFFFFFFFFFFFFFFFFFFF0000
FFFFFFFFFFFFFFFFFFFFFFFFFFFF8000
FFFFE0000000000000000FFFFFFF8000
FFFFE00000000000000000FFFFFFC000
FFFFE000000000000000003FFFFFC000
FFFFE000000000000000000FFFFFE000
FFFFE0000000000000000007FFFFE000
FFFFE0000000000000000003FFFFE000
FFFFE0000000000000000001FFFFF000
FFFFE0000000000000000000FFFFF000
FFFFE0000000000000000000FFFFF000
FFFFE00000000000000000007FFFF000
FFFFE00000000000000000007FFFF800
FFFFE00000000000000000003FFFF800
FFFFE00000000000000000003FFFF800
FFFFE00000000000000000003FFFF800
FFFFE00000000000000000003FFFF800
FFFFE00000000000000000001FFFF800
FFFFE00000000000000000001FFFF800
FFFFE00000000000000000001FFFF800
FFFFE00000000000000000001FFFF800
FFFFE00000000000000000001FFFF800
FFFFE00000000000000000001FFFFC00
FFFFE00000000000000000001FFFF800
FFFFE00000000000000000001FFFF800
FFFFE00000000000000000001FFFF800
FFFFE00000000000000000001FFFF800
FFFFE00000000000000000001FFFF800
FFFFE00000000000000000003FFFF800
FFFFE00000000000000000003FFFF800
FFFFE00000000000000000003FFFF800
FFFFE00000000000000000003FFFF800
FFFFE00000000000000000007FFFF800
FFFFE00000000000000000007FFFF000
FFFFE0000000000000000000FFFFF000
FFFFE0000000000000000000FFFFF000
FFFFE0000000000000000001FFFFF000
FFFFE0000000000000000003FFFFE000
FFFFE0000000000000000003FFFFE000
FFFFE0000000000000000007FFFFC000
FFFFE000000000000000001FFFFFC000
FFFFE000000000000000003FFFFFC000
FFFFE00000000000000001FFFFFF8000
FFFFE0000000000000000FFFFFFF0000
FFFFE0007FFFFFFFFFFFFFFFFFFF0000
FFFFE0007FFFFFFFFFFFFFFFFFFE0000
FFFFE0007FFFFFFFFFFFFFFFFFFE0000
FFFFE0007FFFFFFFFFFFFFFFFFFC0000
FFFFE0007FFFFFFFFFFFFFFFFFF80000
FFFFE0007FFFFFFFFFFFFFFFFFF00000
FFFFE0007FFFFFFFFFFFFFFFFFE00000
FFFFE0007FFFFFFFFFFFFFFFFFC00000
FFFFE0007FFFFFFFFFFFFFFFFF800000
FFFFE0007FFFFFFFFFFFFFFFFF000000
FFFFE0007FFFFFFFFFFFFFFFFC000000
FFFFE0007FFFFFFFFFFFFFFFF8000000
FFFFE0007FFFFFFFFFFFFFFFE0000000
FFFFE0007FFFFFFFFFFFFFFF80000000
FFFFE0007FFFFFFFFFFFFFFF00000000
FFFFE0007FFFFFFFFFFFFFFF80000000
FFFFE0007FFFFFFFFFFFFFFFC0000000
FFFFE00000000000003FFFFFE0000000
FFFFE00000000000001FFFFFF0000000
FFFFE00000000000000FFFFFF0000000
FFFFE000000000000007FFFFF8000000
FFFFE000000000000003FFFFFC000000
FFFFE000000000000001FFFFFE000000
FFFFE000000000000001FFFFFF000000
FFFFE000000000000000FFFFFF800000
FFFFE0000000000000007FFFFFC00000
FFFFE0000000000000003FFFFFE00000
FFFFE0000000000000001FFFFFF00000
FFFFE0000000000000000FFFFFF80000
FFFFE00000000000000007FFFFFC0000
FFFFE00000000000000003FFFFFE0000
FFFFE00000000000000001FFFFFF0000
FFFFE00000000000000000FFFFFF8000
FFFFE000000000000000007FFFFFC000
FFFFE000000000000000003FFFFFE000
FFFFE000000000000000003FFFFFF000
FFFFE000000000000000001FFFFFF800
FFFFE000000000000000000FFFFFFC00
FFFFE0000000000000000007FFFFFE00
FFFFE0000000000000000003FFFFFF00
FFFFE0000000000000000001FFFFFF80
FFFFE0000000000000000000FFFFFFC0
FFFFE00000000000000000007FFFFFE0
FFFFE00000000000000000003FFFFFF0
FFFFE00000000000000000001FFFFFF8
FFFFE00000000000000000000FFFFFFC
FFFFE000000000000000000007FFFFFF
ENDCHAR
STARTCHAR S
ENCODING 83
SWIDTH 880 0
DWIDTH 131 0
BBX 116 108 8 0
BITMAP
0000003FFFFFFFFFFFFFFFFFFFFE00
000007FFFFFFFFFFFFFFFFFFFFFE00
00003FFFFFFFFFFFFFFFFFFFFFFE00
0000FFFFFFFFFFFFFFFFFFFFFFFE00
0003FFFFFFFFFFFFFFFFFFFFFFFE00
000FFFFFFFFFFFFFFFFFFFFFFFFE00
001FFFFFFFFFFFFFFFFFFFFFFFFE00
003FFFFFFFFFFFFFFFFFFFFFFFFE00
00FFFFFFFFFFFFFFFFFFFFFFFFFE00
01FFFFFFFFFFFFFFFFFFFFFFFFFE00
03FFFFFFFFFFFFFFFFFFFFFFFFFE00
03FFFFFFFFFFFFFFFFFFFFFFFFFE00
07FFFFFFFFFFFFFFFFFFFFFFFFFE00
0FFFFFFFFFFFFFFFFFFFFFFFFFFE00
0FFFFFFFFFFFFFFFFFFFFFFFFFFE00
1FFFFFFFFFFFFFFFFFFFFFFFFFFE00
1FFFFFFFFFFFFFFFFFFFFFFFFFFE00
3FFFFFFFFFFFFFFFFFFFFFFFFFFE00
3FFFFFFFFFFFFFFFFFFFFFFFFFFE00
7FFFFFF00000000000000000000000
7FFFFFC00000000000000000000000
7FFFFF000000000000000000000000
7FFFFE000000000000000000000000
FFFFFC000000000000000000000000
FFFFF8000000000000000000000000
FFFFF8000000000000000000000000
FFFFF0000000000000000000000000
FFFFF0000000000000000000000000
FFFFF0000000000000000000000000
FFFFF0000000000000000000000000
FFFFE0000000000000000000000000
FFFFE0000000000000000000000000
FFFFE0000000000000000000000000
FFFFE0000000000000000000000000
FFFFF0000000000000000000000000
FFFFF0000000000000000000000000
FFFFF0000000000000000000000000
FFFFF0000000000000000000000000
7FFFF8000000000000000000000000
7FFFF8000000000000000000000000
7FFFFC000000000000000000000000
3FFFFE000000000000000000000000
3FFFFF000000000000000000000000
3FFFFFC00000000000000000000000
1FFFFFF80000000000000000000000
1FFFFFFFFFFFFFFFFFFFFFE0000000
0FFFFFFFFFFFFFFFFFFFFFFF000000
07FFFFFFFFFFFFFFFFFFFFFFE00000
07FFFFFFFFFFFFFFFFFFFFFFF80000
03FFFFFFFFFFFFFFFFFFFFFFFE0000
01FFFFFFFFFFFFFFFFFFFFFFFF8000
00FFFFFFFFFFFFFFFFFFFFFFFFC000
007FFFFFFFFFFFFFFFFFFFFFFFE000
003FFFFFFFFFFFFFFFFFFFFFFFF000
001FFFFFFFFFFFFFFFFFFFFFFFF800
0007FFFFFFFFFFFFFFFFFFFFFFFC00
0003FFFFFFFFFFFFFFFFFFFFFFFE00
0000FFFFFFFFFFFFFFFFFFFFFFFF00
00003FFFFFFFFFFFFFFFFFFFFFFF00
000007FFFFFFFFFFFFFFFFFFFFFF80
0000003FFFFFFFFFFFFFFFFFFFFF80
0000000000000000000000FFFFFFC0
00000000000000000000001FFFFFC0
000000000000000000000007FFFFC0
000000000000000000000003FFFFE0
000000000000000000000001FFFFE0
000000000000000000000000FFFFE0
0000000000000000000000007FFFE0
0000000000000000000000007FFFF0
0000000000000000000000003FFFF0
0000000000000000000000003FFFF0
0000000000000000000000003FFFF0
0000000000000000000000003FFFF0
0000000000000000000000003FFFF0
0000000000000000000000003FFFF0
0000000000000000000000003FFFF0
0000000000000000000000003FFFF0
0000000000000000000000003FFFF0
0000000000000000000000003FFFF0
0000000000000000000000003FFFF0
0000000000000000000000007FFFF0
0000000000000000000000007FFFF0
000000000000000000000000FFFFF0
000000000000000000000000FFFFF0
000000000000000000000001FFFFE0
000000000000000000000003FFFFE0
000000000000000000000007FFFFE0
00000000000000000000001FFFFFE0
0000000000000000000000FFFFFFC0
7FFFFFFFFFFFFFFFFFFFFFFFFFFFC0
7FFFFFFFFFFFFFFFFFFFFFFFFFFFC0
7FFFFFFFFFFFFFFFFFFFFFFFFFFF80
7FFFFFFFFFFFFFFFFFFFFFFFFFFF80
7FFFFFFFFFFFFFFFFFFFFFFFFFFF00
7FFFFFFFFFFFFFFFFFFFFFFFFFFE00
7FFFFFFFFFFFFFFFFFFFFFFFFFFE00
7FFFFFFFFFFFFFFFFFFFFFFFFFFC00
7FFFFFFFFFFFFFFFFFFFFFFFFFF800
7FFFFFFFFFFFFFFFFFFFFFFFFFF000
7FFFFFFFFFFFFFFFFFFFFFFFFFE000
7FFFFFFFFFFFFFFFFFFFFFFFFFC000
7FFFFFFFFFFFFFFFFFFFFFFFFF8000
7FFFFFFFFFFFFFFFFFFFFFFFFF0000
7FFFFFFFFFFFFFFFFFFFFFFFFC0000
7FFFFFFFFFFFFFFFFFFFFFFFF00000
7FFFFFFFFFFFFFFFFFFFFFFFC00000
7FFFFFFFFFFFFFFFFFFFFFFE000000
7FFFFFFFFFFFFFFFFFFFFFC0000000
ENDCHAR
STARTCHAR T
ENCODING 84
SWIDTH 720 0
DWIDTH 107 0
BBX 101 108 3 0
BITMAP
FFFFFFFFFFFFFFFFFFFFFFFFF8
FFFFFFFFFFFFFFFFFFFFFFFFF8
FFFFFFFFFFFFFFFFFFFFFFFFF8
FFFFFFFFFFFFFFFFFFFFFFFFF8
FFFFFFFFFFFFFFFFFFFFFFFFF8
FFFFFFFFFFFFFFFFFFFFFFFFF8
FFFFFFFFFFFFFFFFFFFFFFFFF8
FFFFFFFFFFFFFFFFFFFFFFFFF8
FFFFFFFFFFFFFFFFFFFFFFFFF8
FFFFFFFFFFFFFFFFFFFFFFFFF8
FFFFFFFFFFFFFFFFFFFFFFFFF8
FFFFFFFFFFFFFFFFFFFFFFFFF8
FFFFFFFFFFFFFFFFFFFFFFFFF8
FFFFFFFFFFFFFFFFFFFFFFFFF8
FFFFFFFFFFFFFFFFFFFFFFFFF8
FFFFFFFFFFFFFFFFFFFFFFFFF8
FFFFFFFFFFFFFFFFFFFFFFFFF8
FFFFFFFFFFFFFFFFFFFFFFFFF8
FFFFFFFFFFFFFFFFFFFFFFFFF8
00000000007FFFF00000000000
00000000007FFFF00000000000
00000000007FFFF00000000000
00000000007FFFF00000000000
00000000007FFFF00000000000
00000000007FFFF00000000000
00000000007FFFF00000000000
00000000007FFFF00000000000
00000000007FFFF00000000000
00000000007FFFF00000000000
00000000007FFFF00000000000
00000000007FFFF00000000000
00000000007FFFF00000000000
00000000007FFFF00000000000
00000000007FFFF00000000000
00000000007FFFF00000000000
00000000007FFFF00000000000
00000000007FFFF00000000000
00000000007FFFF00000000000
00000000007FFFF00000000000
00000000007FFFF00000000000
00000000007FFFF00000000000
00000000007FFFF00000000000
00000000007FFFF00000000000
00000000007FFFF00000000000
00000000007FFFF00000000000
00000000007FFFF00000000000
00000000007FFFF00000000000
00000000007FFFF00000000000
00000000007FFFF00000000000
00000000007FFFF00000000000
00000000007FFFF00000000000
00000000007FFFF00000000000
00000000007FFFF00000000000
00000000007FFFF00000000000
00000000007FFFF00000000000
00000000007FFFF00000000000
00000000007FFFF00000000000
00000000007FFFF00000000000
00000000007FFFF00000000000
00000000007FFFF00000000000
00000000007FFFF00000000000
00000000007FFFF00000000000
00000000007FFFF00000000000
00000000007FFFF00000000000
00000000007FFFF00000000000
00000000007FFFF00000000000
00000000007FFFF00000000000
00000000007FFFF00000000000
00000000007FFFF00000000000
00000000007FFFF00000000000
00000000007FFFF00000000000
00000000007FFFF00000000000
00000000007FFFF00000000000
00000000007FFFF00000000000
00000000007FFFF00000000000
00000000007FFFF00000000000
00000000007FFFF00000000000
00000000007FFFF00000000000
00000000007FFFF00000000000
00000000007FFFF00000000000
00000000007FFFF00000000000
00000000007FFFF00000000000
00000000007FFFF00000000000
00000000007FFFF00000000000
00000000007FFFF00000000000
00000000007FFFF00000000000
00000000007FFFF00000000000
00000000007FFFF00000000000
00000000007FFFF00000000000
00000000007FFFF00000000000
00000000007FFFF00000000000
00000000007FFFF00000000000
00000000007FFFF00000000000
00000000007FFFF00000000000
00000000007FFFF00000000000
00000000007FFFF00000000000
00000000007FFFF00000000000
00000000007FFFF00000000000
00000000007FFFF00000000000
00000000007FFFF00000000000
00000000007FFFF00000000000
00000000007FFFF00000000000
00000000007FFFF00000000000
00000000007FFFF00000000000
00000000007FFFF00000000000
00000000007FFFF00000000000
00000000007FFFF00000000000
00000000007FFFF00000000000
ENDCHAR
STARTCHAR U
ENCODING 85
SWIDTH 889 0
DWIDTH 132 0
BBX 117 110 8 -2
BITMAP
FFFFE00000000000000000003FFFF8
FFFFE00000000000000000003FFFF8
FFFFE00000000000000000003FFFF8
FFFFE00000000000000000003FFFF8
FFFFE00000000000000000003FFFF8
FFFFE00000000000000000003FFFF8
FFFFE00000000000000000003FFFF8
FFFFE00000000000000000003FFFF8
FFFFE00000000000000000003FFFF8
FFFFE00000000000000000003FFFF8
FFFFE00000000000000000003FFFF8
FFFFE00000000000000000003FFFF8
FFFFE00000000000000000003FFFF8
FFFFE00000000000000000003FFFF8
FFFFE00000000000000000003FFFF8
FFFFE00000000000000000003FFFF8
FFFFE00000000000000000003FFFF8
FFFFE00000000000000000003FFFF8
FFFFE00000000000000000003FFFF8
FFFFE00000000000000000003FFFF8
FFFFE00000000000000000003FFFF8
FFFFE00000000000000000003FFFF8
FFFFE00000000000000000003FFFF8
FFFFE00000000000000000003FFFF8
FFFFE00000000000000000003FFFF8
FFFFE00000000000000000003FFFF8
FFFFE00000000000000000003FFFF8
FFFFE00000000000000000003FFFF8
FFFFE00000000000000000003FFFF8
FFFFE00000000000000000003FFFF8
FFFFE00000000000000000003FFFF8
FFFFE00000000000000000003FFFF8
FFFFE00000000000000000003FFFF8
FFFFE00000000000000000003FFFF8
FFFFE00000000000000000003FFFF8
FFFFE00000000000000000003FFFF8
FFFFE00000000000000000003FFFF8
FFFFE00000000000000000003FFFF8
FFFFE00000000000000000003FFFF8
FFFFE00000000000000000003FFFF8
FFFFE00000000000000000003FFFF8
FFFFE00000000000000000003FFFF8
FFFFE00000000000000000003FFFF8
FFFFE00000000000000000003FFFF8
FFFFE00000000000000000003FFFF8
FFFFE00000000000000000003FFFF8
FFFFE00000000000000000003FFFF8
FFFFE00000000000000000003FFFF8
FFFFE00000000000000000003FFFF8
FFFFE00000000000000000003FFFF8
FFFFE00000000000000000003FFFF8
FFFFE00000000000000000003FFFF8
FFFFE00000000000000000003FFFF8
FFFFE00000000000000000003FFFF8
FFFFE00000000000000000003FFFF8
FFFFE00000000000000000003FFFF8
FFFFE00000000000000000003FFFF8
FFFFE00000000000000000003FFFF8
FFFFE00000000000000000003FFFF8
FFFFE00000000000000000003FFFF8
FFFFE00000000000000000003FFFF8
FFFFE00000000000000000003FFFF8
FFFFE00000000000000000003FFFF8
FFFFE00000000000000000003FFFF8
FFFFE00000000000000000003FFFF8
FFFFE00000000000000000003FFFF8
FFFFF00000000000000000003FFFF8
FFFFF00000000000000000003FFFF0
FFFFF00000000000000000003FFFF0
FFFFF00000000000000000007FFFF0
FFFFF00000000000000000007FFFF0
FFFFF00000000000000000007FFFF0
7FFFF80000000000000000007FFFF0
7FFFF8000000000000000000FFFFF0
7FFFF8000000000000000000FFFFF0
7FFFFC000000000000000000FFFFE0
7FFFFC000000000000000001FFFFE0
3FFFFE000000000000000001FFFFE0
3FFFFE000000000000000003FFFFE0
3FFFFF000000000000000003FFFFC0
3FFFFF800000000000000007FFFFC0
1FFFFF80000000000000000FFFFFC0
1FFFFFC0000000000000001FFFFF80
1FFFFFE0000000000000003FFFFF80
0FFFFFF8000000000000007FFFFF80
0FFFFFFC00000000000001FFFFFF00
07FFFFFF00000000000003FFFFFF00
07FFFFFFC000000000001FFFFFFE00
03FFFFFFF800000000007FFFFFFE00
03FFFFFFFF8000000007FFFFFFFC00
01FFFFFFFFFF000003FFFFFFFFFC00
00FFFFFFFFFFFFFFFFFFFFFFFFF800
00FFFFFFFFFFFFFFFFFFFFFFFFF000
007FFFFFFFFFFFFFFFFFFFFFFFE000
003FFFFFFFFFFFFFFFFFFFFFFFC000
001FFFFFFFFFFFFFFFFFFFFFFFC000
000FFFFFFFFFFFFFFFFFFFFFFF8000
0007FFFFFFFFFFFFFFFFFFFFFF0000
0003FFFFFFFFFFFFFFFFFFFFFC0000
0001FFFFFFFFFFFFFFFFFFFFF80000
00007FFFFFFFFFFFFFFFFFFFF00000
00003FFFFFFFFFFFFFFFFFFFC00000
00000FFFFFFFFFFFFFFFFFFF000000
000003FFFFFFFFFFFFFFFFFC000000
000000FFFFFFFFFFFFFFFFF0000000
0000001FFFFFFFFFFFFFFF80000000
00000003FFFFFFFFFFFFFC00000000
000000003FFFFFFFFFFFE000000000
0000000001FFFFFFFFFC0000000000
000000000000FFFFF8000000000000
ENDCHAR
STARTCHAR V
ENCODING 86
SWIDTH 989 0
DWIDTH 147 0
BBX 143 110 2 -2
BITMAP
FFFFFE0000000000000000000000007FFFFE
7FFFFF000000000000000000000000FFFFFC
3FFFFF800000000000000000000000FFFFFC
3FFFFF800000000000000000000001FFFFF8
1FFFFFC00000000000000000000001FFFFF0
1FFFFFC00000000000000000000003FFFFF0
0FFFFFE00000000000000000000003FFFFE0
07FFFFF00000000000000000000007FFFFE0
07FFFFF0000000000000000000000FFFFFC0
03FFFFF8000000000000000000000FFFFF80
03FFFFF8000000000000000000001FFFFF80
01FFFFFC000000000000000000001FFFFF00
00FFFFFE000000000000000000003FFFFF00
00FFFFFE000000000000000000007FFFFE00
007FFFFF000000000000000000007FFFFC00
007FFFFF00000000000000000000FFFFFC00
003FFFFF80000000000000000000FFFFF800
001FFFFF80000000000000000001FFFFF800
001FFFFFC0000000000000000001FFFFF000
000FFFFFE0000000000000000003FFFFE000
000FFFFFE0000000000000000007FFFFE000
0007FFFFF0000000000000000007FFFFC000
0003FFFFF000000000000000000FFFFFC000
0003FFFFF800000000000000000FFFFF8000
0001FFFFFC00000000000000001FFFFF0000
0001FFFFFC00000000000000003FFFFF0000
0000FFFFFE00000000000000003FFFFE0000
00007FFFFE00000000000000007FFFFE0000
00007FFFFF00000000000000007FFFFC0000
00003FFFFF8000000000000000FFFFF80000
00003FFFFF8000000000000001FFFFF80000
00001FFFFFC000000000000001FFFFF00000
00000FFFFFC000000000000003FFFFF00000
00000FFFFFE000000000000003FFFFE00000
000007FFFFE000000000000007FFFFC00000
000007FFFFF000000000000007FFFFC00000
000003FFFFF80000000000000FFFFF800000
000001FFFFF80000000000001FFFFF800000
000001FFFFFC0000000000001FFFFF000000
000000FFFFFC0000000000003FFFFE000000
000000FFFFFE0000000000003FFFFE000000
0000007FFFFF0000000000007FFFFC000000
0000003FFFFF000000000000FFFFF8000000
0000003FFFFF800000000000FFFFF8000000
0000001FFFFF800000000001FFFFF0000000
0000001FFFFFC00000000001FFFFF0000000
0000000FFFFFE00000000003FFFFE0000000
00000007FFFFE00000000003FFFFC0000000
00000007FFFFF00000000007FFFFC0000000
00000003FFFFF0000000000FFFFF80000000
00000001FFFFF8000000000FFFFF80000000
00000001FFFFF8000000001FFFFF00000000
00000000FFFFFC000000001FFFFE00000000
00000000FFFFFE000000003FFFFE00000000
000000007FFFFE000000007FFFFC00000000
000000003FFFFF000000007FFFFC00000000
000000003FFFFF00000000FFFFF800000000
000000001FFFFF80000000FFFFF000000000
000000001FFFFFC0000001FFFFF000000000
000000000FFFFFC0000003FFFFE000000000
0000000007FFFFE0000003FFFFE000000000
0000000007FFFFE0000007FFFFC000000000
0000000003FFFFF0000007FFFF8000000000
0000000003FFFFF800000FFFFF8000000000
0000000001FFFFF800000FFFFF0000000000
0000000000FFFFFC00001FFFFF0000000000
0000000000FFFFFC00003FFFFE0000000000
00000000007FFFFE00003FFFFC0000000000
00000000007FFFFE00007FFFFC0000000000
00000000003FFFFF00007FFFF80000000000
00000000001FFFFF8000FFFFF80000000000
00000000001FFFFF8001FFFFF00000000000
00000000000FFFFFC001FFFFE00000000000
00000000000FFFFFC003FFFFE00000000000
000000000007FFFFE003FFFFC00000000000
000000000003FFFFF007FFFFC00000000000
000000000003FFFFF00FFFFF800000000000
000000000001FFFFF80FFFFF000000000000
000000000001FFFFF81FFFFF000000000000
000000000000FFFFFC1FFFFE000000000000
0000000000007FFFFE3FFFFE000000000000
0000000000007FFFFE3FFFFC000000000000
0000000000003FFFFF7FFFF8000000000000
0000000000003FFFFFFFFFF8000000000000
0000000000001FFFFFFFFFF0000000000000
0000000000000FFFFFFFFFF0000000000000
0000000000000FFFFFFFFFE0000000000000
00000000000007FFFFFFFFC0000000000000
00000000000007FFFFFFFFC0000000000000
00000000000003FFFFFFFF80000000000000
00000000000001FFFFFFFF80000000000000
00000000000001FFFFFFFF00000000000000
00000000000000FFFFFFFE00000000000000
00000000000000FFFFFFFE00000000000000
000000000000007FFFFFFC00000000000000
000000000000003FFFFFF800000000000000
000000000000003FFFFFF800000000000000
000000000000001FFFFFF000000000000000
000000000000001FFFFFF000000000000000
000000000000000FFFFFE000000000000000
0000000000000007FFFFC000000000000000
0000000000000007FFFFC000000000000000
0000000000000003FFFF8000000000000000
0000000000000003FFFF8000000000000000
0000000000000001FFFF0000000000000000
0000000000000000FFFE0000000000000000
00000000000000007FFC0000000000000000
00000000000000003FF80000000000000000
00000000000000001FF00000000000000000
000000000000000001000000000000000000
ENDCHAR
STARTCHAR W
ENCODING 87
SWIDTH 1268 0
DWIDTH 189 0
BBX 185 110 2 -2
BITMAP
FFFFFE00000001FFFFFC000000000000000000001FFFFF80
7FFFFF00000000FFFFFC000000000000000000001FFFFF00
7FFFFF00000000FFFFFE000000000000000000003FFFFE00
3FFFFF800000007FFFFE000000000000000000003FFFFE00
1FFFFF800000007FFFFF000000000000000000007FFFFC00
1FFFFFC00000003FFFFF000000000000000000007FFFFC00
0FFFFFC00000003FFFFF80000000000000000000FFFFF800
0FFFFFE00000001FFFFF80000000000000000000FFFFF800
07FFFFE00000001FFFFFC0000000000000000001FFFFF000
07FFFFF00000000FFFFFC0000000000000000001FFFFF000
03FFFFF00000000FFFFFE0000000000000000003FFFFE000
03FFFFF800000007FFFFE0000000000000000007FFFFE000
01FFFFF800000007FFFFF0000000000000000007FFFFC000
01FFFFFC00000003FFFFF000000000000000000FFFFF8000
00FFFFFC00000003FFFFF800000000000000000FFFFF8000
00FFFFFE00000001FFFFF800000000000000001FFFFF0000
007FFFFE00000001FFFFFC00000000000000001FFFFF0000
003FFFFF00000000FFFFFC00000000000000003FFFFE0000
003FFFFF00000000FFFFFE00000000000000003FFFFE0000
001FFFFF800000007FFFFE00000000000000007FFFFC0000
001FFFFF800000007FFFFF00000000000000007FFFFC0000
000FFFFFC00000003FFFFF0000000000000000FFFFF80000
000FFFFFE00000003FFFFF8000000000000000FFFFF80000
0007FFFFE00000001FFFFF8000000000000001FFFFF00000
0007FFFFF00000000FFFFFC000000000000001FFFFF00000
0003FFFFF00000000FFFFFC000000000000003FFFFE00000
0003FFFFF800000007FFFFE000000000000003FFFFC00000
0001FFFFF800000007FFFFE000000000000007FFFFC00000
0001FFFFFC00000003FFFFF00000000000000FFFFF800000
0000FFFFFC00000003FFFFF00000000000000FFFFF800000
00007FFFFE00000001FFFFF80000000000001FFFFF000000
00007FFFFE00000001FFFFF80000000000001FFFFF000000
00003FFFFF00000000FFFFFC0000000000003FFFFE000000
00003FFFFF00000000FFFFFC0000000000003FFFFE000000
00001FFFFF800000007FFFFE0000000000007FFFFC000000
00001FFFFF800000007FFFFE0000000000007FFFFC000000
00000FFFFFC00000003FFFFF000000000000FFFFF8000000
00000FFFFFC00000003FFFFF000000000000FFFFF8000000
000007FFFFE00000001FFFFF800000000001FFFFF0000000
000007FFFFE00000001FFFFF800000000001FFFFE0000000
000003FFFFF00000000FFFFFC00000000003FFFFE0000000
000003FFFFF80000000FFFFFC00000000003FFFFC0000000
000001FFFFF800000007FFFFE00000000007FFFFC0000000
000000FFFFFC00000007FFFFE00000000007FFFF80000000
000000FFFFFC00000003FFFFF0000000000FFFFF80000000
0000007FFFFE00000003FFFFF0000000000FFFFF00000000
0000007FFFFE00000001FFFFF8000000001FFFFF00000000
0000003FFFFF00000001FFFFF8000000003FFFFE00000000
0000003FFFFF00000000FFFFFC000000003FFFFE00000000
0000001FFFFF800000007FFFFC000000007FFFFC00000000
0000001FFFFF800000007FFFFE000000007FFFFC00000000
0000000FFFFFC00000003FFFFE00000000FFFFF800000000
0000000FFFFFC00000003FFFFF00000000FFFFF000000000
00000007FFFFE00000001FFFFF00000001FFFFF000000000
00000007FFFFE00000001FFFFF80000001FFFFE000000000
00000003FFFFF00000003FFFFF80000003FFFFE000000000
00000001FFFFF00000003FFFFFC0000003FFFFC000000000
00000001FFFFF80000007FFFFFC0000007FFFFC000000000
00000000FFFFF8000000FFFFFFE0000007FFFF8000000000
00000000FFFFFC000000FFFFFFE000000FFFFF8000000000
000000007FFFFC000001FFFFFFF000000FFFFF0000000000
000000007FFFFE000001FFFFFFF000001FFFFF0000000000
000000003FFFFF000003FFFFFFF800001FFFFE0000000000
000000003FFFFF000003FFFFFFF800003FFFFE0000000000
000000001FFFFF800007FFFFFFFC00007FFFFC0000000000
000000001FFFFF800007FFFFFFFC00007FFFF80000000000
000000000FFFFFC0000FFFFFFFFE0000FFFFF80000000000
000000000FFFFFC0001FFFFFFFFE0000FFFFF00000000000
0000000007FFFFE0001FFFFFFFFF0001FFFFF00000000000
0000000003FFFFE0003FFFFFFFFF0001FFFFE00000000000
0000000003FFFFF0003FFFFFFFFF8003FFFFE00000000000
0000000001FFFFF0007FFFFFFFFF8003FFFFC00000000000
0000000001FFFFF8007FFFF7FFFFC007FFFFC00000000000
0000000000FFFFF800FFFFF7FFFFC007FFFF800000000000
0000000000FFFFFC00FFFFE3FFFFE00FFFFF800000000000
00000000007FFFFC01FFFFE3FFFFE00FFFFF000000000000
00000000007FFFFE03FFFFC1FFFFF01FFFFF000000000000
00000000003FFFFE03FFFFC1FFFFF01FFFFE000000000000
00000000003FFFFF07FFFF80FFFFF83FFFFC000000000000
00000000001FFFFF07FFFF80FFFFF83FFFFC000000000000
00000000001FFFFF8FFFFF007FFFFC7FFFF8000000000000
00000000000FFFFF8FFFFF007FFFFC7FFFF8000000000000
000000000007FFFFDFFFFE003FFFFEFFFFF0000000000000
000000000007FFFFFFFFFE003FFFFFFFFFF0000000000000
000000000003FFFFFFFFFC001FFFFFFFFFE0000000000000
000000000003FFFFFFFFFC001FFFFFFFFFE0000000000000
000000000001FFFFFFFFF8000FFFFFFFFFC0000000000000
000000000001FFFFFFFFF0000FFFFFFFFFC0000000000000
000000000000FFFFFFFFF00007FFFFFFFF80000000000000
000000000000FFFFFFFFE00007FFFFFFFF80000000000000
0000000000007FFFFFFFE00003FFFFFFFF00000000000000
0000000000007FFFFFFFC00001FFFFFFFE00000000000000
0000000000003FFFFFFFC00001FFFFFFFE00000000000000
0000000000003FFFFFFF800000FFFFFFFC00000000000000
0000000000001FFFFFFF800000FFFFFFFC00000000000000
0000000000000FFFFFFF0000007FFFFFF800000000000000
0000000000000FFFFFFF0000007FFFFFF800000000000000
00000000000007FFFFFE0000003FFFFFF000000000000000
00000000000007FFFFFE0000003FFFFFF000000000000000
00000000000003FFFFFC0000001FFFFFE000000000000000
00000000000003FFFFFC0000001FFFFFE000000000000000
00000000000001FFFFF80000000FFFFFC000000000000000
00000000000001FFFFF00000000FFFFFC000000000000000
00000000000000FFFFF000000007FFFF8000000000000000
00000000000000FFFFE000000007FFFF0000000000000000
000000000000007FFFE000000003FFFF0000000000000000
000000000000003FFFC000000001FFFE0000000000000000
000000000000001FFF8000000000FFFC0000000000000000
000000000000000FFE00000000007FF00000000000000000
0000000000000003F800000000001FC00000000000000000
ENDCHAR
STARTCHAR X
ENCODING 88
SWIDTH 1000 0
DWIDTH 149 0
BBX 142 108 3 0
BITMAP
0FFFFFFE00000000000000000000FFFFFF80
03FFFFFF00000000000000000001FFFFFF00
01FFFFFF80000000000000000003FFFFFE00
00FFFFFFC0000000000000000007FFFFF800
007FFFFFE000000000000000000FFFFFF000
003FFFFFF000000000000000001FFFFFE000
001FFFFFF800000000000000003FFFFFC000
000FFFFFFC00000000000000007FFFFF8000
0007FFFFFE0000000000000000FFFFFF0000
0003FFFFFF0000000000000001FFFFFE0000
0001FFFFFF8000000000000003FFFFFC0000
0000FFFFFFC000000000000007FFFFF80000
00007FFFFFE00000000000000FFFFFF00000
00003FFFFFF00000000000001FFFFFE00000
00001FFFFFF80000000000003FFFFFC00000
00000FFFFFFC0000000000007FFFFF800000
000007FFFFFE000000000000FFFFFF000000
000003FFFFFF000000000001FFFFFE000000
000001FFFFFF800000000003FFFFFC000000
000000FFFFFFC00000000007FFFFF8000000
0000007FFFFFE0000000000FFFFFF0000000
0000003FFFFFF0000000001FFFFFE0000000
0000001FFFFFF8000000003FFFFFC0000000
0000000FFFFFFC000000007FFFFF80000000
00000003FFFFFE00000000FFFFFF00000000
00000001FFFFFF00000001FFFFFE00000000
00000000FFFFFF80000003FFFFFC00000000
000000007FFFFFC0000007FFFFF800000000
000000003FFFFFE000000FFFFFF000000000
000000001FFFFFF000001FFFFFE000000000
000000000FFFFFF800003FFFFFC000000000
0000000007FFFFFC00007FFFFF8000000000
0000000003FFFFFE0000FFFFFF0000000000
0000000001FFFFFF0001FFFFFE0000000000
0000000000FFFFFF8003FFFFFC0000000000
00000000007FFFFFC007FFFFF80000000000
00000000003FFFFFE00FFFFFF00000000000
00000000001FFFFFF01FFFFFE00000000000
00000000000FFFFFF83FFFFFC00000000000
000000000007FFFFFC7FFFFF800000000000
000000000003FFFFFEFFFFFF000000000000
000000000001FFFFFFFFFFFE000000000000
000000000000FFFFFFFFFFFC000000000000
0000000000007FFFFFFFFFF8000000000000
0000000000003FFFFFFFFFF0000000000000
0000000000001FFFFFFFFFE0000000000000
0000000000000FFFFFFFFF80000000000000
00000000000007FFFFFFFF00000000000000
00000000000003FFFFFFFE00000000000000
00000000000001FFFFFFFC00000000000000
00000000000000FFFFFFF800000000000000
000000000000007FFFFFF000000000000000
000000000000003FFFFFE000000000000000
000000000000003FFFFFF000000000000000
00000000000000FFFFFFF800000000000000
00000000000001FFFFFFFC00000000000000
00000000000003FFFFFFFE00000000000000
00000000000007FFFFFFFF00000000000000
0000000000000FFFFFFFFF80000000000000
0000000000001FFFFFFFFFC0000000000000
0000000000003FFFFFFFFFE0000000000000
0000000000007FFFFFFFFFF0000000000000
000000000000FFFFFFFFFFFC000000000000
000000000001FFFFFFFFFFFE000000000000
000000000003FFFFFFFFFFFF000000000000
000000000007FFFFF9FFFFFF800000000000
00000000000FFFFFF0FFFFFFC00000000000
00000000001FFFFFE07FFFFFE00000000000
00000000003FFFFFC03FFFFFF00000000000
00000000007FFFFF801FFFFFF80000000000
0000000000FFFFFF000FFFFFFC0000000000
0000000001FFFFFE0007FFFFFE0000000000
0000000003FFFFFC0003FFFFFF0000000000
0000000007FFFFF80001FFFFFF8000000000
000000001FFFFFF00000FFFFFFC000000000
000000003FFFFFE000007FFFFFE000000000
000000007FFFFFC000003FFFFFF000000000
00000000FFFFFF0000001FFFFFF800000000
00000001FFFFFE0000000FFFFFFE00000000
00000003FFFFFC00000007FFFFFF00000000
00000007FFFFF800000001FFFFFF80000000
0000000FFFFFF000000000FFFFFFC0000000
0000001FFFFFE0000000007FFFFFE0000000
0000003FFFFFC0000000003FFFFFF0000000
0000007FFFFF80000000001FFFFFF8000000
000000FFFFFF00000000000FFFFFFC000000
000001FFFFFE000000000007FFFFFE000000
000003FFFFFC000000000003FFFFFF000000
000007FFFFF8000000000001FFFFFF800000
00000FFFFFF0000000000000FFFFFFC00000
00001FFFFFE00000000000007FFFFFE00000
00003FFFFFC00000000000003FFFFFF00000
00007FFFFF800000000000001FFFFFF80000
0000FFFFFF000000000000000FFFFFFC0000
0003FFFFFE0000000000000007FFFFFF0000
0007FFFFFC0000000000000003FFFFFF8000
000FFFFFF80000000000000001FFFFFFC000
001FFFFFF00000000000000000FFFFFFE000
003FFFFFE000000000000000007FFFFFF000
007FFFFFC000000000000000003FFFFFF800
00FFFFFF8000000000000000001FFFFFFC00
01FFFFFF0000000000000000000FFFFFFE00
03FFFFFE00000000000000000003FFFFFF00
07FFFFFC00000000000000000001FFFFFF80
0FFFFFF800000000000000000000FFFFFFC0
1FFFFFE0000000000000000000007FFFFFE0
3FFFFFC0000000000000000000003FFFFFF0
FFFFFF80000000000000000000001FFFFFFC
ENDCHAR
STARTCHAR Y
ENCODING 89
SWIDTH 926 0
DWIDTH 138 0
BBX 134 108 2 0
BITMAP
FFFFFFC000000000000000000007FFFFFC
7FFFFFE000000000000000000007FFFFF8
3FFFFFF00000000000000000000FFFFFF0
1FFFFFF00000000000000000001FFFFFE0
0FFFFFF80000000000000000003FFFFFC0
07FFFFFC0000000000000000007FFFFF80
07FFFFFE000000000000000000FFFFFF80
03FFFFFF000000000000000000FFFFFF00
01FFFFFF800000000000000001FFFFFE00
00FFFFFF800000000000000003FFFFFC00
007FFFFFC00000000000000007FFFFF800
003FFFFFE0000000000000000FFFFFF000
001FFFFFF0000000000000001FFFFFE000
001FFFFFF8000000000000001FFFFFE000
000FFFFFFC000000000000003FFFFFC000
0007FFFFFC000000000000007FFFFF8000
0003FFFFFE00000000000000FFFFFF0000
0001FFFFFF00000000000001FFFFFE0000
0000FFFFFF80000000000003FFFFFC0000
00007FFFFFC0000000000003FFFFF80000
00007FFFFFC0000000000007FFFFF80000
00003FFFFFE000000000000FFFFFF00000
00001FFFFFF000000000001FFFFFE00000
00000FFFFFF800000000003FFFFFC00000
000007FFFFFC00000000007FFFFF800000
000003FFFFFE00000000007FFFFF000000
000003FFFFFE0000000000FFFFFE000000
000001FFFFFF0000000001FFFFFE000000
000000FFFFFF8000000003FFFFFC000000
0000007FFFFFC000000007FFFFF8000000
0000003FFFFFE00000000FFFFFF0000000
0000001FFFFFF00000000FFFFFE0000000
0000000FFFFFF00000001FFFFFC0000000
0000000FFFFFF80000003FFFFF80000000
00000007FFFFFC0000007FFFFF80000000
00000003FFFFFE000000FFFFFF00000000
00000001FFFFFF000001FFFFFE00000000
00000000FFFFFF800001FFFFFC00000000
000000007FFFFF800003FFFFF800000000
000000003FFFFFC00007FFFFF000000000
000000003FFFFFE0000FFFFFF000000000
000000001FFFFFF0001FFFFFE000000000
000000000FFFFFF8003FFFFFC000000000
0000000007FFFFFC003FFFFF8000000000
0000000003FFFFFC007FFFFF0000000000
0000000001FFFFFE00FFFFFE0000000000
0000000001FFFFFF01FFFFFC0000000000
0000000000FFFFFF83FFFFFC0000000000
00000000007FFFFFC7FFFFF80000000000
00000000003FFFFFE7FFFFF00000000000
00000000001FFFFFEFFFFFE00000000000
00000000000FFFFFFFFFFFC00000000000
000000000007FFFFFFFFFF800000000000
000000000007FFFFFFFFFF000000000000
000000000003FFFFFFFFFF000000000000
000000000001FFFFFFFFFE000000000000
000000000000FFFFFFFFFC000000000000
0000000000007FFFFFFFF8000000000000
0000000000003FFFFFFFF0000000000000
0000000000001FFFFFFFE0000000000000
0000000000001FFFFFFFC0000000000000
0000000000000FFFFFFFC0000000000000
00000000000007FFFFFF80000000000000
00000000000003FFFFFF00000000000000
00000000000001FFFFFE00000000000000
00000000000000FFFFFC00000000000000
00000000000000FFFFF800000000000000
000000000000007FFFF800000000000000
000000000000007FFFF000000000000000
000000000000007FFFF000000000000000
000000000000007FFFF000000000000000
000000000000007FFFF000000000000000
000000000000007FFFF000000000000000
000000000000007FFFF000000000000000
000000000000007FFFF000000000000000
000000000000007FFFF000000000000000
000000000000007FFFF000000000000000
000000000000007FFFF000000000000000
000000000000007FFFF000000000000000
000000000000007FFFF000000000000000
000000000000007FFFF000000000000000
000000000000007FFFF000000000000000
000000000000007FFFF000000000000000
000000000000007FFFF000000000000000
000000000000007FFFF000000000000000
000000000000007FFFF000000000000000
000000000000007FFFF000000000000000
000000000000007FFFF000000000000000
000000000000007FFFF000000000000000
000000000000007FFFF000000000000000
000000000000007FFFF000000000000000
000000000000007FFFF000000000000000
000000000000007FFFF000000000000000
000000000000007FFFF000000000000000
000000000000007FFFF000000000000000
000000000000007FFFF000000000000000
000000000000007FFFF000000000000000
000000000000007FFFF000000000000000
000000000000007FFFF000000000000000
000000000000007FFFF000000000000000
000000000000007FFFF000000000000000
000000000000007FFFF000000000000000
000000000000007FFFF000000000000000
000000000000007FFFF000000000000000
000000000000007FFFF000000000000000
000000000000007FFFF000000000000000
000000000000007FFFF000000000000000
000000000000007FFFF000000000000000
ENDCHAR
STARTCHAR Z
ENCODING 90
SWIDTH 802 0
DWIDTH 120 0
BBX 107 108 6 0
BITMAP
7FFFFFFFFFFFFFFFFFFFFFFFF000
7FFFFFFFFFFFFFFFFFFFFFFFFC00
7FFFFFFFFFFFFFFFFFFFFFFFFF00
7FFFFFFFFFFFFFFFFFFFFFFFFF80
7FFFFFFFFFFFFFFFFFFFFFFFFF80
7FFFFFFFFFFFFFFFFFFFFFFFFFC0
7FFFFFFFFFFFFFFFFFFFFFFFFFC0
7FFFFFFFFFFFFFFFFFFFFFFFFFE0
7FFFFFFFFFFFFFFFFFFFFFFFFFE0
7FFFFFFFFFFFFFFFFFFFFFFFFFE0
7FFFFFFFFFFFFFFFFFFFFFFFFFE0
7FFFFFFFFFFFFFFFFFFFFFFFFFE0
7FFFFFFFFFFFFFFFFFFFFFFFFFC0
7FFFFFFFFFFFFFFFFFFFFFFFFFC0
7FFFFFFFFFFFFFFFFFFFFFFFFF80
7FFFFFFFFFFFFFFFFFFFFFFFFF80
7FFFFFFFFFFFFFFFFFFFFFFFFF00
7FFFFFFFFFFFFFFFFFFFFFFFFE00
0000000000000000001FFFFFFC00
0000000000000000003FFFFFF800
0000000000000000007FFFFFF000
000000000000000000FFFFFFE000
000000000000000001FFFFFFC000
000000000000000003FFFFFF8000
000000000000000007FFFFFF0000
00000000000000000FFFFFFE0000
00000000000000001FFFFFFC0000
00000000000000003FFFFFF80000
00000000000000007FFFFFF00000
0000000000000000FFFFFFE00000
0000000000000001FFFFFFC00000
0000000000000003FFFFFF800000
0000000000000007FFFFFF000000
000000000000000FFFFFFE000000
000000000000001FFFFFFC000000
000000000000003FFFFFF8000000
000000000000007FFFFFF0000000
00000000000000FFFFFFE0000000
00000000000001FFFFFFC0000000
00000000000003FFFFFF80000000
00000000000007FFFFFF00000000
0000000000000FFFFFFE00000000
0000000000001FFFFFFC00000000
0000000000003FFFFFF800000000
0000000000007FFFFFF000000000
000000000000FFFFFFE000000000
000000000001FFFFFFC000000000
000000000003FFFFFF8000000000
000000000007FFFFFF0000000000
00000000000FFFFFFE0000000000
00000000001FFFFFFC0000000000
00000000003FFFFFF80000000000
00000000007FFFFFF00000000000
0000000000FFFFFFE00000000000
0000000001FFFFFFC00000000000
0000000003FFFFFF800000000000
0000000007FFFFFF000000000000
000000000FFFFFFE000000000000
000000001FFFFFFC000000000000
000000003FFFFFF8000000000000
000000007FFFFFF0000000000000
000000007FFFFFE0000000000000
00000000FFFFFFC0000000000000
00000001FFFFFF80000000000000
00000003FFFFFF00000000000000
00000007FFFFFE00000000000000
0000000FFFFFFC00000000000000
0000001FFFFFF800000000000000
0000003FFFFFF000000000000000
0000007FFFFFE000000000000000
000000FFFFFFC000000000000000
000001FFFFFF8000000000000000
000003FFFFFF0000000000000000
000007FFFFFE0000000000000000
00000FFFFFFC0000000000000000
00001FFFFFF80000000000000000
00003FFFFFF00000000000000000
00007FFFFFE00000000000000000
0000FFFFFFC00000000000000000
0001FFFFFF800000000000000000
0003FFFFFF000000000000000000
0007FFFFFE000000000000000000
000FFFFFFC000000000000000000
001FFFFFF8000000000000000000
003FFFFFF0000000000000000000
007FFFFFE0000000000000000000
00FFFFFFC0000000000000000000
01FFFFFF80000000000000000000
03FFFFFF00000000000000000000
07FFFFFE00000000000000000000
0FFFFFFFFFFFFFFFFFFFFFFFFFC0
1FFFFFFFFFFFFFFFFFFFFFFFFFC0
3FFFFFFFFFFFFFFFFFFFFFFFFFC0
7FFFFFFFFFFFFFFFFFFFFFFFFFC0
7FFFFFFFFFFFFFFFFFFFFFFFFFC0
FFFFFFFFFFFFFFFFFFFFFFFFFFC0
FFFFFFFFFFFFFFFFFFFFFFFFFFC0
FFFFFFFFFFFFFFFFFFFFFFFFFFC0
FFFFFFFFFFFFFFFFFFFFFFFFFFC0
FFFFFFFFFFFFFFFFFFFFFFFFFFC0
FFFFFFFFFFFFFFFFFFFFFFFFFFC0
FFFFFFFFFFFFFFFFFFFFFFFFFFC0
7FFFFFFFFFFFFFFFFFFFFFFFFFC0
7FFFFFFFFFFFFFFFFFFFFFFFFFC0
3FFFFFFFFFFFFFFFFFFFFFFFFFC0
1FFFFFFFFFFFFFFFFFFFFFFFFFC0
07FFFFFFFFFFFFFFFFFFFFFFFFC0
01FFFFFFFFFFFFFFFFFFFFFFFFC0
ENDCHAR
STARTCHAR bracketleft
ENCODING 91
SWIDTH 333 0
DWIDTH 50 0
BBX 25 136 15 -13
BITMAP
FFFFFF80
FFFFFF80
FFFFFF80
FFFFFF80
FFFFFF80
FFFFFF80
FFFFFF80
FFFFFF80
FFFFFF80
FFFFFF80
FFFFFF80
FFFFFF80
FFF00000
FFF00000
FFF00000
FFF00000
FFF00000
FFF00000
FFF00000
FFF00000
FFF00000
FFF00000
FFF00000
FFF00000
FFF00000
FFF00000
FFF00000
FFF00000
FFF00000
FFF00000
FFF00000
FFF00000
FFF00000
FFF00000
FFF00000
FFF00000
FFF00000
FFF00000
FFF00000
FFF00000
FFF00000
FFF00000
FFF00000
FFF00000
FFF00000
FFF00000
FFF00000
FFF00000
FFF00000
FFF00000
FFF00000
FFF00000
FFF00000
FFF00000
FFF00000
FFF00000
FFF00000
FFF00000
FFF00000
FFF00000
FFF00000
FFF00000
FFF00000
FFF00000
FFF00000
FFF00000
FFF00000
FFF00000
FFF00000
FFF00000
FFF00000
FFF00000
FFF00000
FFF00000
FFF00000
FFF00000
FFF00000
FFF00000
FFF00000
FFF00000
FFF00000
FFF00000
FFF00000
FFF00000
FFF00000
FFF00000
FFF00000
FFF00000
FFF00000
FFF00000
FFF00000
FFF00000
FFF00000
FFF00000
FFF00000
FFF00000
FFF00000
FFF00000
FFF00000
FFF00000
FFF00000
FFF00000
FFF00000
FFF00000
FFF00000
FFF00000
FFF00000
FFF00000
FFF00000
FFF00000
FFF00000
FFF00000
FFF00000
FFF00000
FFF00000
FFF00000
FFF00000
FFF00000
FFF00000
FFF00000
FFF00000
FFF00000
FFF00000
FFF00000
FFFFFF80
FFFFFF80
FFFFFF80
FFFFFF80
FFFFFF80
FFFFFF80
FFFFFF80
FFFFFF80
FFFFFF80
FFFFFF80
FFFFFF80
FFFFFF80
ENDCHAR
STARTCHAR backslash
ENCODING 92
SWIDTH 445 0
DWIDTH 66 0
BBX 64 108 1 0
BITMAP
FFF8000000000000
7FFC000000000000
3FFC000000000000
3FFE000000000000
1FFE000000000000
1FFF000000000000
1FFF000000000000
0FFF800000000000
0FFF800000000000
07FF800000000000
07FFC00000000000
03FFC00000000000
03FFE00000000000
01FFE00000000000
01FFF00000000000
00FFF00000000000
00FFF80000000000
007FF80000000000
007FFC0000000000
003FFC0000000000
003FFE0000000000
003FFE0000000000
001FFF0000000000
001FFF0000000000
000FFF8000000000
000FFF8000000000
0007FF8000000000
0007FFC000000000
0003FFC000000000
0003FFE000000000
0001FFE000000000
0001FFF000000000
0000FFF000000000
0000FFF800000000
00007FF800000000
00007FFC00000000
00007FFC00000000
00003FFE00000000
00003FFE00000000
00001FFF00000000
00001FFF00000000
00000FFF80000000
00000FFF80000000
000007FF80000000
000007FFC0000000
000003FFC0000000
000003FFE0000000
000001FFE0000000
000001FFF0000000
000001FFF0000000
000000FFF8000000
000000FFF8000000
0000007FFC000000
0000007FFC000000
0000003FFE000000
0000003FFE000000
0000001FFF000000
0000001FFF000000
0000000FFF800000
0000000FFF800000
00000007FF800000
00000007FFC00000
00000003FFC00000
00000003FFE00000
00000003FFE00000
00000001FFF00000
00000001FFF00000
00000000FFF80000
00000000FFF80000
000000007FFC0000
000000007FFC0000
000000003FFE0000
000000003FFE0000
000000001FFF0000
000000001FFF0000
000000000FFF8000
000000000FFF8000
0000000007FF8000
0000000007FFC000
0000000007FFC000
0000000003FFE000
0000000003FFE000
0000000001FFF000
0000000001FFF000
0000000000FFF800
0000000000FFF800
00000000007FFC00
00000000007FFC00
00000000003FFE00
00000000003FFE00
00000000001FFF00
00000000001FFF00
00000000001FFF80
00000000000FFF80
00000000000FFF80
000000000007FFC0
000000000007FFC0
000000000003FFE0
000000000003FFE0
000000000001FFF0
000000000001FFF0
000000000000FFF8
000000000000FFF8
0000000000007FFC
0000000000007FFC
0000000000003FFE
0000000000003FFE
0000000000003FFF
ENDCHAR
STARTCHAR bracketright
ENCODING 93
SWIDTH 333 0
DWIDTH 50 0
BBX 26 136 9 -13
BITMAP
FFFFFFC0
FFFFFFC0
FFFFFFC0
FFFFFFC0
FFFFFFC0
FFFFFFC0
FFFFFFC0
FFFFFFC0
FFFFFFC0
FFFFFFC0
FFFFFFC0
FFFFFFC0
0007FFC0
0007FFC0
0007FFC0
0007FFC0
0007FFC0
0007FFC0
0007FFC0
0007FFC0
0007FFC0
0007FFC0
0007FFC0
0007FFC0
0007FFC0
0007FFC0
0007FFC0
0007FFC0
0007FFC0
0007FFC0
0007FFC0
0007FFC0
0007FFC0
0007FFC0
0007FFC0
0007FFC0
0007FFC0
0007FFC0
0007FFC0
0007FFC0
0007FFC0
0007FFC0
0007FFC0
0007FFC0
0007FFC0
0007FFC0
0007FFC0
0007FFC0
0007FFC0
0007FFC0
0007FFC0
0007FFC0
0007FFC0
0007FFC0
0007FFC0
0007FFC0
0007FFC0
0007FFC0
0007FFC0
0007FFC0
0007FFC0
0007FFC0
0007FFC0
0007FFC0
0007FFC0
0007FFC0
0007FFC0
0007FFC0
0007FFC0
0007FFC0
0007FFC0
0007FFC0
0007FFC0
0007FFC0
0007FFC0
0007FFC0
0007FFC0
0007FFC0
0007FFC0
0007FFC0
0007FFC0
0007FFC0
0007FFC0
0007FFC0
0007FFC0
0007FFC0
0007FFC0
0007FFC0
0007FFC0
0007FFC0
0007FFC0
0007FFC0
0007FFC0
0007FFC0
0007FFC0
0007FFC0
0007FFC0
0007FFC0
0007FFC0
0007FFC0
0007FFC0
0007FFC0
0007FFC0
0007FFC0
0007FFC0
0007FFC0
0007FFC0
0007FFC0
0007FFC0
0007FFC0
0007FFC0
0007FFC0
0007FFC0
0007FFC0
0007FFC0
0007FFC0
0007FFC0
0007FFC0
0007FFC0
0007FFC0
0007FFC0
0007FFC0
0007FFC0
0007FFC0
FFFFFFC0
FFFFFFC0
FFFFFFC0
FFFFFFC0
FFFFFFC0
FFFFFFC0
FFFFFFC0
FFFFFFC0
FFFFFFC0
FFFFFFC0
FFFFFFC0
FFFFFFC0
ENDCHAR
STARTCHAR asciicircum
ENCODING 94
SWIDTH 559 0
DWIDTH 83 0
BBX 65 65 9 43
BITMAP
00000003E000000000
0000000FF800000000
0000001FFC00000000
0000001FFE00000000
0000003FFF00000000
0000003FFF00000000
0000007FFF00000000
0000007FFF80000000
000000FFFF80000000
000000FFFFC0000000
000000FFFFC0000000
000001FFFFE0000000
000001FFFFE0000000
000003FFFFE0000000
000003FFFFF0000000
000007FFFFF0000000
000007FFFFF8000000
000007FF7FF8000000
00000FFF3FF8000000
00000FFE3FFC000000
00001FFE3FFC000000
00001FFE1FFE000000
00003FFC1FFE000000
00003FFC0FFF000000
00003FF80FFF000000
00007FF80FFF000000
00007FF807FF800000
0000FFF007FF800000
0000FFF003FFC00000
0001FFE003FFC00000
0001FFE003FFE00000
0001FFE001FFE00000
0003FFC001FFE00000
0003FFC000FFF00000
0007FF8000FFF00000
0007FF8000FFF80000
000FFF80007FF80000
000FFF00007FF80000
000FFF00003FFC0000
001FFE00003FFC0000
001FFE00003FFE0000
003FFE00001FFE0000
003FFC00001FFF0000
003FFC00000FFF0000
007FF800000FFF0000
007FF800000FFF8000
00FFF8000007FF8000
00FFF0000007FFC000
01FFF0000003FFC000
01FFE0000003FFC000
01FFE0000003FFE000
03FFC0000001FFE000
03FFC0000001FFF000
07FFC0000000FFF000
07FF80000000FFF800
0FFF80000000FFF800
0FFF000000007FF800
0FFF000000007FFC00
1FFF000000003FFC00
1FFE000000003FFE00
3FFE000000003FFE00
3FFC000000001FFE00
7FFC000000001FFF00
7FFC000000001FFF00
FFF8000000000FFF80
ENDCHAR
STARTCHAR underscore
ENCODING 95
SWIDTH 668 0
DWIDTH 100 0
BBX 101 9 0 -24
BITMAP
FFFFFFFFFFFFFFFFFFFFFFFFF8
FFFFFFFFFFFFFFFFFFFFFFFFF8
FFFFFFFFFFFFFFFFFFFFFFFFF8
FFFFFFFFFFFFFFFFFFFFFFFFF8
FFFFFFFFFFFFFFFFFFFFFFFFF8
FFFFFFFFFFFFFFFFFFFFFFFFF8
FFFFFFFFFFFFFFFFFFFFFFFFF8
FFFFFFFFFFFFFFFFFFFFFFFFF8
FFFFFFFFFFFFFFFFFFFFFFFFF8
ENDCHAR
STARTCHAR grave
ENCODING 96
SWIDTH 362 0
DWIDTH 54 0
BBX 38 20 8 115
BITMAP
8000000000
F000000000
FE00000000
FFC0000000
FFFC000000
FFFF800000
FFFFF00000
FFFFFF0000
FFFFFFE000
FFFFFFFC00
FFFFFFFFC0
FFFFFFFFF8
3FFFFFFFFC
03FFFFFFFC
001FFFFFFC
0000FFFFFC
00000FFFFC
0000007FFC
00000003FC
000000003C
ENDCHAR
STARTCHAR a
ENCODING 97
SWIDTH 989 0
DWIDTH 147 0
BBX 143 110 2 0
BITMAP
000000000000000001000000000000000000
00000000000000001FF00000000000000000
00000000000000003FF80000000000000000
00000000000000007FFC0000000000000000
0000000000000000FFFE0000000000000000
0000000000000001FFFF0000000000000000
0000000000000003FFFF8000000000000000
0000000000000003FFFF8000000000000000
0000000000000007FFFFC000000000000000
0000000000000007FFFFC000000000000000
000000000000000FFFFFE000000000000000
000000000000001FFFFFF000000000000000
000000000000001FFFFFF000000000000000
000000000000003FFFFFF800000000000000
000000000000003FFFFFF800000000000000
000000000000007FFFFFFC00000000000000
00000000000000FFFFFFFE00000000000000
00000000000000FFFFFFFE00000000000000
00000000000001FFFFFFFF00000000000000
00000000000001FFFFFFFF00000000000000
00000000000003FFFFFFFF80000000000000
00000000000007FFFFFFFFC0000000000000
00000000000007FFFFFFFFC0000000000000
0000000000000FFFFFFFFFE0000000000000
0000000000000FFFFFFFFFE0000000000000
0000000000001FFFFFFFFFF0000000000000
0000000000003FFFFFFFFFF8000000000000
0000000000003FFFFFFFFFF8000000000000
0000000000007FFFFDFFFFFC000000000000
0000000000007FFFFCFFFFFE000000000000
000000000000FFFFF87FFFFE000000000000
000000000001FFFFF87FFFFF000000000000
000000000001FFFFF03FFFFF000000000000
000000000003FFFFE03FFFFF800000000000
000000000003FFFFE01FFFFFC00000000000
000000000007FFFFC00FFFFFC00000000000
00000000000FFFFFC00FFFFFE00000000000
00000000000FFFFF8007FFFFE00000000000
00000000001FFFFF0007FFFFF00000000000
00000000001FFFFF0003FFFFF80000000000
00000000003FFFFE0001FFFFF80000000000
00000000007FFFFE0001FFFFFC0000000000
00000000007FFFFC0000FFFFFC0000000000
0000000000FFFFF80000FFFFFE0000000000
0000000000FFFFF800007FFFFF0000000000
0000000001FFFFF000003FFFFF0000000000
0000000003FFFFF000003FFFFF8000000000
0000000003FFFFE000001FFFFF8000000000
0000000007FFFFC000001FFFFFC000000000
0000000007FFFFC000000FFFFFE000000000
000000000FFFFF80000007FFFFE000000000
000000001FFFFF80000007FFFFF000000000
000000001FFFFF00000003FFFFF000000000
000000003FFFFE00000003FFFFF800000000
000000003FFFFE00000001FFFFFC00000000
000000007FFFFC00000000FFFFFC00000000
00000000FFFFFC00000000FFFFFE00000000
00000000FFFFF8000000007FFFFE00000000
00000001FFFFF0000000007FFFFF00000000
00000003FFFFF0000000003FFFFF80000000
00000003FFFFE0000000001FFFFF80000000
00000007FFFFE0000000001FFFFFC0000000
00000007FFFFC0000000000FFFFFC0000000
0000000FFFFF80000000000FFFFFE0000000
0000001FFFFF800000000007FFFFF0000000
0000001FFFFF000000000003FFFFF0000000
0000003FFFFF000000000003FFFFF8000000
0000003FFFFE000000000001FFFFF8000000
0000007FFFFC0007FFFFFFFFFFFFFC000000
000000FFFFFC0007FFFFFFFFFFFFFE000000
000000FFFFF8000FFFFFFFFFFFFFFE000000
000001FFFFF8000FFFFFFFFFFFFFFF000000
000001FFFFF0001FFFFFFFFFFFFFFF000000
000003FFFFE0003FFFFFFFFFFFFFFF800000
000007FFFFE0003FFFFFFFFFFFFFFFC00000
000007FFFFC0007FFFFFFFFFFFFFFFC00000
00000FFFFFC0007FFFFFFFFFFFFFFFE00000
00000FFFFF8000FFFFFFFFFFFFFFFFF00000
00001FFFFF0001FFFFFFFFFFFFFFFFF00000
00003FFFFF0001FFFFFFFFFFFFFFFFF80000
00003FFFFE0003FFFFFFFFFFFFFFFFF80000
00007FFFFE0003FFFFFFFFFFFFFFFFFC0000
00007FFFFC0007FFFFFFFFFFFFFFFFFE0000
0000FFFFFC0000000000000000FFFFFE0000
0001FFFFF800000000000000007FFFFF0000
0001FFFFF000000000000000003FFFFF0000
0003FFFFF000000000000000003FFFFF8000
0003FFFFE000000000000000001FFFFFC000
0007FFFFE000000000000000001FFFFFC000
000FFFFFC000000000000000000FFFFFE000
000FFFFF80000000000000000007FFFFE000
001FFFFF80000000000000000007FFFFF000
001FFFFF00000000000000000003FFFFF800
003FFFFF00000000000000000003FFFFF800
007FFFFE00000000000000000001FFFFFC00
007FFFFC00000000000000000000FFFFFC00
00FFFFFC00000000000000000000FFFFFE00
00FFFFF8000000000000000000007FFFFF00
01FFFFF8000000000000000000007FFFFF00
03FFFFF0000000000000000000003FFFFF80
03FFFFE0000000000000000000001FFFFF80
07FFFFE0000000000000000000001FFFFFC0
07FFFFC0000000000000000000000FFFFFE0
0FFFFFC0000000000000000000000FFFFFE0
1FFFFF800000000000000000000007FFFFF0
1FFFFF000000000000000000000003FFFFF0
3FFFFF000000000000000000000003FFFFF8
3FFFFE000000000000000000000001FFFFFC
7FFFFE000000000000000000000001FFFFFC
FFFFFC000000000000000000000000FFFFFE
ENDCHAR
STARTCHAR b
ENCODING 98
SWIDTH 891 0
DWIDTH 133 0
BBX 117 108 9 0
BITMAP
FFFFFFFFFFFFFFFFFFFFFE00000000
FFFFFFFFFFFFFFFFFFFFFFF8000000
FFFFFFFFFFFFFFFFFFFFFFFF000000
FFFFFFFFFFFFFFFFFFFFFFFFE00000
FFFFFFFFFFFFFFFFFFFFFFFFF80000
FFFFFFFFFFFFFFFFFFFFFFFFFE0000
FFFFFFFFFFFFFFFFFFFFFFFFFF0000
FFFFFFFFFFFFFFFFFFFFFFFFFFC000
FFFFFFFFFFFFFFFFFFFFFFFFFFE000
FFFFFFFFFFFFFFFFFFFFFFFFFFF000
FFFFFFFFFFFFFFFFFFFFFFFFFFF800
FFFFFFFFFFFFFFFFFFFFFFFFFFF800
FFFFFFFFFFFFFFFFFFFFFFFFFFFC00
FFFFFFFFFFFFFFFFFFFFFFFFFFFE00
FFFFFFFFFFFFFFFFFFFFFFFFFFFE00
FFFFFFFFFFFFFFFFFFFFFFFFFFFF00
FFFFFFFFFFFFFFFFFFFFFFFFFFFF00
FFFFFFFFFFFFFFFFFFFFFFFFFFFF80
FFFFFFFFFFFFFFFFFFFFFFFFFFFF80
FFFFE0000000000000001FFFFFFFC0
FFFFE00000000000000001FFFFFFC0
FFFFE000000000000000003FFFFFC0
FFFFE000000000000000001FFFFFC0
FFFFE000000000000000000FFFFFC0
FFFFE0000000000000000007FFFFC0
FFFFE0000000000000000003FFFFE0
FFFFE0000000000000000003FFFFE0
FFFFE0000000000000000001FFFFE0
FFFFE0000000000000000001FFFFE0
FFFFE0000000000000000001FFFFE0
FFFFE0000000000000000001FFFFE0
FFFFE0000000000000000001FFFFE0
FFFFE0000000000000000001FFFFC0
FFFFE0000000000000000001FFFFC0
FFFFE0000000000000000001FFFFC0
FFFFE0000000000000000001FFFFC0
FFFFE0000000000000000001FFFFC0
FFFFE0000000000000000001FFFF80
FFFFE0000000000000000003FFFF80
FFFFE0000000000000000003FFFF80
FFFFE0000000000000000007FFFF00
FFFFE000000000000000000FFFFF00
FFFFE000000000000000001FFFFE00
FFFFE000000000000000007FFFFC00
FFFFE00000000000000003FFFFF800
FFFFE0007FFFFFFFFFFFFFFFFFF000
FFFFE0007FFFFFFFFFFFFFFFFFF000
FFFFE0007FFFFFFFFFFFFFFFFFC000
FFFFE0007FFFFFFFFFFFFFFFFF8000
FFFFE0007FFFFFFFFFFFFFFFFE0000
FFFFE0007FFFFFFFFFFFFFFFF80000
FFFFE0007FFFFFFFFFFFFFFFF80000
FFFFE0007FFFFFFFFFFFFFFFFF0000
FFFFE0007FFFFFFFFFFFFFFFFF8000
FFFFE0007FFFFFFFFFFFFFFFFFE000
FFFFE0007FFFFFFFFFFFFFFFFFF000
FFFFE0007FFFFFFFFFFFFFFFFFF800
FFFFE0007FFFFFFFFFFFFFFFFFFC00
FFFFE0007FFFFFFFFFFFFFFFFFFE00
FFFFE0007FFFFFFFFFFFFFFFFFFF00
FFFFE0007FFFFFFFFFFFFFFFFFFF80
FFFFE00000000000000003FFFFFF80
FFFFE000000000000000003FFFFFC0
FFFFE000000000000000000FFFFFC0
FFFFE0000000000000000007FFFFE0
FFFFE0000000000000000003FFFFE0
FFFFE0000000000000000001FFFFE0
FFFFE0000000000000000000FFFFF0
FFFFE0000000000000000000FFFFF0
FFFFE00000000000000000007FFFF0
FFFFE00000000000000000007FFFF0
FFFFE00000000000000000007FFFF0
FFFFE00000000000000000007FFFF0
FFFFE00000000000000000007FFFF8
FFFFE00000000000000000007FFFF8
FFFFE00000000000000000007FFFF8
FFFFE00000000000000000007FFFF8
FFFFE00000000000000000007FFFF8
FFFFE00000000000000000007FFFF0
FFFFE00000000000000000007FFFF0
FFFFE0000000000000000000FFFFF0
FFFFE0000000000000000000FFFFF0
FFFFE0000000000000000001FFFFF0
FFFFE0000000000000000003FFFFF0
FFFFE0000000000000000007FFFFF0
FFFFE000000000000000000FFFFFE0
FFFFE000000000000000003FFFFFE0
FFFFE00000000000000001FFFFFFE0
FFFFE0000000000000001FFFFFFFC0
FFFFFFFFFFFFFFFFFFFFFFFFFFFFC0
FFFFFFFFFFFFFFFFFFFFFFFFFFFF80
FFFFFFFFFFFFFFFFFFFFFFFFFFFF80
FFFFFFFFFFFFFFFFFFFFFFFFFFFF00
FFFFFFFFFFFFFFFFFFFFFFFFFFFF00
FFFFFFFFFFFFFFFFFFFFFFFFFFFE00
FFFFFFFFFFFFFFFFFFFFFFFFFFFC00
FFFFFFFFFFFFFFFFFFFFFFFFFFFC00
FFFFFFFFFFFFFFFFFFFFFFFFFFF800
FFFFFFFFFFFFFFFFFFFFFFFFFFF000
FFFFFFFFFFFFFFFFFFFFFFFFFFE000
FFFFFFFFFFFFFFFFFFFFFFFFFFC000
FFFFFFFFFFFFFFFFFFFFFFFFFF0000
FFFFFFFFFFFFFFFFFFFFFFFFFE0000
FFFFFFFFFFFFFFFFFFFFFFFFF80000
FFFFFFFFFFFFFFFFFFFFFFFFE00000
FFFFFFFFFFFFFFFFFFFFFFFF800000
FFFFFFFFFFFFFFFFFFFFFFFC000000
FFFFFFFFFFFFFFFFFFFFFF80000000
ENDCHAR
STARTCHAR c
ENCODING 99
SWIDTH 829 0
DWIDTH 124 0
BBX 112 108 6 0
BITMAP
000000000007FFFFFFFFFFFFFFFF
0000000001FFFFFFFFFFFFFFFFFF
000000000FFFFFFFFFFFFFFFFFFF
000000007FFFFFFFFFFFFFFFFFFF
00000003FFFFFFFFFFFFFFFFFFFF
0000000FFFFFFFFFFFFFFFFFFFFF
0000003FFFFFFFFFFFFFFFFFFFFF
000000FFFFFFFFFFFFFFFFFFFFFF
000001FFFFFFFFFFFFFFFFFFFFFF
000007FFFFFFFFFFFFFFFFFFFFFF
00000FFFFFFFFFFFFFFFFFFFFFFF
00001FFFFFFFFFFFFFFFFFFFFFFF
00007FFFFFFFFFFFFFFFFFFFFFFF
0000FFFFFFFFFFFFFFFFFFFFFFFF
0001FFFFFFFFFFFFFFFFFFFFFFFF
0003FFFFFFFFFFFFFFFFFFFFFFFF
0007FFFFFFFFFFFFFFFFFFFFFFFF
000FFFFFFFFFFFFFFFFFFFFFFFFF
000FFFFFFFFFFFFFFFFFFFFFFFFF
001FFFFFFFFC0000000000000000
003FFFFFFFC00000000000000000
007FFFFFFE000000000000000000
007FFFFFF8000000000000000000
00FFFFFFE0000000000000000000
01FFFFFFC0000000000000000000
01FFFFFF00000000000000000000
03FFFFFE00000000000000000000
03FFFFFC00000000000000000000
07FFFFF800000000000000000000
07FFFFF000000000000000000000
0FFFFFE000000000000000000000
0FFFFFC000000000000000000000
0FFFFFC000000000000000000000
1FFFFF8000000000000000000000
1FFFFF0000000000000000000000
1FFFFF0000000000000000000000
3FFFFE0000000000000000000000
3FFFFE0000000000000000000000
3FFFFC0000000000000000000000
3FFFFC0000000000000000000000
7FFFF80000000000000000000000
7FFFF80000000000000000000000
7FFFF80000000000000000000000
7FFFF00000000000000000000000
7FFFF00000000000000000000000
7FFFF00000000000000000000000
7FFFF00000000000000000000000
FFFFF00000000000000000000000
FFFFE00000000000000000000000
FFFFE00000000000000000000000
FFFFE00000000000000000000000
FFFFE00000000000000000000000
FFFFE00000000000000000000000
FFFFE00000000000000000000000
FFFFE00000000000000000000000
FFFFE00000000000000000000000
FFFFE00000000000000000000000
FFFFE00000000000000000000000
FFFFE00000000000000000000000
7FFFF00000000000000000000000
7FFFF00000000000000000000000
7FFFF00000000000000000000000
7FFFF00000000000000000000000
7FFFF00000000000000000000000
7FFFF80000000000000000000000
7FFFF80000000000000000000000
3FFFF80000000000000000000000
3FFFFC0000000000000000000000
3FFFFC0000000000000000000000
3FFFFC0000000000000000000000
1FFFFE0000000000000000000000
1FFFFE0000000000000000000000
1FFFFF0000000000000000000000
0FFFFF0000000000000000000000
0FFFFF8000000000000000000000
0FFFFFC000000000000000000000
07FFFFC000000000000000000000
07FFFFE000000000000000000000
03FFFFF000000000000000000000
03FFFFF800000000000000000000
01FFFFFC00000000000000000000
01FFFFFE00000000000000000000
00FFFFFF80000000000000000000
007FFFFFC0000000000000000000
007FFFFFF0000000000000000000
003FFFFFF8000000000000000000
003FFFFFFE000000000000000000
001FFFFFFFC00000000000000000
000FFFFFFFFC0000000000000000
0007FFFFFFFFFFFFFFFFFFFFFFFF
0003FFFFFFFFFFFFFFFFFFFFFFFF
0001FFFFFFFFFFFFFFFFFFFFFFFF
0000FFFFFFFFFFFFFFFFFFFFFFFF
00007FFFFFFFFFFFFFFFFFFFFFFF
00003FFFFFFFFFFFFFFFFFFFFFFF
00001FFFFFFFFFFFFFFFFFFFFFFF
00000FFFFFFFFFFFFFFFFFFFFFFF
000007FFFFFFFFFFFFFFFFFFFFFF
000001FFFFFFFFFFFFFFFFFFFFFF
000000FFFFFFFFFFFFFFFFFFFFFF
0000003FFFFFFFFFFFFFFFFFFFFF
0000001FFFFFFFFFFFFFFFFFFFFF
00000007FFFFFFFFFFFFFFFFFFFF
00000001FFFFFFFFFFFFFFFFFFFF
000000003FFFFFFFFFFFFFFFFFFF
000000000FFFFFFFFFFFFFFFFFFF
0000000000FFFFFFFFFFFFFFFFFF
000000000007FFFFFFFFFFFFFFFF
ENDCHAR
STARTCHAR d
ENCODING 100
SWIDTH 879 0
DWIDTH 131 0
BBX 116 108 9 0
BITMAP
FFFFFFFFFFFFFFFFFE000000000000
FFFFFFFFFFFFFFFFFFF80000000000
FFFFFFFFFFFFFFFFFFFF0000000000
FFFFFFFFFFFFFFFFFFFFE000000000
FFFFFFFFFFFFFFFFFFFFFC00000000
FFFFFFFFFFFFFFFFFFFFFF00000000
FFFFFFFFFFFFFFFFFFFFFFC0000000
FFFFFFFFFFFFFFFFFFFFFFF0000000
FFFFFFFFFFFFFFFFFFFFFFF8000000
FFFFFFFFFFFFFFFFFFFFFFFE000000
FFFFFFFFFFFFFFFFFFFFFFFF000000
FFFFFFFFFFFFFFFFFFFFFFFF800000
FFFFFFFFFFFFFFFFFFFFFFFFE00000
FFFFFFFFFFFFFFFFFFFFFFFFF00000
FFFFFFFFFFFFFFFFFFFFFFFFF80000
FFFFFFFFFFFFFFFFFFFFFFFFFC0000
FFFFFFFFFFFFFFFFFFFFFFFFFE0000
FFFFFFFFFFFFFFFFFFFFFFFFFF0000
FFFFFFFFFFFFFFFFFFFFFFFFFF0000
FFFFE0000000000003FFFFFFFF8000
FFFFE00000000000003FFFFFFFC000
FFFFE000000000000007FFFFFFE000
FFFFE000000000000001FFFFFFE000
FFFFE0000000000000007FFFFFF000
FFFFE0000000000000003FFFFFF800
FFFFE0000000000000000FFFFFF800
FFFFE00000000000000007FFFFFC00
FFFFE00000000000000003FFFFFC00
FFFFE00000000000000001FFFFFE00
FFFFE00000000000000000FFFFFE00
FFFFE000000000000000007FFFFF00
FFFFE000000000000000003FFFFF00
FFFFE000000000000000003FFFFF00
FFFFE000000000000000001FFFFF80
FFFFE000000000000000000FFFFF80
FFFFE000000000000000000FFFFF80
FFFFE0000000000000000007FFFFC0
FFFFE0000000000000000007FFFFC0
FFFFE0000000000000000003FFFFC0
FFFFE0000000000000000003FFFFC0
FFFFE0000000000000000001FFFFE0
FFFFE0000000000000000001FFFFE0
FFFFE0000000000000000001FFFFE0
FFFFE0000000000000000000FFFFE0
FFFFE0000000000000000000FFFFE0
FFFFE0000000000000000000FFFFE0
FFFFE0000000000000000000FFFFF0
FFFFE0000000000000000000FFFFF0
FFFFE00000000000000000007FFFF0
FFFFE00000000000000000007FFFF0
FFFFE00000000000000000007FFFF0
FFFFE00000000000000000007FFFF0
FFFFE00000000000000000007FFFF0
FFFFE00000000000000000007FFFF0
FFFFE00000000000000000007FFFF0
FFFFE00000000000000000007FFFF0
FFFFE00000000000000000007FFFF0
FFFFE00000000000000000007FFFF0
FFFFE00000000000000000007FFFF0
FFFFE00000000000000000007FFFF0
FFFFE0000000000000000000FFFFE0
FFFFE0000000000000000000FFFFE0
FFFFE0000000000000000000FFFFE0
FFFFE0000000000000000000FFFFE0
FFFFE0000000000000000000FFFFE0
FFFFE0000000000000000001FFFFE0
FFFFE0000000000000000001FFFFC0
FFFFE0000000000000000001FFFFC0
FFFFE0000000000000000003FFFFC0
FFFFE0000000000000000003FFFFC0
FFFFE0000000000000000007FFFF80
FFFFE0000000000000000007FFFF80
FFFFE000000000000000000FFFFF80
FFFFE000000000000000000FFFFF00
FFFFE000000000000000001FFFFF00
FFFFE000000000000000003FFFFF00
FFFFE000000000000000003FFFFE00
FFFFE000000000000000007FFFFE00
FFFFE00000000000000000FFFFFC00
FFFFE00000000000000001FFFFFC00
FFFFE00000000000000003FFFFF800
FFFFE00000000000000007FFFFF800
FFFFE0000000000000001FFFFFF000
FFFFE0000000000000003FFFFFF000
FFFFE000000000000000FFFFFFE000
FFFFE000000000000001FFFFFFC000
FFFFE00000000000000FFFFFFFC000
FFFFE00000000000003FFFFFFF8000
FFFFE0000000000003FFFFFFFF0000
FFFFFFFFFFFFFFFFFFFFFFFFFE0000
FFFFFFFFFFFFFFFFFFFFFFFFFC0000
FFFFFFFFFFFFFFFFFFFFFFFFFC0000
FFFFFFFFFFFFFFFFFFFFFFFFF80000
FFFFFFFFFFFFFFFFFFFFFFFFF00000
FFFFFFFFFFFFFFFFFFFFFFFFE00000
FFFFFFFFFFFFFFFFFFFFFFFFC00000
FFFFFFFFFFFFFFFFFFFFFFFF000000
FFFFFFFFFFFFFFFFFFFFFFFE000000
FFFFFFFFFFFFFFFFFFFFFFFC000000
FFFFFFFFFFFFFFFFFFFFFFF0000000
FFFFFFFFFFFFFFFFFFFFFFE0000000
FFFFFFFFFFFFFFFFFFFFFF80000000
FFFFFFFFFFFFFFFFFFFFFE00000000
FFFFFFFFFFFFFFFFFFFFF800000000
FFFFFFFFFFFFFFFFFFFFE000000000
FFFFFFFFFFFFFFFFFFFF0000000000
FFFFFFFFFFFFFFFFFFF00000000000
FFFFFFFFFFFFFFFFFE000000000000
ENDCHAR
STARTCHAR e
ENCODING 101
SWIDTH 759 0
DWIDTH 113 0
BBX 97 108 9 0
BITMAP
FFFFFFFFFFFFFFFFFFFFFFFF80
FFFFFFFFFFFFFFFFFFFFFFFF80
FFFFFFFFFFFFFFFFFFFFFFFF80
FFFFFFFFFFFFFFFFFFFFFFFF80
FFFFFFFFFFFFFFFFFFFFFFFF80
FFFFFFFFFFFFFFFFFFFFFFFF80
FFFFFFFFFFFFFFFFFFFFFFFF80
FFFFFFFFFFFFFFFFFFFFFFFF80
FFFFFFFFFFFFFFFFFFFFFFFF80
FFFFFFFFFFFFFFFFFFFFFFFF80
FFFFFFFFFFFFFFFFFFFFFFFF80
FFFFFFFFFFFFFFFFFFFFFFFF80
FFFFFFFFFFFFFFFFFFFFFFFF80
FFFFFFFFFFFFFFFFFFFFFFFF80
FFFFFFFFFFFFFFFFFFFFFFFF80
FFFFFFFFFFFFFFFFFFFFFFFF80
FFFFFFFFFFFFFFFFFFFFFFFF80
FFFFFFFFFFFFFFFFFFFFFFFF80
FFFFFFFFFFFFFFFFFFFFFFFF80
FFFFE000000000000000000000
FFFFE000000000000000000000
FFFFE000000000000000000000
FFFFE000000000000000000000
FFFFE000000000000000000000
FFFFE000000000000000000000
FFFFE000000000000000000000
FFFFE000000000000000000000
FFFFE000000000000000000000
FFFFE000000000000000000000
FFFFE000000000000000000000
FFFFE000000000000000000000
FFFFE000000000000000000000
FFFFE000000000000000000000
FFFFE000000000000000000000
FFFFE000000000000000000000
FFFFE000000000000000000000
FFFFE000000000000000000000
FFFFE000000000000000000000
FFFFE000000000000000000000
FFFFE000000000000000000000
FFFFE000000000000000000000
FFFFE000000000000000000000
FFFFE000000000000000000000
FFFFE000000000000000000000
FFFFE000000000000000000000
FFFFE0007FFFFFFFFFFFFFF800
FFFFE0007FFFFFFFFFFFFFF800
FFFFE0007FFFFFFFFFFFFFF800
FFFFE0007FFFFFFFFFFFFFF800
FFFFE0007FFFFFFFFFFFFFF800
FFFFE0007FFFFFFFFFFFFFF800
FFFFE0007FFFFFFFFFFFFFF800
FFFFE0007FFFFFFFFFFFFFF800
FFFFE0007FFFFFFFFFFFFFF800
FFFFE0007FFFFFFFFFFFFFF800
FFFFE0007FFFFFFFFFFFFFF800
FFFFE0007FFFFFFFFFFFFFF800
FFFFE0007FFFFFFFFFFFFFF800
FFFFE0007FFFFFFFFFFFFFF800
FFFFE0007FFFFFFFFFFFFFF800
FFFFE0007FFFFFFFFFFFFFF800
FFFFE000000000000000000000
FFFFE000000000000000000000
FFFFE000000000000000000000
FFFFE000000000000000000000
FFFFE000000000000000000000
FFFFE000000000000000000000
FFFFE000000000000000000000
FFFFE000000000000000000000
FFFFE000000000000000000000
FFFFE000000000000000000000
FFFFE000000000000000000000
FFFFE000000000000000000000
FFFFE000000000000000000000
FFFFE000000000000000000000
FFFFE000000000000000000000
FFFFE000000000000000000000
FFFFE000000000000000000000
FFFFE000000000000000000000
FFFFE000000000000000000000
FFFFE000000000000000000000
FFFFE000000000000000000000
FFFFE000000000000000000000
FFFFE000000000000000000000
FFFFE000000000000000000000
FFFFE000000000000000000000
FFFFE000000000000000000000
FFFFE000000000000000000000
FFFFE000000000000000000000
FFFFFFFFFFFFFFFFFFFFFFFF80
FFFFFFFFFFFFFFFFFFFFFFFF80
FFFFFFFFFFFFFFFFFFFFFFFF80
FFFFFFFFFFFFFFFFFFFFFFFF80
FFFFFFFFFFFFFFFFFFFFFFFF80
FFFFFFFFFFFFFFFFFFFFFFFF80
FFFFFFFFFFFFFFFFFFFFFFFF80
FFFFFFFFFFFFFFFFFFFFFFFF80
FFFFFFFFFFFFFFFFFFFFFFFF80
FFFFFFFFFFFFFFFFFFFFFFFF80
FFFFFFFFFFFFFFFFFFFFFFFF80
FFFFFFFFFFFFFFFFFFFFFFFF80
FFFFFFFFFFFFFFFFFFFFFFFF80
FFFFFFFFFFFFFFFFFFFFFFFF80
FFFFFFFFFFFFFFFFFFFFFFFF80
FFFFFFFFFFFFFFFFFFFFFFFF80
FFFFFFFFFFFFFFFFFFFFFFFF80
FFFFFFFFFFFFFFFFFFFFFFFF80
FFFFFFFFFFFFFFFFFFFFFFFF80
ENDCHAR
STARTCHAR f
ENCODING 102
SWIDTH 705 0
DWIDTH 105 0
BBX 92 108 9 0
BITMAP
FFFFFFFFFFFFFFFFFFFFFFF0
FFFFFFFFFFFFFFFFFFFFFFF0
FFFFFFFFFFFFFFFFFFFFFFF0
FFFFFFFFFFFFFFFFFFFFFFF0
FFFFFFFFFFFFFFFFFFFFFFF0
FFFFFFFFFFFFFFFFFFFFFFF0
FFFFFFFFFFFFFFFFFFFFFFF0
FFFFFFFFFFFFFFFFFFFFFFF0
FFFFFFFFFFFFFFFFFFFFFFF0
FFFFFFFFFFFFFFFFFFFFFFF0
FFFFFFFFFFFFFFFFFFFFFFF0
FFFFFFFFFFFFFFFFFFFFFFF0
FFFFFFFFFFFFFFFFFFFFFFF0
FFFFFFFFFFFFFFFFFFFFFFF0
FFFFFFFFFFFFFFFFFFFFFFF0
FFFFFFFFFFFFFFFFFFFFFFF0
FFFFFFFFFFFFFFFFFFFFFFF0
FFFFFFFFFFFFFFFFFFFFFFF0
FFFFFFFFFFFFFFFFFFFFFFF0
FFFFE0000000000000000000
FFFFE0000000000000000000
FFFFE0000000000000000000
FFFFE0000000000000000000
FFFFE0000000000000000000
FFFFE0000000000000000000
FFFFE0000000000000000000
FFFFE0000000000000000000
FFFFE0000000000000000000
FFFFE0000000000000000000
FFFFE0000000000000000000
FFFFE0000000000000000000
FFFFE0000000000000000000
FFFFE0000000000000000000
FFFFE0000000000000000000
FFFFE0000000000000000000
FFFFE0000000000000000000
FFFFE0000000000000000000
FFFFE0000000000000000000
FFFFE0000000000000000000
FFFFE0000000000000000000
FFFFE0000000000000000000
FFFFE0000000000000000000
FFFFE0000000000000000000
FFFFE0000000000000000000
FFFFE0000000000000000000
FFFFE0000000000000000000
FFFFE0000000000000000000
FFFFE0007FFFFFFFFFFFFF00
FFFFE0007FFFFFFFFFFFFF00
FFFFE0007FFFFFFFFFFFFF00
FFFFE0007FFFFFFFFFFFFF00
FFFFE0007FFFFFFFFFFFFF00
FFFFE0007FFFFFFFFFFFFF00
FFFFE0007FFFFFFFFFFFFF00
FFFFE0007FFFFFFFFFFFFF00
FFFFE0007FFFFFFFFFFFFF00
FFFFE0007FFFFFFFFFFFFF00
FFFFE0007FFFFFFFFFFFFF00
FFFFE0007FFFFFFFFFFFFF00
FFFFE0007FFFFFFFFFFFFF00
FFFFE0007FFFFFFFFFFFFF00
FFFFE0007FFFFFFFFFFFFF00
FFFFE0007FFFFFFFFFFFFF00
FFFFE0007FFFFFFFFFFFFF00
FFFFE0000000000000000000
FFFFE0000000000000000000
FFFFE0000000000000000000
FFFFE0000000000000000000
FFFFE0000000000000000000
FFFFE0000000000000000000
FFFFE0000000000000000000
FFFFE0000000000000000000
FFFFE0000000000000000000
FFFFE0000000000000000000
FFFFE0000000000000000000
FFFFE0000000000000000000
FFFFE0000000000000000000
FFFFE0000000000000000000
FFFFE0000000000000000000
FFFFE0000000000000000000
FFFFE0000000000000000000
FFFFE0000000000000000000
FFFFE0000000000000000000
FFFFE0000000000000000000
FFFFE0000000000000000000
FFFFE0000000000000000000
FFFFE0000000000000000000
FFFFE0000000000000000000
FFFFE0000000000000000000
FFFFE0000000000000000000
FFFFE0000000000000000000
FFFFE0000000000000000000
FFFFE0000000000000000000
FFFFE0000000000000000000
FFFFE0000000000000000000
FFFFE0000000000000000000
FFFFE0000000000000000000
FFFFE0000000000000000000
FFFFE0000000000000000000
FFFFE0000000000000000000
FFFFE0000000000000000000
FFFFE0000000000000000000
FFFFE0000000000000000000
FFFFE0000000000000000000
FFFFE0000000000000000000
FFFFE0000000000000000000
FFFFE0000000000000000000
FFFFE0000000000000000000
ENDCHAR
STARTCHAR g
ENCODING 103
SWIDTH 888 0
DWIDTH 132 0
BBX 118 108 6 0
BITMAP
000000000007FFFFFFFFFFFFFFFF00
0000000001FFFFFFFFFFFFFFFFFF00
000000000FFFFFFFFFFFFFFFFFFF00
000000007FFFFFFFFFFFFFFFFFFF00
00000003FFFFFFFFFFFFFFFFFFFF00
0000000FFFFFFFFFFFFFFFFFFFFF00
0000003FFFFFFFFFFFFFFFFFFFFF00
000000FFFFFFFFFFFFFFFFFFFFFF00
000001FFFFFFFFFFFFFFFFFFFFFF00
000007FFFFFFFFFFFFFFFFFFFFFF00
00000FFFFFFFFFFFFFFFFFFFFFFF00
00001FFFFFFFFFFFFFFFFFFFFFFF00
00007FFFFFFFFFFFFFFFFFFFFFFF00
0000FFFFFFFFFFFFFFFFFFFFFFFF00
0001FFFFFFFFFFFFFFFFFFFFFFFF00
0003FFFFFFFFFFFFFFFFFFFFFFFF00
0007FFFFFFFFFFFFFFFFFFFFFFFF00
000FFFFFFFFFFFFFFFFFFFFFFFFF00
000FFFFFFFFFFFFFFFFFFFFFFFFF00
001FFFFFFFFC000000000000000000
003FFFFFFFC0000000000000000000
007FFFFFFE00000000000000000000
007FFFFFF800000000000000000000
00FFFFFFE000000000000000000000
01FFFFFFC000000000000000000000
01FFFFFF0000000000000000000000
03FFFFFE0000000000000000000000
03FFFFFC0000000000000000000000
07FFFFF80000000000000000000000
07FFFFF00000000000000000000000
0FFFFFE00000000000000000000000
0FFFFFC00000000000000000000000
0FFFFFC00000000000000000000000
1FFFFF800000000000000000000000
1FFFFF000000000000000000000000
1FFFFF000000000000000000000000
3FFFFE000000000000000000000000
3FFFFE000000000000000000000000
3FFFFC000000000000000000000000
3FFFFC000000000000000000000000
7FFFF8000000000000000000000000
7FFFF8000000000000000000000000
7FFFF8000000000000000000000000
7FFFF0000000000000000000000000
7FFFF0000000000000000000000000
7FFFF00000003FFFFFFFFFFFFFFFFC
7FFFF00000003FFFFFFFFFFFFFFFFC
FFFFF00000003FFFFFFFFFFFFFFFFC
FFFFE00000003FFFFFFFFFFFFFFFFC
FFFFE00000003FFFFFFFFFFFFFFFFC
FFFFE00000003FFFFFFFFFFFFFFFFC
FFFFE00000003FFFFFFFFFFFFFFFFC
FFFFE00000003FFFFFFFFFFFFFFFFC
FFFFE00000003FFFFFFFFFFFFFFFFC
FFFFE00000003FFFFFFFFFFFFFFFFC
FFFFE00000003FFFFFFFFFFFFFFFFC
FFFFE00000003FFFFFFFFFFFFFFFFC
FFFFE00000003FFFFFFFFFFFFFFFFC
FFFFE00000003FFFFFFFFFFFFFFFFC
7FFFF00000003FFFFFFFFFFFFFFFFC
7FFFF00000003FFFFFFFFFFFFFFFFC
7FFFF00000000000000000001FFFFC
7FFFF00000000000000000001FFFFC
7FFFF00000000000000000001FFFFC
7FFFF80000000000000000001FFFFC
7FFFF80000000000000000001FFFFC
3FFFF80000000000000000001FFFFC
3FFFFC0000000000000000001FFFFC
3FFFFC0000000000000000001FFFFC
3FFFFC0000000000000000001FFFFC
1FFFFE0000000000000000001FFFFC
1FFFFE0000000000000000001FFFFC
1FFFFF0000000000000000001FFFFC
0FFFFF0000000000000000001FFFFC
0FFFFF8000000000000000001FFFFC
0FFFFFC000000000000000001FFFFC
07FFFFC000000000000000001FFFFC
07FFFFE000000000000000001FFFFC
03FFFFF000000000000000001FFFFC
03FFFFF800000000000000001FFFFC
01FFFFFC00000000000000001FFFFC
01FFFFFE00000000000000001FFFFC
00FFFFFF80000000000000001FFFFC
007FFFFFC0000000000000001FFFFC
007FFFFFF0000000000000001FFFFC
003FFFFFF8000000000000001FFFFC
003FFFFFFE000000000000001FFFFC
001FFFFFFFC00000000000001FFFFC
000FFFFFFFFC0000000000001FFFFC
0007FFFFFFFFFFFFFFFFFFFFFFFFFC
0003FFFFFFFFFFFFFFFFFFFFFFFFFC
0001FFFFFFFFFFFFFFFFFFFFFFFFFC
0000FFFFFFFFFFFFFFFFFFFFFFFFFC
00007FFFFFFFFFFFFFFFFFFFFFFFFC
00003FFFFFFFFFFFFFFFFFFFFFFFFC
00001FFFFFFFFFFFFFFFFFFFFFFFFC
00000FFFFFFFFFFFFFFFFFFFFFFFFC
000007FFFFFFFFFFFFFFFFFFFFFFFC
000001FFFFFFFFFFFFFFFFFFFFFFFC
000000FFFFFFFFFFFFFFFFFFFFFFFC
0000003FFFFFFFFFFFFFFFFFFFFFFC
0000001FFFFFFFFFFFFFFFFFFFFFFC
00000007FFFFFFFFFFFFFFFFFFFFFC
00000001FFFFFFFFFFFFFFFFFFFFFC
000000003FFFFFFFFFFFFFFFFFFFFC
000000000FFFFFFFFFFFFFFFFFFFFC
0000000000FFFFFFFFFFFFFFFFFFFC
000000000007FFFFFFFFFFFFFFFFFC
ENDCHAR
STARTCHAR h
ENCODING 104
SWIDTH 838 0
DWIDTH 125 0
BBX 106 108 9 0
BITMAP
FFFFE00000000000000000FFFFC0
FFFFE00000000000000000FFFFC0
FFFFE00000000000000000FFFFC0
FFFFE00000000000000000FFFFC0
FFFFE00000000000000000FFFFC0
FFFFE00000000000000000FFFFC0
FFFFE00000000000000000FFFFC0
FFFFE00000000000000000FFFFC0
FFFFE00000000000000000FFFFC0
FFFFE00000000000000000FFFFC0
FFFFE00000000000000000FFFFC0
FFFFE00000000000000000FFFFC0
FFFFE00000000000000000FFFFC0
FFFFE00000000000000000FFFFC0
FFFFE00000000000000000FFFFC0
FFFFE00000000000000000FFFFC0
FFFFE00000000000000000FFFFC0
FFFFE00000000000000000FFFFC0
FFFFE00000000000000000FFFFC0
FFFFE00000000000000000FFFFC0
FFFFE00000000000000000FFFFC0
FFFFE00000000000000000FFFFC0
FFFFE00000000000000000FFFFC0
FFFFE00000000000000000FFFFC0
FFFFE00000000000000000FFFFC0
FFFFE00000000000000000FFFFC0
FFFFE00000000000000000FFFFC0
FFFFE00000000000000000FFFFC0
FFFFE00000000000000000FFFFC0
FFFFE00000000000000000FFFFC0
FFFFE00000000000000000FFFFC0
FFFFE00000000000000000FFFFC0
FFFFE00000000000000000FFFFC0
FFFFE00000000000000000FFFFC0
FFFFE00000000000000000FFFFC0
FFFFE00000000000000000FFFFC0
FFFFE00000000000000000FFFFC0
FFFFE00000000000000000FFFFC0
FFFFE00000000000000000FFFFC0
FFFFE00000000000000000FFFFC0
FFFFE00000000000000000FFFFC0
FFFFE00000000000000000FFFFC0
FFFFE00000000000000000FFFFC0
FFFFE00000000000000000FFFFC0
FFFFE0007FFFFFFFFFFFFFFFFFC0
FFFFE0007FFFFFFFFFFFFFFFFFC0
FFFFE0007FFFFFFFFFFFFFFFFFC0
FFFFE0007FFFFFFFFFFFFFFFFFC0
FFFFE0007FFFFFFFFFFFFFFFFFC0
FFFFE0007FFFFFFFFFFFFFFFFFC0
FFFFE0007FFFFFFFFFFFFFFFFFC0
FFFFE0007FFFFFFFFFFFFFFFFFC0
FFFFE0007FFFFFFFFFFFFFFFFFC0
FFFFE0007FFFFFFFFFFFFFFFFFC0
FFFFE0007FFFFFFFFFFFFFFFFFC0
FFFFE0007FFFFFFFFFFFFFFFFFC0
FFFFE0007FFFFFFFFFFFFFFFFFC0
FFFFE0007FFFFFFFFFFFFFFFFFC0
FFFFE0007FFFFFFFFFFFFFFFFFC0
FFFFE0007FFFFFFFFFFFFFFFFFC0
FFFFE0007FFFFFFFFFFFFFFFFFC0
FFFFE00000000000000000FFFFC0
FFFFE00000000000000000FFFFC0
FFFFE00000000000000000FFFFC0
FFFFE00000000000000000FFFFC0
FFFFE00000000000000000FFFFC0
FFFFE00000000000000000FFFFC0
FFFFE00000000000000000FFFFC0
FFFFE00000000000000000FFFFC0
FFFFE00000000000000000FFFFC0
FFFFE00000000000000000FFFFC0
FFFFE00000000000000000FFFFC0
FFFFE00000000000000000FFFFC0
FFFFE00000000000000000FFFFC0
FFFFE00000000000000000FFFFC0
FFFFE00000000000000000FFFFC0
FFFFE00000000000000000FFFFC0
FFFFE00000000000000000FFFFC0
FFFFE00000000000000000FFFFC0
FFFFE00000000000000000FFFFC0
FFFFE00000000000000000FFFFC0
FFFFE00000000000000000FFFFC0
FFFFE00000000000000000FFFFC0
FFFFE00000000000000000FFFFC0
FFFFE00000000000000000FFFFC0
FFFFE00000000000000000FFFFC0
FFFFE00000000000000000FFFFC0
FFFFE00000000000000000FFFFC0
FFFFE00000000000000000FFFFC0
FFFFE00000000000000000FFFFC0
FFFFE00000000000000000FFFFC0
FFFFE00000000000000000FFFFC0
FFFFE00000000000000000FFFFC0
FFFFE00000000000000000FFFFC0
FFFFE00000000000000000FFFFC0
FFFFE00000000000000000FFFFC0
FFFFE00000000000000000FFFFC0
FFFFE00000000000000000FFFFC0
FFFFE00000000000000000FFFFC0
FFFFE00000000000000000FFFFC0
FFFFE00000000000000000FFFFC0
FFFFE00000000000000000FFFFC0
FFFFE00000000000000000FFFFC0
FFFFE00000000000000000FFFFC0
FFFFE00000000000000000FFFFC0
FFFFE00000000000000000FFFFC0
FFFFE00000000000000000FFFFC0
FFFFE00000000000000000FFFFC0
ENDCHAR
STARTCHAR i
ENCODING 105
SWIDTH 267 0
DWIDTH 40 0
BBX 19 108 10 0
BITMAP
FFFFE0
FFFFE0
FFFFE0
FFFFE0
FFFFE0
FFFFE0
FFFFE0
FFFFE0
FFFFE0
FFFFE0
FFFFE0
FFFFE0
FFFFE0
FFFFE0
FFFFE0
FFFFE0
FFFFE0
FFFFE0
FFFFE0
FFFFE0
FFFFE0
FFFFE0
FFFFE0
FFFFE0
FFFFE0
FFFFE0
FFFFE0
FFFFE0
FFFFE0
FFFFE0
FFFFE0
FFFFE0
FFFFE0
FFFFE0
FFFFE0
FFFFE0
FFFFE0
FFFFE0
FFFFE0
FFFFE0
FFFFE0
FFFFE0
FFFFE0
FFFFE0
FFFFE0
FFFFE0
FFFFE0
FFFFE0
FFFFE0
FFFFE0
FFFFE0
FFFFE0
FFFFE0
FFFFE0
FFFFE0
FFFFE0
FFFFE0
FFFFE0
FFFFE0
FFFFE0
FFFFE0
FFFFE0
FFFFE0
FFFFE0
FFFFE0
FFFFE0
FFFFE0
FFFFE0
FFFFE0
FFFFE0
FFFFE0
FFFFE0
FFFFE0
FFFFE0
FFFFE0
FFFFE0
FFFFE0
FFFFE0
FFFFE0
FFFFE0
FFFFE0
FFFFE0
FFFFE0
FFFFE0
FFFFE0
FFFFE0
FFFFE0
FFFFE0
FFFFE0
FFFFE0
FFFFE0
FFFFE0
FFFFE0
FFFFE0
FFFFE0
FFFFE0
FFFFE0
FFFFE0
FFFFE0
FFFFE0
FFFFE0
FFFFE0
FFFFE0
FFFFE0
FFFFE0
FFFFE0
FFFFE0
FFFFE0
ENDCHAR
STARTCHAR j
ENCODING 106
SWIDTH 708 0
DWIDTH 105 0
BBX 94 108 4 0
BITMAP
0000000000000000001FFFFC
0000000000000000001FFFFC
0000000000000000001FFFFC
0000000000000000001FFFFC
0000000000000000001FFFFC
0000000000000000001FFFFC
0000000000000000001FFFFC
0000000000000000001FFFFC
0000000000000000001FFFFC
0000000000000000001FFFFC
0000000000000000001FFFFC
0000000000000000001FFFFC
0000000000000000001FFFFC
0000000000000000001FFFFC
0000000000000000001FFFFC
0000000000000000001FFFFC
0000000000000000001FFFFC
0000000000000000001FFFFC
0000000000000000001FFFFC
0000000000000000001FFFFC
0000000000000000001FFFFC
0000000000000000001FFFFC
0000000000000000001FFFFC
0000000000000000001FFFFC
0000000000000000001FFFFC
0000000000000000001FFFFC
0000000000000000001FFFFC
0000000000000000001FFFFC
0000000000000000001FFFFC
0000000000000000001FFFFC
0000000000000000001FFFFC
0000000000000000001FFFFC
0000000000000000001FFFFC
0000000000000000001FFFFC
0000000000000000001FFFFC
0000000000000000001FFFFC
0000000000000000001FFFFC
0000000000000000001FFFFC
0000000000000000001FFFFC
0000000000000000001FFFFC
0000000000000000001FFFFC
0000000000000000001FFFFC
0000000000000000001FFFFC
0000000000000000001FFFFC
0000000000000000001FFFFC
0000000000000000001FFFFC
0000000000000000001FFFFC
0000000000000000001FFFFC
0000000000000000001FFFFC
0000000000000000001FFFFC
0000000000000000001FFFFC
0000000000000000001FFFFC
0000000000000000001FFFFC
0000000000000000001FFFFC
0000000000000000001FFFFC
0000000000000000001FFFFC
0000000000000000001FFFFC
0000000000000000001FFFFC
0000000000000000001FFFFC
0000000000000000001FFFFC
0000000000000000001FFFFC
0000000000000000001FFFFC
0000000000000000001FFFFC
0000000000000000001FFFFC
0000000000000000003FFFFC
0000000000000000003FFFF8
0000000000000000003FFFF8
0000000000000000003FFFF8
0000000000000000003FFFF8
0000000000000000003FFFF8
0000000000000000007FFFF8
0000000000000000007FFFF8
0000000000000000007FFFF8
000000000000000000FFFFF0
000000000000000000FFFFF0
000000000000000001FFFFF0
000000000000000001FFFFF0
000000000000000003FFFFE0
000000000000000003FFFFE0
000000000000000007FFFFE0
00000000000000000FFFFFE0
00000000000000001FFFFFC0
00000000000000003FFFFFC0
0000000000000000FFFFFF80
0000000000000001FFFFFF80
0000000000000007FFFFFF00
000000000000003FFFFFFF00
00000000000001FFFFFFFE00
0000000000007FFFFFFFFE00
FFFFFFFFFFFFFFFFFFFFFC00
FFFFFFFFFFFFFFFFFFFFF800
FFFFFFFFFFFFFFFFFFFFF800
FFFFFFFFFFFFFFFFFFFFF000
FFFFFFFFFFFFFFFFFFFFE000
FFFFFFFFFFFFFFFFFFFFC000
FFFFFFFFFFFFFFFFFFFF8000
FFFFFFFFFFFFFFFFFFFF0000
FFFFFFFFFFFFFFFFFFFE0000
FFFFFFFFFFFFFFFFFFF80000
FFFFFFFFFFFFFFFFFFF00000
FFFFFFFFFFFFFFFFFFC00000
FFFFFFFFFFFFFFFFFF800000
FFFFFFFFFFFFFFFFFC000000
FFFFFFFFFFFFFFFFF0000000
FFFFFFFFFFFFFFFF80000000
FFFFFFFFFFFFFFFC00000000
FFFFFFFFFFFFFF8000000000
FFFFFFFFFFFFC00000000000
ENDCHAR
STARTCHAR k
ENCODING 107
SWIDTH 875 0
DWIDTH 130 0
BBX 119 108 9 0
BITMAP
FFFFE00000000000000001FFFFFFF0
FFFFE00000000000000007FFFFFFC0
FFFFE0000000000000000FFFFFFF80
FFFFE0000000000000001FFFFFFF00
FFFFE0000000000000007FFFFFFC00
FFFFE000000000000000FFFFFFF800
FFFFE000000000000001FFFFFFF000
FFFFE000000000000007FFFFFFC000
FFFFE00000000000000FFFFFFF8000
FFFFE00000000000001FFFFFFF0000
FFFFE00000000000003FFFFFFC0000
FFFFE0000000000000FFFFFFF80000
FFFFE0000000000001FFFFFFF00000
FFFFE0000000000003FFFFFFC00000
FFFFE000000000000FFFFFFF800000
FFFFE000000000001FFFFFFF000000
FFFFE000000000003FFFFFFC000000
FFFFE00000000000FFFFFFF8000000
FFFFE00000000001FFFFFFF0000000
FFFFE00000000003FFFFFFE0000000
FFFFE0000000000FFFFFFF80000000
FFFFE0000000001FFFFFFF00000000
FFFFE0000000003FFFFFFE00000000
FFFFE0000000007FFFFFF800000000
FFFFE000000001FFFFFFF000000000
FFFFE000000003FFFFFFE000000000
FFFFE000000007FFFFFF8000000000
FFFFE00000001FFFFFFF0000000000
FFFFE00000003FFFFFFE0000000000
FFFFE00000007FFFFFF80000000000
FFFFE0000001FFFFFFF00000000000
FFFFE0000003FFFFFFE00000000000
FFFFE0000007FFFFFF800000000000
FFFFE000000FFFFFFF000000000000
FFFFE000003FFFFFFE000000000000
FFFFE000007FFFFFF8000000000000
FFFFE00000FFFFFFF0000000000000
FFFFE00003FFFFFFE0000000000000
FFFFE00007FFFFFF80000000000000
FFFFE0000FFFFFFF00000000000000
FFFFE0003FFFFFFE00000000000000
FFFFE0007FFFFFF800000000000000
FFFFE000FFFFFFF000000000000000
FFFFE003FFFFFFE000000000000000
FFFFE007FFFFFF8000000000000000
FFFFE00FFFFFFF0000000000000000
FFFFE01FFFFFFE0000000000000000
FFFFE03FFFFFF80000000000000000
FFFFE03FFFFFF00000000000000000
FFFFE07FFFFFE00000000000000000
FFFFE07FFFFFC00000000000000000
FFFFE07FFFFF000000000000000000
FFFFE07FFFFE000000000000000000
FFFFE07FFFFC000000000000000000
FFFFE07FFFFE000000000000000000
FFFFE07FFFFF000000000000000000
FFFFE03FFFFF800000000000000000
FFFFE03FFFFFE00000000000000000
FFFFE01FFFFFF00000000000000000
FFFFE00FFFFFF80000000000000000
FFFFE007FFFFFE0000000000000000
FFFFE003FFFFFF0000000000000000
FFFFE000FFFFFF8000000000000000
FFFFE0007FFFFFE000000000000000
FFFFE0003FFFFFF000000000000000
FFFFE0001FFFFFF800000000000000
FFFFE00007FFFFFE00000000000000
FFFFE00003FFFFFF00000000000000
FFFFE00001FFFFFF80000000000000
FFFFE000007FFFFFE0000000000000
FFFFE000003FFFFFF0000000000000
FFFFE000001FFFFFF8000000000000
FFFFE000000FFFFFFE000000000000
FFFFE0000003FFFFFF000000000000
FFFFE0000001FFFFFFC00000000000
FFFFE0000000FFFFFFE00000000000
FFFFE00000007FFFFFF00000000000
FFFFE00000001FFFFFFC0000000000
FFFFE00000000FFFFFFE0000000000
FFFFE000000007FFFFFF0000000000
FFFFE000000001FFFFFFC000000000
FFFFE000000000FFFFFFE000000000
FFFFE0000000007FFFFFF000000000
FFFFE0000000003FFFFFFC00000000
FFFFE0000000000FFFFFFE00000000
FFFFE00000000007FFFFFF00000000
FFFFE00000000003FFFFFFC0000000
FFFFE00000000001FFFFFFE0000000
FFFFE000000000007FFFFFF0000000
FFFFE000000000003FFFFFFC000000
FFFFE000000000001FFFFFFE000000
FFFFE0000000000007FFFFFF000000
FFFFE0000000000003FFFFFFC00000
FFFFE0000000000001FFFFFFE00000
FFFFE0000000000000FFFFFFF00000
FFFFE00000000000003FFFFFFC0000
FFFFE00000000000001FFFFFFE0000
FFFFE00000000000000FFFFFFF0000
FFFFE000000000000007FFFFFFC000
FFFFE000000000000001FFFFFFE000
FFFFE000000000000000FFFFFFF000
FFFFE0000000000000007FFFFFFC00
FFFFE0000000000000001FFFFFFE00
FFFFE0000000000000000FFFFFFF00
FFFFE00000000000000007FFFFFFC0
FFFFE00000000000000003FFFFFFE0
FFFFE00000000000000000FFFFFFF8
FFFFE000000000000000007FFFFFFE
ENDCHAR
ENDFONT
